<svg id="svg" version="1.1" xmlns="http://www.w3.org/2000/svg" xmlns:xlink="http://www.w3.org/1999/xlink" width="400" height="205.07757404795487" viewBox="0, 0, 400,205.07757404795487"><g id="svgg"><path id="path0" d="M151.949 59.259 C 150.187 59.634,150.359 56.377,150.359 89.314 C 150.360 121.851,150.245 119.333,151.774 120.355 L 152.471 120.821 166.800 120.821 C 183.876 120.821,182.338 121.250,182.124 116.542 C 182.000 113.804,183.213 114.051,169.917 114.051 L 158.564 114.051 158.564 87.398 C 158.564 60.071,158.560 59.924,157.734 59.482 C 157.197 59.194,153.012 59.033,151.949 59.259 M68.718 59.735 C 68.061 60.083,67.662 60.484,67.333 61.129 L 66.872 62.036 66.872 90.995 C 66.872 119.203,66.882 119.967,67.264 120.439 C 67.814 121.119,73.707 121.195,74.440 120.532 L 74.872 120.142 74.886 93.558 C 74.894 78.937,74.969 66.799,75.053 66.585 C 75.217 66.167,75.343 66.452,77.629 72.410 C 78.257 74.046,78.951 75.846,79.170 76.410 C 81.118 81.404,81.847 83.316,81.853 83.442 C 81.857 83.523,82.038 83.959,82.256 84.410 C 82.474 84.862,82.656 85.301,82.660 85.386 C 82.667 85.549,83.654 88.130,84.837 91.081 C 85.223 92.043,85.538 92.906,85.538 92.999 C 85.538 93.092,85.674 93.460,85.839 93.815 C 86.004 94.171,86.414 95.200,86.749 96.103 C 87.085 97.005,87.740 98.713,88.205 99.897 C 88.669 101.082,89.284 102.697,89.572 103.487 C 89.859 104.277,90.220 105.200,90.373 105.538 C 90.526 105.877,90.926 106.892,91.262 107.795 C 91.598 108.697,92.253 110.405,92.717 111.590 C 93.525 113.652,94.701 116.750,95.315 118.435 C 96.166 120.769,96.620 121.026,99.897 121.026 C 102.989 121.026,103.341 120.860,104.090 119.054 C 104.412 118.277,104.797 117.364,104.946 117.026 C 105.095 116.687,106.283 113.733,107.587 110.462 C 108.891 107.190,110.045 104.328,110.152 104.103 C 110.259 103.877,110.522 103.231,110.736 102.667 C 111.331 101.104,116.703 87.749,116.925 87.282 C 117.032 87.056,117.908 84.887,118.872 82.462 C 119.836 80.036,120.712 77.867,120.819 77.641 C 120.926 77.415,121.576 75.800,122.264 74.051 C 122.951 72.303,123.635 70.595,123.784 70.256 C 123.932 69.918,124.354 68.877,124.721 67.943 C 125.089 67.010,125.469 66.197,125.567 66.136 C 125.666 66.075,125.744 77.831,125.744 92.795 C 125.744 121.145,125.717 120.423,126.785 120.795 C 127.839 121.163,132.208 121.092,133.046 120.695 L 133.744 120.364 133.744 90.981 L 133.744 61.599 133.281 60.913 C 132.334 59.507,131.862 59.385,127.385 59.385 C 122.848 59.385,122.244 59.538,120.782 61.059 C 120.142 61.724,118.769 64.087,118.769 64.522 C 118.769 64.595,118.635 64.947,118.471 65.302 C 118.308 65.658,117.740 67.010,117.210 68.308 C 116.680 69.605,115.974 71.313,115.642 72.103 C 115.309 72.892,114.550 74.738,113.954 76.205 C 112.260 80.378,110.364 84.985,110.155 85.436 C 109.886 86.019,107.972 90.652,107.148 92.718 C 106.765 93.677,106.364 94.646,106.256 94.872 C 106.149 95.097,105.747 96.067,105.363 97.026 C 104.440 99.331,103.028 102.753,101.850 105.538 C 101.325 106.779,100.801 108.049,100.684 108.359 C 100.267 109.472,100.225 109.401,98.159 104.103 C 97.411 102.185,96.714 100.431,96.611 100.205 C 96.507 99.979,96.000 98.687,95.485 97.333 C 94.970 95.979,94.462 94.687,94.357 94.462 C 94.252 94.236,93.370 92.021,92.397 89.538 C 90.682 85.164,89.219 81.452,86.010 73.333 C 85.163 71.190,84.237 68.836,83.952 68.103 C 83.667 67.369,83.273 66.400,83.077 65.949 C 82.880 65.497,82.524 64.598,82.286 63.950 C 80.913 60.214,79.507 59.464,73.641 59.335 C 69.740 59.250,69.618 59.260,68.718 59.735 " stroke="none" fill="#9d2d39" fill-rule="evenodd"></path><path id="path1" d="M0.000 102.564 L 0.000 205.128 200.000 205.128 L 400.000 205.128 399.978 171.333 C 399.965 152.746,399.881 137.908,399.791 138.359 C 399.191 141.370,396.903 144.859,394.026 147.150 L 393.077 147.905 392.987 149.612 C 392.509 158.721,380.132 161.093,376.241 152.821 C 372.231 144.297,383.065 136.332,390.083 142.642 C 391.365 143.795,391.311 143.793,392.336 142.718 C 395.870 139.015,396.629 134.501,394.009 132.768 C 392.914 132.044,388.516 131.941,386.359 132.588 C 379.972 134.507,375.652 136.614,366.769 142.145 C 360.940 145.774,357.145 147.590,352.923 148.772 C 345.758 150.776,339.350 147.898,336.946 141.597 C 335.015 136.536,334.586 127.123,335.973 120.262 C 336.172 119.279,336.123 119.179,335.444 119.179 C 334.380 119.179,333.949 118.362,333.949 116.347 L 333.949 114.521 331.962 112.902 C 319.282 102.568,313.361 95.215,313.683 90.205 C 313.976 85.626,319.959 80.229,327.733 77.528 C 328.121 77.394,328.561 77.009,328.809 76.589 C 329.593 75.261,332.005 74.676,333.055 75.559 C 333.929 76.295,334.756 79.247,334.357 80.210 C 333.927 81.248,331.739 82.088,330.595 81.653 C 329.980 81.419,329.333 81.610,326.917 82.741 C 321.751 85.160,318.161 88.437,318.156 90.740 C 318.148 93.893,325.505 102.092,335.273 109.813 L 337.520 111.590 338.894 111.590 L 340.268 111.590 341.980 110.225 C 352.349 101.960,359.589 93.970,359.590 90.792 C 359.590 87.757,351.290 81.619,347.077 81.539 C 344.784 81.495,343.385 80.651,343.385 79.311 C 343.385 78.410,344.183 75.999,344.646 75.502 C 345.755 74.311,348.738 75.081,349.222 76.683 C 349.332 77.049,349.601 77.388,349.837 77.460 C 354.741 78.950,361.631 83.886,363.117 86.974 C 366.109 93.191,360.717 101.080,344.963 113.538 L 343.406 114.769 343.395 116.343 C 343.382 118.337,342.829 119.179,341.534 119.179 C 340.592 119.179,340.657 119.013,340.169 122.667 C 339.039 131.113,340.046 139.619,342.514 142.480 C 346.340 146.913,352.633 145.581,365.686 137.577 C 384.710 125.912,396.617 124.300,399.618 132.985 C 399.974 134.015,399.987 131.789,399.993 67.026 L 400.000 0.000 200.000 0.000 L 0.000 0.000 0.000 102.564 M256.390 57.842 C 258.978 58.333,260.249 62.461,258.710 65.380 C 257.137 68.364,250.335 67.761,249.652 64.577 C 248.513 59.267,250.967 56.814,256.390 57.842 M157.350 59.186 C 157.840 59.358,158.311 59.612,158.399 59.750 C 158.486 59.887,158.559 72.069,158.561 86.821 L 158.564 113.641 169.631 113.641 C 181.418 113.641,181.413 113.641,182.017 114.665 C 182.462 115.418,182.496 118.865,182.069 119.888 C 181.578 121.061,182.053 121.026,166.847 121.026 C 151.024 121.026,151.457 121.066,150.610 119.517 C 150.170 118.715,150.050 60.124,150.487 59.687 C 151.298 58.877,155.587 58.563,157.350 59.186 M76.910 59.288 C 80.436 59.745,81.285 60.683,83.592 66.667 C 84.223 68.303,84.914 70.056,85.128 70.564 C 85.343 71.072,86.219 73.287,87.076 75.487 C 87.934 77.687,88.718 79.672,88.819 79.897 C 88.920 80.123,89.429 81.415,89.951 82.769 C 90.473 84.123,90.981 85.415,91.080 85.641 C 91.357 86.271,92.020 87.949,92.622 89.538 C 92.920 90.328,93.285 91.251,93.431 91.590 C 93.689 92.185,94.431 94.056,97.333 101.436 C 99.491 106.922,99.658 107.348,99.895 107.982 C 100.248 108.927,100.369 108.710,102.689 102.974 C 103.077 102.015,103.482 101.046,103.588 100.821 C 103.775 100.425,104.936 97.577,106.389 93.949 C 106.773 92.990,107.175 92.021,107.282 91.795 C 107.389 91.569,107.793 90.600,108.178 89.641 C 108.930 87.770,110.055 85.079,110.364 84.410 C 110.469 84.185,110.868 83.215,111.252 82.256 C 112.644 78.780,113.863 75.786,114.049 75.385 C 114.252 74.946,116.064 70.591,116.823 68.718 C 120.627 59.321,120.771 59.188,127.179 59.182 C 132.244 59.178,133.183 59.508,133.732 61.483 C 134.068 62.696,134.030 120.027,133.692 120.442 C 132.909 121.406,128.349 121.728,126.609 120.943 C 126.133 120.729,125.722 120.544,125.695 120.533 C 125.668 120.522,125.599 108.429,125.541 93.660 L 125.436 66.806 124.946 68.019 C 124.677 68.685,124.334 69.508,124.185 69.846 C 124.036 70.185,122.847 73.138,121.543 76.410 C 120.239 79.682,119.084 82.544,118.975 82.769 C 118.867 82.995,117.817 85.579,116.643 88.513 C 115.468 91.446,114.411 94.077,114.295 94.359 C 114.178 94.641,113.740 95.749,113.321 96.821 C 112.903 97.892,112.438 99.046,112.289 99.385 C 112.140 99.723,111.411 101.523,110.670 103.385 C 109.929 105.246,109.245 106.954,109.149 107.179 C 108.876 107.820,108.624 108.445,106.212 114.462 C 103.423 121.416,103.398 121.444,99.911 121.431 C 96.634 121.419,96.106 121.034,94.857 117.744 C 93.598 114.428,92.468 111.517,92.176 110.841 C 92.023 110.485,91.894 110.116,91.890 110.020 C 91.887 109.925,91.705 109.477,91.487 109.026 C 91.269 108.574,91.088 108.062,91.084 107.887 C 91.080 107.712,90.997 107.482,90.899 107.374 C 90.801 107.267,90.577 106.764,90.402 106.256 C 90.226 105.749,89.902 104.872,89.682 104.308 C 89.461 103.744,88.991 102.497,88.637 101.538 C 88.282 100.579,87.903 99.610,87.795 99.385 C 87.686 99.159,87.324 98.236,86.990 97.333 C 86.657 96.431,86.002 94.723,85.537 93.538 C 85.071 92.354,84.378 90.554,83.997 89.538 C 83.616 88.523,82.925 86.723,82.461 85.538 C 81.998 84.354,81.206 82.277,80.702 80.923 C 80.198 79.569,79.700 78.277,79.596 78.051 C 79.491 77.826,79.162 76.995,78.863 76.205 C 78.201 74.457,76.751 70.690,76.415 69.846 C 76.280 69.508,75.947 68.650,75.675 67.940 L 75.179 66.649 75.077 93.581 L 74.974 120.513 74.154 120.918 C 72.341 121.812,67.269 121.352,66.852 120.255 C 66.572 119.520,66.612 62.671,66.893 61.641 C 67.531 59.298,70.896 58.507,76.910 59.288 M217.026 59.964 C 232.776 63.541,240.326 75.649,238.452 94.329 C 236.961 109.194,229.600 117.732,216.059 120.305 C 211.403 121.189,193.965 121.316,192.615 120.476 C 191.053 119.502,191.179 122.174,191.179 90.180 C 191.179 58.280,191.071 60.613,192.590 59.713 C 193.835 58.975,213.562 59.177,217.026 59.964 M199.590 90.053 L 199.590 114.105 205.692 113.981 C 218.303 113.725,223.213 111.503,226.965 104.353 C 229.887 98.788,230.865 87.669,228.991 81.333 C 227.857 77.498,226.952 75.549,225.316 73.417 C 221.210 68.065,216.433 66.332,205.179 66.111 L 199.590 66.001 199.590 90.053 M293.128 75.067 C 295.453 75.460,296.128 75.666,298.154 76.601 C 300.293 77.589,302.427 79.782,303.420 82.013 C 303.656 82.542,303.923 83.126,304.015 83.312 C 304.916 85.136,305.026 87.393,305.026 104.211 L 305.026 120.401 304.471 120.765 C 303.795 121.208,300.426 121.393,299.278 121.049 C 298.267 120.746,298.051 120.175,298.051 117.810 L 298.051 115.845 297.167 116.641 C 293.364 120.062,289.956 121.584,285.648 121.786 C 275.468 122.261,269.224 116.745,269.814 107.795 C 270.409 98.761,277.537 94.579,292.359 94.568 L 297.026 94.564 297.026 91.633 C 297.026 84.140,294.297 81.231,287.268 81.231 C 283.797 81.231,281.177 81.951,276.789 84.110 C 273.755 85.603,273.081 85.775,272.584 85.179 C 271.308 83.652,271.550 80.350,273.029 79.105 C 277.018 75.749,286.218 73.901,293.128 75.067 M257.506 75.754 C 257.816 75.958,258.158 76.356,258.266 76.639 C 258.586 77.482,258.519 119.566,258.197 120.205 C 257.478 121.630,251.244 121.630,250.519 120.205 C 250.164 119.507,250.233 76.454,250.590 76.097 C 251.469 75.218,256.320 74.977,257.506 75.754 M286.728 100.530 C 279.960 101.246,276.161 106.406,278.583 111.591 C 281.284 117.371,289.261 116.998,295.641 110.793 L 297.026 109.447 297.026 104.877 L 297.026 100.308 292.667 100.335 C 290.269 100.350,287.597 100.438,286.728 100.530 M382.667 145.093 C 378.253 147.113,379.438 153.436,384.231 153.436 C 389.717 153.436,389.907 145.302,384.430 144.896 C 383.719 144.843,383.048 144.918,382.667 145.093 " stroke="none" fill="#fbfbfb" fill-rule="evenodd"></path><path id="path2" d="M252.343 58.178 C 250.152 58.625,249.718 59.524,249.883 63.284 C 250.006 66.106,250.966 66.872,254.378 66.872 C 257.873 66.872,258.872 65.852,258.872 62.284 C 258.872 58.503,256.882 57.252,252.343 58.178 M200.821 59.473 C 192.933 59.596,192.954 59.593,192.000 60.613 L 191.487 61.161 191.487 90.017 C 191.487 122.202,191.369 119.557,192.841 120.318 C 193.492 120.655,209.905 120.734,213.026 120.415 C 215.247 120.189,218.745 119.575,218.872 119.389 C 218.928 119.306,219.344 119.171,219.795 119.089 C 220.803 118.905,224.312 117.488,224.615 117.142 C 224.672 117.078,225.167 116.799,225.716 116.523 C 227.848 115.449,231.479 112.139,232.927 109.949 C 233.263 109.441,233.595 108.979,233.664 108.923 C 233.924 108.714,235.469 105.577,235.594 105.004 C 235.666 104.678,235.801 104.410,235.893 104.410 C 235.986 104.410,236.177 103.926,236.319 103.333 C 236.460 102.741,236.653 102.118,236.746 101.949 C 236.959 101.563,237.514 98.991,237.763 97.231 C 237.867 96.497,238.052 95.330,238.174 94.636 C 238.444 93.096,238.461 84.887,238.195 84.371 C 238.090 84.167,237.939 83.264,237.861 82.365 C 237.782 81.465,237.645 80.635,237.556 80.519 C 237.468 80.403,237.275 79.708,237.128 78.974 C 236.982 78.241,236.796 77.549,236.716 77.436 C 236.635 77.323,236.504 76.957,236.424 76.623 C 236.276 76.006,235.625 74.410,235.291 73.846 C 235.191 73.677,234.814 72.985,234.454 72.308 C 234.093 71.631,233.739 71.031,233.667 70.974 C 233.594 70.918,233.268 70.456,232.942 69.949 C 232.208 68.806,228.938 65.547,227.692 64.717 C 227.185 64.379,226.647 63.987,226.498 63.846 C 226.349 63.705,226.109 63.590,225.965 63.590 C 225.822 63.590,225.491 63.405,225.231 63.179 C 224.971 62.954,224.656 62.766,224.533 62.762 C 224.409 62.758,223.938 62.577,223.487 62.359 C 223.036 62.141,222.551 61.960,222.410 61.956 C 222.269 61.952,222.154 61.865,222.154 61.762 C 222.154 61.659,221.799 61.515,221.366 61.441 C 220.933 61.368,220.320 61.174,220.004 61.011 C 219.689 60.847,218.774 60.617,217.972 60.500 C 217.169 60.383,216.328 60.199,216.103 60.090 C 215.877 59.981,214.262 59.809,212.513 59.708 C 210.764 59.607,209.103 59.486,208.821 59.440 C 208.538 59.394,204.938 59.408,200.821 59.473 M212.923 66.220 C 214.557 66.454,217.674 67.263,217.846 67.497 C 217.903 67.574,218.179 67.707,218.462 67.793 C 219.043 67.970,221.584 69.415,222.206 69.922 C 224.828 72.060,228.308 76.771,228.308 78.184 C 228.308 78.302,228.439 78.690,228.600 79.046 C 229.129 80.214,229.926 84.123,229.946 85.641 C 229.953 86.205,230.057 87.082,230.178 87.590 C 230.624 89.471,229.481 99.828,228.718 100.821 C 228.631 100.933,228.493 101.349,228.410 101.744 C 228.328 102.138,228.141 102.692,227.996 102.974 C 227.850 103.256,227.476 104.018,227.165 104.667 C 226.854 105.315,226.522 105.846,226.428 105.846 C 226.334 105.846,226.256 105.944,226.256 106.063 C 226.256 106.575,223.737 109.360,222.358 110.372 C 221.211 111.214,219.151 112.410,218.845 112.412 C 218.690 112.412,218.313 112.544,218.006 112.704 C 216.963 113.248,214.114 113.861,211.720 114.055 C 208.129 114.348,199.739 114.454,199.439 114.211 C 199.158 113.983,199.043 66.256,199.323 65.976 C 199.542 65.757,211.143 65.965,212.923 66.220 M285.128 75.076 C 282.328 75.509,278.344 76.458,278.152 76.738 C 278.094 76.822,277.771 76.957,277.434 77.039 C 276.775 77.198,274.574 78.317,273.491 79.043 C 271.732 80.222,271.481 84.415,273.125 85.164 C 273.583 85.373,275.674 84.613,276.103 84.082 C 276.159 84.012,276.551 83.831,276.974 83.680 C 277.397 83.529,277.744 83.331,277.744 83.241 C 277.744 83.151,277.863 83.077,278.008 83.077 C 278.153 83.077,278.624 82.898,279.054 82.679 C 279.483 82.459,280.109 82.220,280.444 82.146 C 280.779 82.073,281.291 81.890,281.580 81.739 C 281.870 81.589,282.789 81.402,283.621 81.324 C 284.453 81.246,285.178 81.111,285.231 81.025 C 285.370 80.800,289.430 80.767,289.712 80.989 C 289.842 81.091,290.387 81.231,290.922 81.301 C 295.051 81.839,297.190 85.223,297.386 91.530 L 297.480 94.547 293.612 94.639 C 288.705 94.756,284.899 95.064,283.014 95.496 C 281.104 95.933,278.080 96.851,277.949 97.034 C 277.892 97.112,277.633 97.242,277.373 97.323 C 275.983 97.757,272.452 100.712,271.845 101.949 C 271.706 102.231,271.506 102.600,271.399 102.769 C 268.392 107.548,270.335 115.915,275.179 119.054 C 276.165 119.693,276.683 119.955,278.453 120.712 C 280.717 121.681,289.170 121.749,289.755 120.802 C 289.818 120.699,290.037 120.615,290.240 120.615 C 291.234 120.615,294.797 118.432,296.718 116.646 C 298.443 115.043,298.462 115.056,298.462 117.849 L 298.462 120.211 299.128 120.618 C 299.809 121.033,303.795 121.247,303.795 120.869 C 303.795 120.783,304.003 120.622,304.256 120.510 L 304.718 120.308 304.718 103.467 C 304.718 91.311,304.654 86.547,304.487 86.339 C 304.361 86.181,304.194 85.618,304.118 85.088 C 303.679 82.060,301.554 78.922,298.903 77.391 C 298.378 77.088,297.903 76.776,297.846 76.698 C 297.790 76.619,297.328 76.444,296.821 76.309 C 296.313 76.173,295.803 75.985,295.687 75.891 C 295.572 75.796,294.972 75.654,294.354 75.576 C 293.736 75.497,293.127 75.351,292.999 75.250 C 292.680 74.999,286.513 74.862,285.128 75.076 M345.044 75.436 C 344.537 75.852,343.600 78.362,343.594 79.323 C 343.587 80.410,344.651 81.060,346.731 81.240 C 350.586 81.573,357.853 86.024,359.358 88.974 C 360.662 91.530,358.046 96.142,352.173 101.641 C 348.018 105.531,346.193 107.129,342.848 109.806 L 340.362 111.795 338.872 111.795 L 337.381 111.795 334.896 109.807 C 324.159 101.221,317.624 93.692,318.001 90.342 C 318.378 86.997,326.613 81.375,331.181 81.345 C 334.047 81.326,334.749 80.061,333.627 76.940 C 332.906 74.934,329.821 74.798,329.018 76.736 C 328.774 77.324,328.572 77.451,326.564 78.268 C 317.734 81.860,313.002 87.135,314.052 92.214 C 314.976 96.682,321.658 104.309,331.725 112.387 L 334.116 114.305 334.186 116.248 C 334.263 118.362,334.603 118.974,335.703 118.974 C 336.363 118.974,336.445 119.196,336.210 120.342 C 335.101 125.745,335.196 134.869,336.407 139.225 C 339.757 151.275,349.807 152.352,365.967 142.395 C 373.381 137.826,374.792 137.029,378.773 135.161 C 388.778 130.466,395.909 130.762,395.895 135.871 C 395.889 138.354,393.786 142.165,391.614 143.631 C 391.101 143.977,391.086 143.971,390.046 142.987 C 382.470 135.823,371.107 146.139,377.472 154.403 C 382.456 160.876,393.162 156.995,392.791 148.850 C 392.748 147.924,392.803 147.777,393.335 147.397 C 395.215 146.054,397.313 143.639,398.247 141.744 C 398.553 141.123,398.889 140.453,398.995 140.254 C 399.211 139.845,399.809 137.294,399.943 136.205 C 400.164 134.416,398.912 131.399,397.372 130.008 C 392.131 125.273,382.120 127.781,365.463 138.001 C 354.602 144.664,348.676 146.456,344.448 144.354 C 340.247 142.265,338.568 134.447,339.902 123.179 C 340.420 118.802,340.331 119.048,341.441 118.923 C 342.844 118.765,342.974 118.568,342.974 116.611 L 342.974 114.912 344.154 113.912 C 344.803 113.362,345.795 112.548,346.359 112.103 C 354.908 105.353,362.170 97.243,363.490 92.970 C 365.157 87.570,360.742 82.367,350.903 78.139 C 349.553 77.558,349.239 77.330,348.954 76.723 C 348.341 75.415,346.006 74.646,345.044 75.436 M251.127 76.057 L 250.665 76.413 250.717 98.359 L 250.769 120.304 251.487 120.655 C 252.504 121.152,256.214 121.152,257.231 120.655 L 257.949 120.304 258.001 98.351 L 258.053 76.397 257.456 76.045 C 256.581 75.527,251.803 75.537,251.127 76.057 M297.436 104.785 L 297.436 109.467 295.846 110.998 C 289.236 117.360,281.489 117.699,278.322 111.764 C 277.763 110.715,277.598 106.114,278.103 105.610 C 278.244 105.469,278.359 105.228,278.359 105.073 C 278.359 104.796,279.175 103.614,279.822 102.954 C 280.480 102.282,282.738 101.106,283.974 100.791 C 286.210 100.221,286.996 100.158,292.256 100.130 L 297.436 100.103 297.436 104.785 M385.908 144.955 C 387.752 145.909,388.453 146.859,388.642 148.661 C 389.199 153.988,382.025 155.734,379.948 150.777 C 378.485 147.286,382.615 143.252,385.908 144.955 " stroke="none" fill="#4f8429" fill-rule="evenodd"></path><path id="path3" d="M151.783 59.066 C 150.993 59.306,150.359 59.682,150.359 59.911 C 150.359 60.023,150.644 59.904,150.992 59.647 C 151.579 59.213,151.830 59.179,154.471 59.179 C 156.037 59.179,157.160 59.117,156.967 59.040 C 156.485 58.849,152.431 58.870,151.783 59.066 M71.445 59.230 C 72.325 59.268,73.709 59.268,74.522 59.229 C 75.335 59.190,74.615 59.159,72.923 59.159 C 71.231 59.159,70.566 59.191,71.445 59.230 M126.009 59.230 C 126.889 59.268,128.274 59.268,129.086 59.229 C 129.899 59.190,129.179 59.159,127.487 59.159 C 125.795 59.159,125.130 59.191,126.009 59.230 M68.410 59.664 C 67.559 60.189,67.133 60.713,66.970 61.436 C 66.856 61.938,66.919 61.883,67.313 61.137 C 67.651 60.496,68.065 60.083,68.699 59.753 C 69.196 59.494,69.473 59.282,69.314 59.283 C 69.156 59.283,68.749 59.455,68.410 59.664 M76.769 59.423 C 76.967 59.475,77.290 59.475,77.487 59.423 C 77.685 59.372,77.523 59.330,77.128 59.330 C 76.733 59.330,76.572 59.372,76.769 59.423 M131.540 59.575 C 132.481 59.911,132.876 60.225,133.366 61.026 C 133.775 61.696,133.888 61.576,133.511 60.871 C 133.004 59.925,132.008 59.268,131.115 59.291 C 130.925 59.296,131.116 59.424,131.540 59.575 M157.808 59.511 C 158.013 59.630,158.261 59.927,158.359 60.171 C 158.492 60.501,158.541 60.526,158.551 60.271 C 158.566 59.876,158.036 59.279,157.678 59.288 C 157.545 59.292,157.603 59.392,157.808 59.511 M79.114 60.094 C 80.276 60.675,80.929 61.254,81.578 62.280 C 81.712 62.493,81.827 62.554,81.834 62.417 C 81.868 61.721,79.599 59.835,78.427 59.585 C 78.103 59.515,78.407 59.741,79.114 60.094 M121.887 59.830 C 121.515 60.014,120.900 60.526,120.521 60.969 C 119.572 62.078,117.721 65.933,118.314 65.566 C 118.427 65.497,118.580 65.197,118.654 64.900 C 119.130 63.005,121.418 59.897,122.338 59.897 C 122.505 59.897,122.700 59.805,122.769 59.692 C 122.949 59.401,122.669 59.445,121.887 59.830 M150.254 89.128 C 150.254 105.036,150.278 111.574,150.308 103.657 C 150.337 95.740,150.337 82.725,150.308 74.734 C 150.278 66.743,150.254 73.221,150.254 89.128 M133.843 91.077 C 133.843 107.154,133.868 113.731,133.897 105.692 C 133.927 97.654,133.927 84.500,133.897 76.462 C 133.868 68.423,133.843 75.000,133.843 91.077 M66.717 90.910 C 66.668 119.183,66.700 120.821,67.302 120.821 C 67.460 120.821,67.445 120.710,67.256 120.481 C 67.021 120.199,66.957 115.300,66.870 91.097 L 66.766 62.051 66.717 90.910 M82.272 63.897 C 82.521 64.574,82.807 65.349,82.907 65.618 C 83.007 65.888,83.133 66.063,83.188 66.009 C 83.314 65.883,82.297 63.148,82.022 62.872 C 81.910 62.759,82.022 63.221,82.272 63.897 M117.478 67.126 C 117.185 67.832,116.334 69.874,115.587 71.662 C 114.841 73.451,114.282 74.966,114.346 75.030 C 114.410 75.093,114.462 75.099,114.462 75.043 C 114.462 74.987,114.883 73.933,115.397 72.701 C 117.519 67.623,118.166 65.995,118.091 65.920 C 118.048 65.877,117.772 66.419,117.478 67.126 M125.409 66.359 C 124.979 67.117,123.886 70.005,123.989 70.109 C 124.045 70.165,124.190 69.944,124.310 69.618 C 124.430 69.292,124.733 68.526,124.982 67.916 L 125.436 66.806 125.541 93.660 C 125.599 108.429,125.668 120.522,125.695 120.533 C 125.722 120.544,126.133 120.729,126.609 120.943 C 127.574 121.378,131.891 121.510,132.551 121.125 C 132.787 120.987,132.110 120.945,130.421 120.992 C 127.727 121.067,126.846 120.969,126.241 120.527 C 125.856 120.245,125.844 119.580,125.744 93.093 C 125.667 72.722,125.583 66.051,125.409 66.359 M75.198 66.667 C 75.272 66.949,75.464 67.410,75.623 67.692 L 75.912 68.205 75.777 67.692 C 75.702 67.410,75.511 66.949,75.352 66.667 L 75.062 66.154 75.198 66.667 M83.403 66.667 C 83.477 66.949,83.669 67.410,83.828 67.692 L 84.118 68.205 83.982 67.692 C 83.907 67.410,83.716 66.949,83.557 66.667 L 83.267 66.154 83.403 66.667 M199.484 90.051 C 199.484 103.195,199.508 108.572,199.538 102.000 C 199.568 95.428,199.568 84.674,199.538 78.103 C 199.508 71.531,199.484 76.908,199.484 90.051 M74.922 93.455 L 74.872 120.142 74.440 120.532 C 74.055 120.881,73.668 120.923,70.865 120.923 C 68.687 120.923,67.827 120.986,68.066 121.127 C 69.177 121.785,74.669 121.182,74.979 120.368 C 75.034 120.222,75.056 108.103,75.026 93.436 L 74.973 66.769 74.922 93.455 M253.487 67.225 C 253.854 67.271,254.454 67.271,254.821 67.225 C 255.187 67.180,254.887 67.143,254.154 67.143 C 253.421 67.143,253.121 67.180,253.487 67.225 M76.030 68.718 C 76.249 69.600,76.520 70.215,76.637 70.098 C 76.699 70.036,76.559 69.585,76.326 69.095 C 76.093 68.606,75.960 68.436,76.030 68.718 M84.116 68.369 C 84.091 68.676,85.394 71.803,85.501 71.695 C 85.596 71.601,85.396 71.079,84.400 68.821 C 84.251 68.482,84.123 68.279,84.116 68.369 M76.718 70.526 C 76.718 70.775,78.182 74.550,78.682 75.590 C 79.210 76.686,78.789 75.367,77.800 72.821 C 76.869 70.426,76.718 70.105,76.718 70.526 M123.566 70.689 C 123.491 70.902,122.885 72.450,122.219 74.129 C 121.554 75.807,121.047 77.218,121.093 77.264 C 121.139 77.310,121.790 75.807,122.540 73.925 C 123.290 72.042,123.858 70.456,123.803 70.401 C 123.747 70.346,123.641 70.475,123.566 70.689 M85.659 72.410 C 85.734 72.692,85.925 73.154,86.084 73.436 L 86.374 73.949 86.238 73.436 C 86.164 73.154,85.972 72.692,85.813 72.410 L 85.523 71.897 85.659 72.410 M86.480 74.462 C 86.554 74.744,86.746 75.205,86.905 75.487 L 87.194 76.000 87.059 75.487 C 86.984 75.205,86.793 74.744,86.634 74.462 L 86.344 73.949 86.480 74.462 M113.920 75.612 C 113.731 76.134,112.671 78.766,111.504 81.616 C 110.978 82.899,110.586 83.988,110.633 84.035 C 110.680 84.082,111.048 83.309,111.449 82.317 C 111.851 81.325,112.651 79.371,113.228 77.976 C 113.804 76.580,114.228 75.390,114.169 75.331 C 114.109 75.272,113.998 75.398,113.920 75.612 M87.179 76.188 C 87.179 76.435,88.468 79.600,88.540 79.529 C 88.636 79.433,87.395 76.103,87.264 76.103 C 87.218 76.103,87.179 76.141,87.179 76.188 M79.107 76.718 C 79.326 77.600,79.597 78.215,79.714 78.098 C 79.776 78.036,79.636 77.585,79.403 77.095 C 79.170 76.606,79.037 76.436,79.107 76.718 M250.355 98.359 C 250.355 110.205,250.380 115.021,250.410 109.061 C 250.440 103.101,250.440 93.409,250.410 87.523 C 250.380 81.637,250.355 86.513,250.355 98.359 M258.355 98.359 C 258.355 110.205,258.380 115.021,258.410 109.061 C 258.440 103.101,258.440 93.409,258.410 87.523 C 258.380 81.637,258.355 86.513,258.355 98.359 M120.690 77.868 C 120.613 78.082,120.146 79.260,119.652 80.488 C 119.157 81.715,118.800 82.766,118.859 82.825 C 118.917 82.883,119.028 82.756,119.105 82.542 C 119.182 82.329,119.649 81.150,120.143 79.923 C 120.638 78.696,120.994 77.644,120.936 77.586 C 120.878 77.527,120.767 77.654,120.690 77.868 M79.795 78.418 C 79.795 78.643,81.653 83.547,81.865 83.881 C 82.209 84.423,81.876 83.393,80.877 80.821 C 80.014 78.602,79.795 78.114,79.795 78.418 M88.730 80.256 C 88.808 80.510,89.002 80.949,89.161 81.231 L 89.451 81.744 89.313 81.231 C 89.087 80.386,88.838 79.795,88.709 79.795 C 88.642 79.795,88.652 80.003,88.730 80.256 M89.557 82.256 C 89.631 82.538,89.822 83.000,89.982 83.282 L 90.271 83.795 90.136 83.282 C 90.061 83.000,89.870 82.538,89.711 82.256 L 89.421 81.744 89.557 82.256 M271.847 83.179 C 271.849 83.631,271.891 83.791,271.940 83.536 C 271.989 83.281,271.987 82.912,271.936 82.716 C 271.884 82.519,271.844 82.728,271.847 83.179 M118.274 83.915 C 118.085 84.385,117.970 84.808,118.017 84.855 C 118.064 84.902,118.256 84.556,118.444 84.085 C 118.633 83.615,118.748 83.192,118.701 83.145 C 118.654 83.098,118.462 83.444,118.274 83.915 M90.375 84.308 C 90.573 85.052,90.860 85.540,90.858 85.128 C 90.858 84.959,90.718 84.590,90.548 84.308 L 90.239 83.795 90.375 84.308 M82.051 84.359 C 82.051 84.616,83.332 87.814,83.406 87.740 C 83.502 87.644,82.401 84.589,82.197 84.385 C 82.117 84.305,82.051 84.293,82.051 84.359 M110.154 84.821 C 110.035 85.134,109.983 85.436,110.040 85.493 C 110.096 85.549,110.240 85.339,110.359 85.026 C 110.478 84.712,110.529 84.410,110.473 84.353 C 110.417 84.297,110.273 84.507,110.154 84.821 M117.453 85.966 C 117.265 86.436,117.149 86.859,117.197 86.906 C 117.244 86.953,117.436 86.607,117.624 86.137 C 117.812 85.667,117.927 85.244,117.880 85.197 C 117.833 85.150,117.641 85.496,117.453 85.966 M90.954 85.846 C 91.425 87.197,92.378 89.434,92.451 89.361 C 92.565 89.247,91.272 85.908,91.012 85.641 C 90.881 85.507,90.861 85.578,90.954 85.846 M109.342 86.816 C 108.170 89.570,107.481 91.344,107.554 91.417 C 107.598 91.461,108.159 90.238,108.802 88.700 C 109.445 87.161,109.933 85.865,109.887 85.818 C 109.840 85.772,109.595 86.221,109.342 86.816 M238.644 89.436 C 238.644 90.959,238.677 91.582,238.716 90.821 C 238.756 90.059,238.756 88.813,238.716 88.051 C 238.677 87.290,238.644 87.913,238.644 89.436 M357.333 86.833 C 357.333 86.869,357.633 87.169,358.000 87.500 L 358.667 88.103 358.064 87.436 C 357.503 86.814,357.333 86.675,357.333 86.833 M116.793 87.509 C 116.716 87.723,115.604 90.519,114.322 93.722 C 113.040 96.926,112.037 99.592,112.092 99.648 C 112.148 99.704,112.292 99.483,112.413 99.157 C 112.655 98.501,113.962 95.166,114.293 94.359 C 116.277 89.519,117.126 87.314,117.039 87.227 C 116.981 87.169,116.870 87.296,116.793 87.509 M83.614 88.410 C 83.785 89.077,85.546 93.610,85.687 93.744 C 85.945 93.990,84.482 89.979,83.779 88.513 C 83.537 88.009,83.507 87.991,83.614 88.410 M92.632 90.051 C 92.829 90.796,93.116 91.283,93.115 90.872 C 93.114 90.703,92.975 90.333,92.805 90.051 L 92.496 89.538 92.632 90.051 M297.097 92.718 C 297.097 93.677,297.133 94.069,297.176 93.590 C 297.219 93.110,297.219 92.326,297.176 91.846 C 297.133 91.367,297.097 91.759,297.097 92.718 M93.128 91.315 C 93.128 91.371,93.345 91.963,93.611 92.631 C 93.876 93.299,94.155 94.021,94.231 94.234 C 94.307 94.448,94.415 94.576,94.472 94.519 C 94.579 94.412,93.502 91.587,93.263 91.348 C 93.189 91.274,93.128 91.259,93.128 91.315 M107.154 92.022 C 107.078 92.236,106.794 92.951,106.522 93.612 C 106.250 94.273,106.077 94.863,106.137 94.923 C 106.197 94.984,106.309 94.858,106.385 94.645 C 106.460 94.431,106.745 93.716,107.017 93.055 C 107.289 92.394,107.462 91.804,107.401 91.743 C 107.341 91.683,107.230 91.808,107.154 92.022 M85.858 94.410 C 85.936 94.664,86.130 95.103,86.289 95.385 L 86.579 95.897 86.442 95.385 C 86.215 94.540,85.966 93.949,85.837 93.949 C 85.771 93.949,85.780 94.156,85.858 94.410 M94.564 94.842 C 94.564 94.920,94.965 96.020,95.455 97.287 C 95.945 98.553,96.409 99.764,96.486 99.978 C 96.562 100.192,96.672 100.320,96.728 100.263 C 96.785 100.206,96.368 98.977,95.801 97.533 C 94.842 95.091,94.564 94.487,94.564 94.842 M105.791 95.427 C 105.733 95.573,105.260 96.733,104.740 98.006 C 103.846 100.194,103.583 100.997,103.988 100.308 C 104.344 99.701,106.066 95.331,105.982 95.247 C 105.935 95.200,105.849 95.281,105.791 95.427 M86.682 96.410 C 86.757 96.692,86.904 97.062,87.009 97.231 C 87.141 97.445,87.157 97.382,87.062 97.026 C 86.986 96.744,86.839 96.374,86.735 96.205 C 86.602 95.991,86.586 96.054,86.682 96.410 M87.312 98.051 C 87.531 98.933,87.802 99.549,87.919 99.431 C 87.981 99.370,87.841 98.918,87.608 98.429 C 87.375 97.939,87.242 97.769,87.312 98.051 M353.320 100.154 L 352.718 100.821 353.385 100.218 C 353.751 99.887,354.051 99.587,354.051 99.551 C 354.051 99.393,353.882 99.532,353.320 100.154 M88.105 100.103 C 88.465 101.284,89.488 103.811,89.572 103.727 C 89.622 103.677,89.326 102.772,88.914 101.716 C 88.190 99.858,87.784 99.050,88.105 100.103 M111.235 101.381 C 110.558 103.005,110.238 103.962,110.430 103.783 C 110.624 103.603,112.022 100.056,111.934 99.968 C 111.891 99.925,111.576 100.560,111.235 101.381 M293.842 100.254 L 297.018 100.318 297.079 104.672 L 297.140 109.026 297.134 104.615 L 297.128 100.205 293.897 100.197 L 290.666 100.189 293.842 100.254 M96.827 100.581 C 96.817 100.857,98.927 106.065,99.013 105.978 C 99.057 105.935,98.664 104.802,98.141 103.462 C 97.194 101.035,96.839 100.256,96.827 100.581 M103.462 101.048 C 103.386 101.261,103.101 101.977,102.829 102.638 C 102.558 103.299,102.373 103.877,102.419 103.924 C 102.466 103.970,102.799 103.304,103.161 102.443 C 103.522 101.582,103.769 100.829,103.709 100.768 C 103.649 100.708,103.537 100.834,103.462 101.048 M355.279 104.359 L 352.923 106.769 355.333 104.414 C 356.659 103.118,357.744 102.033,357.744 102.003 C 357.744 101.856,357.467 102.120,355.279 104.359 M321.838 103.846 C 322.688 104.752,322.872 104.915,322.872 104.761 C 322.872 104.728,322.433 104.289,321.897 103.786 L 320.923 102.872 321.838 103.846 M89.655 104.205 C 89.655 104.374,89.795 104.744,89.965 105.026 L 90.274 105.538 90.138 105.026 C 89.940 104.281,89.653 103.794,89.655 104.205 M110.026 104.330 C 109.950 104.543,109.665 105.259,109.393 105.920 C 109.122 106.581,108.949 107.171,109.009 107.231 C 109.069 107.291,109.181 107.166,109.256 106.952 C 109.332 106.739,109.617 106.023,109.889 105.362 C 110.160 104.701,110.334 104.111,110.273 104.051 C 110.213 103.991,110.101 104.116,110.026 104.330 M101.448 105.961 C 101.030 106.934,100.730 107.773,100.781 107.824 C 100.832 107.875,101.210 107.114,101.621 106.133 C 102.031 105.152,102.331 104.314,102.288 104.271 C 102.244 104.227,101.866 104.988,101.448 105.961 M323.692 105.744 C 324.075 106.138,324.434 106.462,324.491 106.462 C 324.547 106.462,324.280 106.138,323.897 105.744 C 323.515 105.349,323.155 105.026,323.099 105.026 C 323.043 105.026,323.310 105.349,323.692 105.744 M90.363 106.051 C 90.654 107.025,90.884 107.544,90.981 107.446 C 91.035 107.393,90.973 107.034,90.845 106.649 C 90.565 105.813,90.132 105.275,90.363 106.051 M99.209 106.667 C 99.429 107.549,99.699 108.164,99.816 108.047 C 99.878 107.985,99.738 107.534,99.506 107.044 C 99.273 106.554,99.139 106.385,99.209 106.667 M107.413 110.900 C 106.660 112.780,106.079 114.353,106.122 114.395 C 106.165 114.438,106.820 112.940,107.579 111.066 C 108.337 109.192,108.919 107.619,108.870 107.571 C 108.821 107.522,108.166 109.021,107.413 110.900 M351.269 108.154 L 350.667 108.821 351.333 108.218 C 351.955 107.656,352.094 107.487,351.936 107.487 C 351.901 107.487,351.601 107.787,351.269 108.154 M91.094 107.833 C 91.069 108.196,91.482 109.201,91.606 109.078 C 91.665 109.019,91.577 108.660,91.412 108.280 C 91.246 107.900,91.103 107.699,91.094 107.833 M100.417 108.297 C 100.341 108.420,100.181 108.459,100.062 108.385 C 99.939 108.309,99.884 108.369,99.935 108.523 C 100.074 108.940,100.447 108.981,100.595 108.595 C 100.750 108.192,100.618 107.972,100.417 108.297 M91.825 109.744 C 92.044 110.626,92.315 111.241,92.432 111.124 C 92.494 111.062,92.354 110.611,92.121 110.121 C 91.888 109.631,91.755 109.462,91.825 109.744 M92.513 111.539 C 92.513 111.875,93.993 115.511,94.091 115.414 C 94.170 115.334,92.774 111.586,92.595 111.402 C 92.550 111.355,92.513 111.416,92.513 111.539 M338.205 111.738 C 338.572 111.784,339.172 111.784,339.538 111.738 C 339.905 111.693,339.605 111.655,338.872 111.655 C 338.138 111.655,337.838 111.693,338.205 111.738 M158.564 113.846 C 158.564 113.980,162.485 114.051,169.917 114.051 C 183.213 114.051,182.000 113.804,182.124 116.542 C 182.211 118.454,182.043 119.792,181.649 120.331 C 181.378 120.702,180.770 120.722,166.940 120.823 L 152.513 120.929 166.731 120.977 C 176.612 121.011,181.076 120.958,181.364 120.804 C 182.880 119.993,182.742 114.572,181.187 113.864 C 180.535 113.567,158.564 113.550,158.564 113.846 M210.000 113.991 C 210.254 114.040,210.669 114.040,210.923 113.991 C 211.177 113.942,210.969 113.902,210.462 113.902 C 209.954 113.902,209.746 113.942,210.000 113.991 M105.556 115.504 C 105.367 115.974,105.252 116.397,105.299 116.444 C 105.346 116.491,105.538 116.145,105.726 115.675 C 105.915 115.205,106.030 114.782,105.983 114.735 C 105.936 114.688,105.744 115.034,105.556 115.504 M343.250 116.410 C 343.251 117.313,343.287 117.657,343.330 117.174 C 343.373 116.692,343.373 115.953,343.329 115.533 C 343.285 115.113,343.249 115.508,343.250 116.410 M94.167 115.897 C 94.168 116.067,94.307 116.436,94.477 116.718 L 94.786 117.231 94.650 116.718 C 94.453 115.974,94.166 115.486,94.167 115.897 M298.127 117.949 C 298.127 119.133,298.161 119.618,298.203 119.026 C 298.244 118.433,298.244 117.464,298.203 116.872 C 298.161 116.279,298.127 116.764,298.127 117.949 M104.820 117.254 C 103.471 120.926,103.341 121.026,99.897 121.026 C 97.166 121.026,96.413 120.774,95.801 119.657 C 95.517 119.138,95.417 119.046,95.505 119.385 C 96.057 121.507,102.014 122.300,103.634 120.466 C 104.016 120.033,105.286 116.910,105.139 116.763 C 105.083 116.707,104.939 116.928,104.820 117.254 M94.888 117.744 C 95.085 118.488,95.372 118.976,95.371 118.564 C 95.371 118.395,95.231 118.026,95.061 117.744 L 94.752 117.231 94.888 117.744 M150.367 118.769 C 150.383 119.489,151.624 120.814,152.287 120.819 C 152.388 120.820,152.157 120.611,151.774 120.355 C 151.391 120.099,150.916 119.568,150.718 119.175 C 150.521 118.783,150.363 118.600,150.367 118.769 M335.235 127.179 C 335.235 127.687,335.275 127.895,335.324 127.641 C 335.373 127.387,335.373 126.972,335.324 126.718 C 335.275 126.464,335.235 126.672,335.235 127.179 M397.128 129.500 C 397.128 129.535,397.428 129.835,397.795 130.167 L 398.462 130.769 397.859 130.103 C 397.297 129.481,397.128 129.342,397.128 129.500 M390.106 132.046 C 390.475 132.092,391.029 132.091,391.337 132.044 C 391.645 131.997,391.344 131.960,390.667 131.961 C 389.990 131.962,389.738 132.000,390.106 132.046 M383.744 140.452 C 383.997 140.501,384.413 140.501,384.667 140.452 C 384.921 140.404,384.713 140.364,384.205 140.364 C 383.697 140.364,383.490 140.404,383.744 140.452 M377.835 143.128 L 377.128 143.897 377.897 143.191 C 378.613 142.533,378.761 142.359,378.604 142.359 C 378.570 142.359,378.224 142.705,377.835 143.128 M383.846 153.577 C 384.044 153.629,384.367 153.629,384.564 153.577 C 384.762 153.526,384.600 153.483,384.205 153.483 C 383.810 153.483,383.649 153.526,383.846 153.577 " stroke="none" fill="#da9594" fill-rule="evenodd"></path><path id="path4" d="M252.434 57.857 C 251.882 57.950,251.328 58.134,251.203 58.266 C 251.030 58.448,251.075 58.477,251.385 58.385 C 252.941 57.920,256.097 57.912,257.333 58.370 C 257.633 58.481,257.686 58.459,257.531 58.290 C 257.034 57.746,254.420 57.524,252.434 57.857 M250.292 58.976 C 248.800 60.873,249.338 65.663,251.148 66.602 C 253.236 67.685,258.667 66.802,258.667 65.379 C 258.667 65.255,258.396 65.430,258.064 65.769 C 256.649 67.217,251.906 67.247,250.536 65.817 C 249.573 64.811,249.555 59.966,250.511 59.075 C 250.749 58.853,250.893 58.619,250.829 58.555 C 250.765 58.492,250.524 58.681,250.292 58.976 M257.846 58.509 C 257.846 58.586,258.088 58.999,258.383 59.427 C 258.798 60.030,258.886 60.090,258.772 59.692 C 258.633 59.212,257.846 58.206,257.846 58.509 M192.824 59.662 C 191.127 60.572,191.289 57.525,191.226 89.707 C 191.163 121.606,191.071 119.516,192.578 120.453 L 193.333 120.923 202.667 120.899 C 207.800 120.886,212.552 120.793,213.226 120.694 C 213.993 120.581,210.550 120.540,204.036 120.585 C 192.695 120.663,192.769 120.669,191.943 119.511 L 191.487 118.872 191.487 90.017 L 191.487 61.161 192.000 60.613 C 192.955 59.593,192.930 59.596,200.821 59.479 L 208.308 59.368 200.920 59.325 C 194.073 59.285,193.480 59.310,192.824 59.662 M209.231 59.447 C 209.400 59.552,210.923 59.685,212.615 59.742 C 214.447 59.804,215.360 59.779,214.872 59.679 C 213.596 59.418,208.872 59.224,209.231 59.447 M216.103 60.053 C 216.304 60.254,219.301 60.767,219.443 60.625 C 219.516 60.553,218.262 60.261,216.718 59.991 C 216.171 59.896,215.966 59.916,216.103 60.053 M258.921 62.359 C 258.921 64.344,258.936 64.429,259.117 63.436 C 259.242 62.750,259.242 61.968,259.117 61.282 C 258.936 60.289,258.921 60.374,258.921 62.359 M219.779 60.898 C 219.911 61.112,221.750 61.600,221.891 61.459 C 221.945 61.405,221.502 61.217,220.906 61.040 C 219.641 60.664,219.634 60.663,219.779 60.898 M222.154 61.744 C 222.154 61.856,222.269 61.949,222.410 61.950 C 222.551 61.951,222.912 62.079,223.211 62.235 C 223.510 62.391,224.087 62.629,224.493 62.763 C 224.899 62.897,225.231 63.082,225.231 63.175 C 225.231 63.268,225.511 63.442,225.853 63.561 C 227.004 63.963,226.281 63.446,224.351 62.488 C 222.313 61.477,222.154 61.423,222.154 61.744 M226.667 63.960 C 226.667 64.059,226.874 64.245,227.128 64.374 C 227.382 64.503,227.821 64.759,228.103 64.942 C 228.491 65.194,228.466 65.143,228.000 64.730 C 227.235 64.052,226.667 63.724,226.667 63.960 M228.718 65.309 C 228.718 65.367,229.536 66.227,230.535 67.220 C 231.534 68.213,232.618 69.441,232.943 69.949 C 233.269 70.456,233.594 70.918,233.667 70.974 C 233.739 71.031,234.093 71.631,234.454 72.308 C 234.814 72.985,235.194 73.677,235.298 73.846 C 235.402 74.015,235.582 74.420,235.698 74.746 C 235.814 75.072,235.966 75.282,236.037 75.211 C 236.399 74.849,233.540 70.128,231.648 67.964 C 230.623 66.792,228.718 65.065,228.718 65.309 M199.316 65.983 C 199.241 66.058,199.202 76.789,199.229 89.829 L 199.279 113.538 199.383 89.846 L 199.487 66.154 205.616 66.166 C 208.987 66.172,211.572 66.110,211.360 66.026 C 210.878 65.837,199.503 65.796,199.316 65.983 M213.949 66.650 C 215.021 66.865,216.304 67.188,216.801 67.368 C 217.553 67.642,218.153 67.672,217.829 67.421 C 217.519 67.180,214.360 66.440,213.293 66.359 C 212.106 66.268,212.160 66.292,213.949 66.650 M219.487 68.520 C 224.046 71.051,226.758 74.363,228.528 79.559 C 228.975 80.870,229.100 81.101,229.007 80.445 C 228.938 79.956,228.753 79.310,228.596 79.009 C 228.439 78.708,228.310 78.351,228.309 78.215 C 228.302 76.764,224.856 72.083,222.206 69.922 C 221.557 69.392,219.026 67.964,218.462 67.808 C 218.179 67.730,218.641 68.050,219.487 68.520 M285.333 74.868 C 284.826 74.945,285.703 74.965,287.282 74.912 C 288.862 74.859,290.192 74.782,290.239 74.741 C 290.385 74.614,286.309 74.720,285.333 74.868 M291.026 75.017 C 291.279 75.065,291.695 75.065,291.949 75.017 C 292.203 74.968,291.995 74.928,291.487 74.928 C 290.979 74.928,290.772 74.968,291.026 75.017 M282.051 75.395 L 281.128 75.673 282.359 75.555 C 283.036 75.490,283.728 75.359,283.897 75.263 C 284.391 74.984,283.111 75.076,282.051 75.395 M293.026 75.235 C 293.138 75.346,293.738 75.491,294.359 75.558 C 295.650 75.698,295.191 75.420,293.744 75.185 C 293.141 75.087,292.892 75.104,293.026 75.235 M332.434 75.469 C 333.027 75.739,333.319 76.018,333.418 76.412 C 333.495 76.720,333.609 76.921,333.670 76.860 C 334.081 76.449,332.710 75.072,331.897 75.082 C 331.728 75.084,331.970 75.258,332.434 75.469 M344.630 75.617 C 344.396 75.915,344.205 76.261,344.206 76.387 C 344.206 76.512,344.383 76.326,344.599 75.971 C 344.815 75.617,345.115 75.278,345.265 75.218 C 345.439 75.149,345.450 75.103,345.297 75.093 C 345.164 75.084,344.864 75.320,344.630 75.617 M347.691 75.526 C 348.199 75.787,348.728 76.231,348.868 76.513 C 349.038 76.855,349.123 76.912,349.125 76.685 C 349.128 76.352,348.036 75.282,347.693 75.282 C 347.598 75.282,347.352 75.230,347.145 75.167 C 346.938 75.104,347.184 75.265,347.691 75.526 M252.308 75.487 C 251.845 75.584,252.544 75.648,254.268 75.665 C 256.273 75.686,257.047 75.768,257.345 75.993 C 257.866 76.387,258.226 76.395,257.835 76.004 C 257.229 75.398,254.115 75.107,252.308 75.487 M330.359 75.487 C 329.836 75.712,330.376 75.712,331.077 75.487 C 331.489 75.355,331.509 75.322,331.179 75.317 C 330.954 75.314,330.585 75.390,330.359 75.487 M236.216 75.795 C 236.282 76.021,236.388 76.461,236.451 76.773 C 236.514 77.086,236.646 77.392,236.744 77.452 C 237.044 77.637,236.935 77.071,236.504 76.205 C 236.280 75.754,236.150 75.569,236.216 75.795 M250.801 76.067 C 250.490 76.412,250.462 78.257,250.462 98.415 L 250.462 120.387 250.917 120.706 C 251.168 120.882,251.560 121.021,251.789 121.016 C 252.097 121.008,252.019 120.915,251.487 120.655 L 250.769 120.304 250.717 98.359 L 250.665 76.413 251.127 76.057 C 251.382 75.862,251.489 75.699,251.365 75.697 C 251.242 75.694,250.988 75.861,250.801 76.067 M279.517 76.027 C 278.302 76.400,278.341 76.565,279.578 76.288 C 280.574 76.064,281.364 75.699,280.821 75.713 C 280.651 75.717,280.065 75.859,279.517 76.027 M295.703 75.878 C 295.923 76.089,297.476 76.541,297.589 76.428 C 297.657 76.360,295.863 75.692,295.615 75.692 C 295.556 75.692,295.595 75.776,295.703 75.878 M329.483 75.830 C 329.184 75.950,328.535 77.116,328.684 77.265 C 328.739 77.320,328.845 77.170,328.920 76.932 C 328.996 76.694,329.253 76.317,329.491 76.096 C 329.935 75.682,329.934 75.648,329.483 75.830 M258.001 98.408 L 257.949 120.304 257.231 120.673 C 256.520 121.039,256.519 121.042,257.128 120.920 C 258.318 120.684,258.256 121.913,258.256 98.320 C 258.256 86.326,258.211 76.513,258.155 76.513 C 258.099 76.513,258.030 86.366,258.001 98.408 M277.538 76.706 C 274.717 77.572,271.983 79.676,272.007 80.964 C 272.010 81.167,272.197 80.918,272.421 80.410 C 272.649 79.895,273.122 79.291,273.492 79.043 C 274.660 78.259,276.800 77.184,277.487 77.035 C 277.854 76.955,278.154 76.806,278.154 76.702 C 278.154 76.598,278.131 76.521,278.103 76.530 C 278.074 76.540,277.821 76.619,277.538 76.706 M297.846 76.655 C 297.846 76.747,298.254 77.037,298.752 77.302 C 301.412 78.713,303.718 82.087,304.127 85.164 C 304.200 85.714,304.349 86.219,304.460 86.287 C 305.072 86.665,303.878 82.770,302.837 80.994 C 301.776 79.183,297.846 75.767,297.846 76.655 M343.836 77.477 C 343.532 78.466,343.679 78.613,344.000 77.641 C 344.135 77.231,344.206 76.856,344.157 76.807 C 344.109 76.758,343.964 77.060,343.836 77.477 M349.128 77.229 C 349.128 77.369,350.384 77.992,350.478 77.898 C 350.523 77.854,350.237 77.664,349.844 77.476 C 349.450 77.288,349.128 77.177,349.128 77.229 M327.692 77.648 C 327.177 77.896,327.160 77.925,327.590 77.821 C 327.872 77.753,328.190 77.616,328.297 77.515 C 328.563 77.267,328.417 77.299,327.692 77.648 M236.938 77.882 C 236.930 78.014,237.031 78.614,237.163 79.215 C 237.449 80.521,237.846 81.105,237.626 79.897 C 237.458 78.972,236.960 77.513,236.938 77.882 M334.099 79.093 C 334.198 80.269,334.172 80.366,333.639 80.786 C 333.327 81.030,333.162 81.231,333.270 81.231 C 334.085 81.231,334.633 79.404,334.162 78.256 C 334.061 78.012,334.036 78.351,334.099 79.093 M351.385 78.359 C 351.779 78.575,352.195 78.752,352.308 78.752 C 352.421 78.752,352.190 78.575,351.795 78.359 C 351.400 78.143,350.985 77.966,350.872 77.966 C 350.759 77.966,350.990 78.143,351.385 78.359 M343.432 79.179 C 343.432 79.574,343.474 79.736,343.526 79.538 C 343.578 79.341,343.578 79.018,343.526 78.821 C 343.474 78.623,343.432 78.785,343.432 79.179 M323.621 79.408 C 322.960 79.749,322.465 80.072,322.520 80.127 C 322.575 80.182,323.208 79.900,323.925 79.500 C 325.514 78.616,325.288 78.548,323.621 79.408 M352.632 78.846 C 352.844 79.035,354.051 79.590,354.051 79.498 C 354.051 79.380,352.914 78.769,352.694 78.769 C 352.613 78.769,352.585 78.804,352.632 78.846 M354.256 79.676 C 354.256 79.726,354.855 80.085,355.586 80.473 C 356.317 80.862,356.864 81.097,356.802 80.995 C 356.673 80.787,354.256 79.534,354.256 79.676 M344.045 80.526 C 344.352 80.845,344.651 81.059,344.709 81.000 C 344.768 80.942,344.517 80.681,344.151 80.420 L 343.487 79.946 344.045 80.526 M321.590 80.528 C 320.823 80.944,320.870 81.117,321.641 80.718 C 321.979 80.543,322.256 80.356,322.256 80.302 C 322.256 80.170,322.234 80.178,321.590 80.528 M285.216 81.049 C 285.154 81.151,286.155 81.231,287.487 81.231 C 289.083 81.231,289.827 81.160,289.739 81.018 C 289.578 80.757,285.379 80.786,285.216 81.049 M237.888 82.462 C 237.952 83.308,238.087 84.138,238.190 84.308 C 238.306 84.499,238.326 84.125,238.243 83.317 C 238.041 81.351,237.752 80.654,237.888 82.462 M319.835 81.659 C 318.685 82.505,318.732 82.648,319.897 81.846 C 320.700 81.294,320.982 81.026,320.758 81.026 C 320.724 81.026,320.309 81.311,319.835 81.659 M282.587 81.447 C 282.036 81.539,281.482 81.720,281.357 81.848 C 281.187 82.021,281.272 82.045,281.686 81.943 C 281.993 81.867,282.732 81.686,283.327 81.540 C 284.541 81.244,284.117 81.191,282.587 81.447 M291.077 81.507 C 293.611 82.261,295.673 84.039,296.341 86.047 C 296.529 86.613,296.721 86.963,296.768 86.823 C 297.287 85.272,293.488 81.633,291.043 81.340 L 290.154 81.233 291.077 81.507 M330.065 81.461 C 330.717 81.643,332.111 81.650,332.555 81.473 C 332.748 81.396,332.154 81.331,331.236 81.327 C 330.306 81.324,329.787 81.383,330.065 81.461 M346.208 81.376 C 346.463 81.425,346.832 81.423,347.028 81.372 C 347.224 81.320,347.015 81.280,346.564 81.282 C 346.113 81.285,345.952 81.327,346.208 81.376 M347.897 81.401 C 348.067 81.506,348.436 81.653,348.718 81.729 C 349.074 81.824,349.137 81.808,348.923 81.676 C 348.754 81.571,348.385 81.424,348.103 81.348 C 347.746 81.253,347.684 81.269,347.897 81.401 M357.128 81.280 C 357.128 81.333,357.659 81.749,358.308 82.205 C 358.956 82.660,360.126 83.666,360.906 84.440 C 361.933 85.458,362.132 85.601,361.629 84.960 C 360.757 83.849,357.128 80.882,357.128 81.280 M229.239 82.051 C 229.801 85.442,229.909 85.979,229.928 85.475 C 229.958 84.651,229.530 82.005,229.308 81.641 C 229.182 81.436,229.159 81.573,229.239 82.051 M280.103 82.237 C 279.877 82.316,279.349 82.538,278.930 82.729 C 278.510 82.920,278.072 83.077,277.955 83.077 C 277.839 83.077,277.744 83.170,277.744 83.285 C 277.744 83.403,278.074 83.350,278.513 83.162 C 278.936 82.979,279.674 82.693,280.154 82.524 C 281.012 82.223,281.272 82.032,280.769 82.072 C 280.628 82.083,280.328 82.157,280.103 82.237 M327.179 82.359 C 326.897 82.520,326.759 82.652,326.872 82.652 C 326.985 82.652,327.308 82.520,327.590 82.359 C 327.872 82.198,328.010 82.066,327.897 82.066 C 327.785 82.066,327.462 82.198,327.179 82.359 M350.154 82.359 C 350.436 82.520,350.759 82.652,350.872 82.652 C 350.985 82.652,350.846 82.520,350.564 82.359 C 350.282 82.198,349.959 82.066,349.846 82.066 C 349.733 82.066,349.872 82.198,350.154 82.359 M317.538 83.464 C 316.918 84.012,316.104 84.911,315.730 85.461 C 315.277 86.128,315.240 86.222,315.619 85.744 C 315.932 85.349,316.792 84.449,317.530 83.744 C 319.124 82.220,319.129 82.059,317.538 83.464 M351.590 82.971 C 351.590 83.025,352.051 83.304,352.615 83.590 C 353.905 84.243,353.960 84.111,352.692 83.402 C 351.706 82.851,351.590 82.806,351.590 82.971 M276.667 83.754 C 276.356 83.876,276.103 84.046,276.103 84.131 C 276.103 84.328,277.295 83.921,277.448 83.672 C 277.589 83.445,277.398 83.465,276.667 83.754 M272.117 84.205 C 272.275 85.015,272.768 85.538,273.372 85.538 C 273.884 85.538,276.007 84.554,275.844 84.391 C 275.793 84.340,275.274 84.544,274.692 84.846 C 273.433 85.500,272.813 85.348,272.310 84.262 L 271.998 83.590 272.117 84.205 M323.128 84.536 C 322.429 84.984,322.203 85.285,322.821 84.945 C 323.291 84.687,324.028 84.116,323.897 84.113 C 323.841 84.111,323.495 84.302,323.128 84.536 M355.481 85.273 C 355.759 85.475,356.590 86.134,357.327 86.736 L 358.667 87.830 357.436 86.699 C 356.759 86.076,355.929 85.418,355.590 85.236 C 354.978 84.907,354.977 84.907,355.481 85.273 M238.432 86.872 C 238.431 87.887,238.466 88.328,238.509 87.852 C 238.552 87.376,238.552 86.545,238.510 86.006 C 238.468 85.467,238.432 85.856,238.432 86.872 M320.805 86.244 C 320.063 86.851,319.287 87.611,319.081 87.931 C 318.834 88.315,319.014 88.198,319.610 87.584 C 320.107 87.073,320.928 86.316,321.436 85.901 C 321.944 85.486,322.313 85.145,322.256 85.143 C 322.200 85.141,321.547 85.636,320.805 86.244 M314.554 87.199 C 314.374 87.547,314.263 87.869,314.307 87.914 C 314.352 87.958,314.542 87.673,314.729 87.279 C 315.151 86.395,315.005 86.327,314.554 87.199 M304.718 103.487 L 304.718 120.308 304.256 120.510 C 304.003 120.622,303.795 120.783,303.795 120.869 C 303.795 121.156,304.200 121.031,304.615 120.615 C 305.036 120.195,305.255 90.240,304.857 87.590 C 304.780 87.082,304.718 94.236,304.718 103.487 M230.002 89.744 L 230.008 92.615 230.205 90.715 C 230.333 89.478,230.331 88.475,230.200 87.843 C 230.030 87.031,229.998 87.344,230.002 89.744 M296.946 88.308 C 297.009 88.872,297.076 90.509,297.095 91.947 C 297.113 93.384,297.209 94.561,297.307 94.562 C 297.560 94.565,297.336 88.415,297.060 87.795 C 296.868 87.362,296.850 87.441,296.946 88.308 M363.314 87.897 C 363.314 88.010,363.438 88.426,363.590 88.821 C 363.742 89.215,363.869 89.400,363.873 89.231 C 363.876 89.062,363.752 88.646,363.597 88.308 C 363.442 87.969,363.315 87.785,363.314 87.897 M313.740 89.660 C 313.581 90.605,313.762 92.461,314.060 92.925 C 314.191 93.130,314.205 92.995,314.102 92.513 C 314.018 92.118,313.957 91.126,313.967 90.308 C 313.988 88.607,313.941 88.474,313.740 89.660 M359.510 89.744 C 359.679 90.498,359.796 90.662,359.792 90.137 C 359.790 89.921,359.695 89.605,359.580 89.436 C 359.428 89.211,359.409 89.294,359.510 89.744 M238.434 91.795 C 238.434 92.923,238.469 93.358,238.510 92.762 C 238.552 92.166,238.552 91.243,238.509 90.711 C 238.467 90.179,238.433 90.667,238.434 91.795 M359.614 91.317 C 359.600 91.505,359.537 91.828,359.472 92.035 C 359.360 92.391,359.366 92.391,359.588 92.045 C 359.717 91.844,359.781 91.521,359.730 91.327 C 359.647 91.009,359.635 91.008,359.614 91.317 M363.646 92.410 C 363.575 92.749,363.462 93.210,363.396 93.436 C 363.330 93.662,363.421 93.535,363.597 93.155 C 363.774 92.776,363.886 92.314,363.847 92.130 C 363.807 91.936,363.722 92.054,363.646 92.410 M358.568 93.787 C 357.494 95.639,354.936 98.640,351.709 101.834 C 349.138 104.379,349.055 104.480,350.957 102.757 C 354.529 99.521,359.856 93.097,359.358 92.628 C 359.316 92.588,358.961 93.110,358.568 93.787 M229.567 95.671 C 229.413 96.901,229.113 98.516,228.900 99.261 C 228.465 100.782,228.423 101.100,228.696 100.810 C 229.098 100.384,230.009 95.370,229.907 94.155 C 229.872 93.739,229.728 94.378,229.567 95.671 M314.262 93.611 C 314.252 93.932,315.686 96.504,316.222 97.128 L 316.752 97.744 316.273 97.026 C 316.010 96.631,315.451 95.662,315.031 94.872 C 314.611 94.082,314.265 93.515,314.262 93.611 M319.156 94.103 C 319.755 95.197,323.692 99.952,323.865 99.789 C 323.903 99.753,323.174 98.862,322.245 97.810 C 321.315 96.758,320.232 95.413,319.838 94.821 C 319.145 93.779,318.754 93.367,319.156 94.103 M362.809 94.669 C 362.622 95.063,362.510 95.385,362.562 95.385 C 362.703 95.385,363.325 94.129,363.231 94.035 C 363.187 93.990,362.997 94.276,362.809 94.669 M238.078 94.923 C 237.824 96.664,237.746 98.379,237.949 97.744 C 238.183 97.012,238.465 94.154,238.303 94.154 C 238.241 94.154,238.139 94.500,238.078 94.923 M286.667 94.702 C 284.171 94.910,279.349 96.027,278.413 96.614 C 277.984 96.882,278.342 96.805,280.308 96.204 C 282.725 95.465,284.446 95.160,286.872 95.041 C 288.226 94.974,289.472 94.843,289.641 94.748 C 289.944 94.579,288.418 94.555,286.667 94.702 M361.866 96.320 C 361.629 96.722,361.528 96.993,361.642 96.922 C 361.864 96.785,362.530 95.590,362.385 95.590 C 362.336 95.590,362.103 95.918,361.866 96.320 M276.825 97.341 C 274.844 98.395,272.205 100.566,272.205 101.143 C 272.205 101.243,272.690 100.835,273.282 100.237 C 274.451 99.056,276.651 97.512,277.450 97.312 C 277.724 97.243,277.949 97.104,277.949 97.003 C 277.949 96.749,277.925 96.756,276.825 97.341 M359.227 99.846 C 358.315 100.946,356.316 103.085,354.784 104.599 C 353.253 106.113,352.002 107.405,352.005 107.471 C 352.014 107.712,359.109 100.368,360.065 99.128 C 361.550 97.200,361.100 97.586,359.227 99.846 M237.458 98.899 C 237.402 99.166,237.249 99.874,237.117 100.473 C 236.985 101.071,236.925 101.609,236.985 101.669 C 237.044 101.728,237.250 101.072,237.441 100.211 C 237.633 99.349,237.738 98.592,237.674 98.529 C 237.610 98.465,237.513 98.632,237.458 98.899 M317.729 99.179 C 318.345 100.064,322.938 104.985,323.167 105.007 C 323.273 105.017,322.441 104.079,321.317 102.923 C 320.194 101.767,318.830 100.313,318.287 99.692 C 317.744 99.072,317.493 98.841,317.729 99.179 M286.111 100.292 C 285.580 100.366,285.072 100.503,284.983 100.596 C 284.894 100.689,285.236 100.696,285.744 100.611 C 286.251 100.526,287.590 100.391,288.718 100.310 L 290.769 100.163 288.923 100.160 C 287.908 100.159,286.642 100.218,286.111 100.292 M297.187 104.664 L 297.247 109.226 295.124 111.280 C 291.162 115.115,286.977 116.504,283.047 115.289 C 275.923 113.088,276.205 103.428,283.458 101.232 C 284.728 100.847,284.767 100.579,283.503 100.919 C 282.596 101.163,280.373 102.392,279.822 102.954 C 279.175 103.614,278.359 104.796,278.359 105.073 C 278.359 105.228,278.244 105.469,278.103 105.610 C 277.598 106.114,277.763 110.715,278.322 111.764 C 281.489 117.699,289.236 117.360,295.846 110.998 L 297.436 109.467 297.436 104.785 C 297.436 102.210,297.367 100.102,297.282 100.102 C 297.197 100.102,297.155 102.155,297.187 104.664 M228.113 101.903 C 227.963 102.323,227.791 102.797,227.731 102.957 C 227.663 103.138,227.711 103.192,227.857 103.102 C 228.093 102.956,228.606 101.358,228.463 101.215 C 228.421 101.173,228.263 101.482,228.113 101.903 M271.482 102.205 L 271.159 102.872 271.580 102.388 C 271.811 102.121,272.000 101.821,272.000 101.721 C 272.000 101.362,271.800 101.549,271.482 102.205 M236.631 102.176 C 236.374 102.940,236.123 104.089,236.197 104.163 C 236.242 104.208,236.424 103.759,236.601 103.165 C 236.876 102.237,236.903 101.369,236.631 102.176 M326.359 102.217 C 326.359 102.273,326.936 102.868,327.641 103.540 C 329.908 105.702,334.564 109.688,334.564 109.467 C 334.564 109.407,333.526 108.486,332.256 107.420 C 330.987 106.354,329.141 104.725,328.154 103.800 C 327.167 102.874,326.359 102.162,326.359 102.217 M270.769 103.487 C 270.650 103.801,270.599 104.103,270.655 104.159 C 270.712 104.216,270.855 104.006,270.974 103.692 C 271.093 103.379,271.145 103.076,271.088 103.020 C 271.032 102.964,270.888 103.174,270.769 103.487 M226.921 104.615 C 226.572 105.292,226.357 105.846,226.443 105.846 C 226.640 105.846,227.782 103.611,227.652 103.481 C 227.599 103.428,227.270 103.939,226.921 104.615 M235.584 105.051 C 235.507 105.403,235.257 106.007,235.030 106.393 C 234.802 106.779,234.673 107.151,234.742 107.221 C 234.848 107.327,236.103 104.835,236.103 104.517 C 236.103 104.115,235.698 104.531,235.584 105.051 M270.127 105.476 C 269.777 106.842,269.784 110.715,270.139 112.165 C 270.489 113.597,270.668 113.386,270.360 111.904 C 270.061 110.462,270.050 107.598,270.336 105.858 C 270.606 104.221,270.498 104.025,270.127 105.476 M348.479 104.773 C 348.441 104.860,347.233 105.936,345.795 107.164 C 344.356 108.392,343.179 109.437,343.179 109.487 C 343.179 109.677,348.565 105.075,348.684 104.783 C 348.771 104.570,348.571 104.561,348.479 104.773 M323.897 105.733 C 324.499 106.404,329.231 110.636,329.231 110.503 C 329.231 110.453,327.915 109.231,326.308 107.786 C 324.700 106.342,323.615 105.418,323.897 105.733 M225.054 107.387 C 223.632 109.162,221.715 110.712,219.645 111.761 C 218.712 112.234,218.226 112.561,218.564 112.489 C 219.203 112.351,221.114 111.286,222.358 110.372 C 223.687 109.396,226.441 106.372,226.210 106.142 C 226.162 106.094,225.642 106.654,225.054 107.387 M234.140 108.135 C 233.947 108.512,233.732 108.867,233.663 108.923 C 233.594 108.979,233.263 109.441,232.927 109.949 C 231.479 112.139,227.848 115.449,225.716 116.523 C 225.167 116.799,224.672 117.078,224.615 117.142 C 224.559 117.207,224.097 117.448,223.590 117.679 C 221.673 118.551,220.546 118.964,219.722 119.096 C 219.255 119.171,218.872 119.314,218.872 119.415 C 218.872 120.083,224.400 117.760,227.179 115.923 C 229.795 114.195,235.180 108.137,234.608 107.566 C 234.544 107.502,234.334 107.758,234.140 108.135 M349.949 109.061 C 348.990 109.910,347.137 111.466,345.832 112.519 C 342.773 114.985,342.943 114.735,343.027 116.647 L 343.097 118.256 343.138 116.574 L 343.179 114.893 346.205 112.444 C 348.983 110.195,352.041 107.497,351.795 107.512 C 351.738 107.515,350.908 108.212,349.949 109.061 M329.436 110.643 C 329.436 110.705,330.428 111.554,331.641 112.529 L 333.846 114.301 333.949 116.206 C 334.049 118.073,334.401 118.974,335.029 118.974 C 335.137 118.974,335.008 118.799,334.742 118.584 C 334.313 118.236,334.248 117.977,334.156 116.228 L 334.051 114.263 332.513 113.008 C 329.986 110.947,329.436 110.524,329.436 110.643 M216.513 112.962 C 215.949 113.137,214.518 113.452,213.333 113.662 C 211.221 114.037,211.209 114.042,212.718 113.931 C 214.320 113.812,217.395 113.118,217.733 112.799 C 218.001 112.547,217.739 112.582,216.513 112.962 M270.679 113.897 C 271.574 116.790,275.513 120.327,278.503 120.922 C 279.111 121.043,278.973 120.966,276.923 120.042 C 274.329 118.872,272.567 117.171,271.303 114.615 C 270.703 113.401,270.428 113.085,270.679 113.897 M199.179 113.780 C 199.179 114.342,199.840 114.415,204.561 114.374 C 207.239 114.350,209.493 114.268,209.570 114.191 C 209.646 114.114,207.451 114.051,204.691 114.051 C 201.061 114.051,199.604 113.983,199.426 113.805 C 199.265 113.645,199.179 113.636,199.179 113.780 M296.718 116.646 C 294.797 118.432,291.234 120.615,290.240 120.615 C 290.037 120.615,289.813 120.708,289.744 120.821 C 288.937 122.125,295.219 118.530,297.321 116.484 C 298.212 115.617,298.256 115.696,298.256 118.142 C 298.256 120.503,298.479 121.027,299.482 121.025 C 299.654 121.024,299.495 120.841,299.128 120.618 L 298.462 120.211 298.462 117.849 C 298.462 115.056,298.443 115.043,296.718 116.646 M342.359 118.684 C 342.077 118.840,341.556 118.970,341.201 118.971 C 340.455 118.975,340.384 119.105,340.234 120.737 L 340.123 121.949 340.369 120.621 L 340.615 119.293 341.527 119.138 C 342.029 119.052,342.579 118.842,342.751 118.671 C 343.121 118.300,343.045 118.303,342.359 118.684 M335.731 119.107 C 335.978 119.161,336.226 119.361,336.283 119.551 C 336.358 119.800,336.375 119.782,336.345 119.487 C 336.317 119.209,336.139 119.066,335.793 119.043 C 335.365 119.015,335.355 119.026,335.731 119.107 M216.341 119.902 C 214.813 120.159,214.042 120.423,214.889 120.399 C 215.566 120.381,218.258 119.861,218.397 119.722 C 218.569 119.551,218.284 119.575,216.341 119.902 M253.289 121.177 C 253.885 121.219,254.808 121.218,255.340 121.176 C 255.872 121.134,255.385 121.100,254.256 121.101 C 253.128 121.101,252.693 121.136,253.289 121.177 M280.000 121.368 C 281.366 121.855,287.562 121.854,288.718 121.366 C 289.191 121.166,289.319 121.061,289.019 121.118 C 287.663 121.375,284.883 121.586,283.592 121.530 C 282.296 121.474,281.644 121.406,279.692 121.127 C 279.253 121.064,279.341 121.133,280.000 121.368 M300.872 121.176 C 301.351 121.219,302.136 121.219,302.615 121.176 C 303.095 121.133,302.703 121.097,301.744 121.097 C 300.785 121.097,300.392 121.133,300.872 121.176 M339.945 122.872 C 339.945 123.267,339.987 123.428,340.039 123.231 C 340.090 123.033,340.090 122.710,340.039 122.513 C 339.987 122.315,339.945 122.477,339.945 122.872 M335.487 124.718 C 335.406 125.746,335.383 126.631,335.437 126.685 C 335.492 126.739,335.602 125.942,335.682 124.913 C 335.763 123.884,335.785 122.999,335.732 122.945 C 335.679 122.892,335.569 123.690,335.487 124.718 M339.744 124.821 C 339.746 125.272,339.788 125.432,339.837 125.177 C 339.886 124.922,339.885 124.553,339.833 124.357 C 339.782 124.160,339.742 124.369,339.744 124.821 M339.574 130.256 C 339.574 132.682,339.604 133.674,339.640 132.462 C 339.677 131.249,339.677 129.264,339.640 128.051 C 339.604 126.838,339.574 127.831,339.574 130.256 M389.897 127.740 C 390.377 127.783,391.162 127.783,391.641 127.740 C 392.121 127.697,391.728 127.661,390.769 127.661 C 389.810 127.661,389.418 127.697,389.897 127.740 M386.359 128.098 C 384.996 128.448,385.604 128.456,387.282 128.110 C 388.015 127.959,388.338 127.835,388.000 127.835 C 387.662 127.834,386.923 127.953,386.359 128.098 M393.736 128.111 C 394.297 128.265,394.790 128.355,394.833 128.313 C 394.935 128.210,393.420 127.792,393.026 127.814 C 392.856 127.824,393.176 127.957,393.736 128.111 M335.259 130.564 C 335.260 132.031,335.292 132.604,335.332 131.838 C 335.371 131.071,335.371 129.871,335.331 129.171 C 335.291 128.471,335.259 129.097,335.259 130.564 M384.029 128.646 C 383.650 128.755,383.379 128.884,383.428 128.932 C 383.477 128.981,383.925 128.893,384.425 128.736 C 385.445 128.416,385.100 128.337,384.029 128.646 M395.897 128.939 C 396.405 129.227,397.235 129.849,397.743 130.321 L 398.665 131.179 397.948 130.384 C 397.221 129.577,395.586 128.408,395.191 128.413 C 395.072 128.414,395.390 128.651,395.897 128.939 M381.436 129.531 C 380.644 129.894,381.012 129.899,381.949 129.538 C 382.344 129.386,382.528 129.259,382.359 129.256 C 382.190 129.252,381.774 129.376,381.436 129.531 M379.385 130.366 C 378.872 130.613,378.855 130.642,379.282 130.537 C 379.863 130.395,380.517 130.062,380.205 130.067 C 380.092 130.068,379.723 130.203,379.385 130.366 M377.436 131.179 C 377.154 131.341,377.015 131.473,377.128 131.473 C 377.241 131.473,377.564 131.341,377.846 131.179 C 378.128 131.018,378.267 130.886,378.154 130.886 C 378.041 130.886,377.718 131.018,377.436 131.179 M390.103 131.837 C 390.356 131.886,390.772 131.886,391.026 131.837 C 391.279 131.788,391.072 131.748,390.564 131.748 C 390.056 131.748,389.849 131.788,390.103 131.837 M388.464 132.043 C 388.719 132.092,389.088 132.090,389.284 132.038 C 389.481 131.987,389.272 131.947,388.821 131.949 C 388.369 131.951,388.209 131.993,388.464 132.043 M391.812 131.973 C 391.859 132.014,392.267 132.104,392.718 132.173 C 393.290 132.260,393.414 132.242,393.128 132.112 C 392.734 131.934,391.636 131.817,391.812 131.973 M399.280 132.615 C 399.352 132.840,399.506 133.470,399.623 134.014 C 399.739 134.558,399.875 134.962,399.924 134.913 C 400.054 134.784,399.612 132.916,399.361 132.531 C 399.186 132.263,399.172 132.277,399.280 132.615 M385.026 132.727 C 384.801 132.879,384.884 132.898,385.333 132.798 C 386.088 132.629,386.251 132.512,385.726 132.516 C 385.510 132.518,385.195 132.613,385.026 132.727 M372.667 133.552 C 372.018 133.886,371.487 134.206,371.487 134.263 C 371.487 134.319,372.041 134.085,372.718 133.744 C 373.395 133.402,373.949 133.077,373.949 133.023 C 373.949 132.886,373.987 132.870,372.667 133.552 M382.872 133.428 C 382.080 133.791,382.448 133.797,383.385 133.436 C 383.779 133.284,383.964 133.157,383.795 133.153 C 383.626 133.150,383.210 133.274,382.872 133.428 M335.400 134.274 C 335.408 134.715,335.494 135.492,335.590 136.000 C 335.722 136.694,335.738 136.516,335.653 135.282 C 335.534 133.550,335.374 132.914,335.400 134.274 M381.026 134.143 C 380.574 134.356,380.297 134.532,380.410 134.532 C 380.690 134.534,382.309 133.777,382.051 133.764 C 381.938 133.759,381.477 133.929,381.026 134.143 M370.615 134.681 C 369.849 135.097,369.895 135.271,370.667 134.872 C 371.005 134.697,371.282 134.510,371.282 134.456 C 371.282 134.324,371.260 134.332,370.615 134.681 M395.590 136.013 C 395.590 136.901,395.652 137.468,395.729 137.275 C 395.919 136.796,395.927 134.928,395.740 134.636 C 395.658 134.506,395.590 135.126,395.590 136.013 M378.051 135.487 C 377.318 135.871,376.810 136.185,376.923 136.185 C 377.036 136.185,377.728 135.871,378.462 135.487 C 379.195 135.103,379.703 134.789,379.590 134.789 C 379.477 134.789,378.785 135.103,378.051 135.487 M368.043 136.216 C 367.117 136.786,366.359 137.304,366.359 137.367 C 366.359 137.431,366.613 137.317,366.923 137.113 C 367.233 136.909,368.018 136.426,368.667 136.040 C 369.691 135.429,370.016 135.179,369.786 135.179 C 369.753 135.179,368.969 135.646,368.043 136.216 M375.544 136.698 C 374.470 137.336,374.300 137.571,375.282 137.059 C 376.310 136.523,376.779 136.207,376.513 136.228 C 376.400 136.237,375.964 136.448,375.544 136.698 M399.606 137.862 C 399.479 138.450,399.415 138.971,399.463 139.018 C 399.511 139.066,399.653 138.624,399.779 138.036 C 399.905 137.447,399.969 136.927,399.922 136.879 C 399.874 136.831,399.732 137.274,399.606 137.862 M340.126 137.641 C 340.117 137.923,340.198 138.292,340.308 138.462 C 340.561 138.853,340.561 138.432,340.308 137.641 L 340.143 137.128 340.126 137.641 M371.322 139.083 C 370.172 139.763,369.231 140.374,369.231 140.440 C 369.231 140.506,369.438 140.425,369.692 140.259 C 369.946 140.094,370.915 139.517,371.846 138.977 C 373.325 138.120,373.719 137.846,373.476 137.846 C 373.442 137.846,372.473 138.403,371.322 139.083 M362.481 139.598 C 360.029 141.068,359.131 141.673,360.205 141.130 C 361.117 140.668,365.128 138.233,365.128 138.141 C 365.128 138.006,365.201 137.966,362.481 139.598 M336.208 139.197 C 336.210 139.413,336.305 139.728,336.420 139.897 C 336.572 140.122,336.591 140.039,336.490 139.590 C 336.321 138.836,336.204 138.672,336.208 139.197 M394.162 140.555 C 393.952 140.909,393.462 141.552,393.072 141.984 C 392.682 142.416,392.447 142.769,392.549 142.769 C 392.652 142.769,393.096 142.285,393.536 141.692 C 393.976 141.100,394.424 140.498,394.531 140.354 C 394.638 140.210,394.684 140.052,394.634 140.001 C 394.584 139.951,394.371 140.200,394.162 140.555 M398.775 140.600 C 398.470 141.402,398.530 141.528,398.896 140.854 C 399.070 140.533,399.161 140.221,399.099 140.159 C 399.037 140.096,398.891 140.295,398.775 140.600 M368.099 141.054 C 367.052 141.748,366.683 142.115,367.501 141.648 C 368.220 141.238,369.180 140.524,369.022 140.517 C 368.964 140.515,368.548 140.757,368.099 141.054 M381.772 140.748 C 380.672 141.065,381.120 141.120,382.359 140.820 C 382.979 140.670,383.256 140.548,382.974 140.549 C 382.692 140.549,382.151 140.639,381.772 140.748 M385.949 140.824 C 386.626 140.972,387.211 141.061,387.250 141.023 C 387.372 140.902,385.767 140.514,385.231 140.535 C 384.949 140.546,385.272 140.676,385.949 140.824 M336.924 141.333 C 337.111 141.954,338.024 143.795,338.144 143.795 C 338.240 143.795,337.043 141.086,336.875 140.923 C 336.817 140.867,336.839 141.051,336.924 141.333 M380.193 141.429 C 379.974 141.595,379.887 141.731,380.000 141.731 C 380.113 141.731,380.384 141.595,380.603 141.429 C 380.822 141.264,380.909 141.128,380.796 141.128 C 380.684 141.128,380.412 141.264,380.193 141.429 M341.755 141.710 C 342.058 142.349,343.344 143.760,343.880 144.042 C 344.115 144.166,343.841 143.815,343.271 143.262 C 342.700 142.709,342.074 142.026,341.880 141.744 C 341.554 141.271,341.545 141.269,341.755 141.710 M389.832 142.787 C 390.501 143.398,391.130 143.872,391.231 143.841 C 391.626 143.720,392.417 143.118,392.315 143.016 C 392.256 142.957,392.038 143.062,391.831 143.249 C 391.293 143.736,391.051 143.680,390.250 142.879 C 389.860 142.489,389.332 142.058,389.078 141.923 C 388.823 141.787,389.163 142.176,389.832 142.787 M365.685 142.534 C 365.146 142.851,364.592 143.236,364.455 143.388 C 364.317 143.540,364.474 143.498,364.803 143.293 C 365.132 143.088,365.708 142.739,366.085 142.517 C 366.461 142.295,366.769 142.076,366.769 142.031 C 366.769 141.901,366.723 141.923,365.685 142.534 M378.014 143.128 C 376.976 144.191,375.840 145.959,376.056 146.176 C 376.103 146.222,376.314 145.867,376.526 145.387 C 376.739 144.906,377.460 143.936,378.130 143.231 C 378.799 142.526,379.306 141.949,379.257 141.949 C 379.207 141.949,378.648 142.479,378.014 143.128 M355.897 143.077 C 355.615 143.238,355.477 143.370,355.590 143.370 C 355.703 143.370,356.026 143.238,356.308 143.077 C 356.590 142.916,356.728 142.784,356.615 142.784 C 356.503 142.784,356.179 142.916,355.897 143.077 M397.006 143.744 C 396.052 145.007,394.441 146.646,393.707 147.099 C 392.815 147.651,392.677 147.989,392.840 149.231 L 392.974 150.256 392.963 149.041 C 392.954 147.972,393.013 147.787,393.451 147.506 C 394.297 146.964,396.527 144.764,397.161 143.846 C 397.905 142.769,397.797 142.697,397.006 143.744 M354.359 143.700 C 353.846 143.947,353.829 143.975,354.256 143.871 C 354.838 143.729,355.491 143.396,355.179 143.400 C 355.067 143.402,354.697 143.537,354.359 143.700 M363.436 143.912 C 362.669 144.328,362.716 144.502,363.487 144.103 C 363.826 143.928,364.103 143.741,364.103 143.687 C 364.103 143.555,364.081 143.562,363.436 143.912 M338.423 144.308 C 338.542 144.533,339.065 145.179,339.586 145.744 L 340.534 146.769 339.576 145.538 C 338.440 144.077,338.123 143.739,338.423 144.308 M344.518 144.390 C 344.628 144.498,344.995 144.652,345.333 144.732 C 346.127 144.921,345.949 144.746,345.030 144.435 C 344.638 144.302,344.407 144.282,344.518 144.390 M351.692 144.519 C 351.241 144.667,351.056 144.789,351.282 144.789 C 351.508 144.789,352.015 144.665,352.410 144.513 C 353.331 144.158,352.772 144.163,351.692 144.519 M361.179 145.142 C 360.644 145.421,360.205 145.695,360.205 145.751 C 360.205 145.807,360.667 145.619,361.231 145.333 C 361.795 145.047,362.256 144.769,362.256 144.714 C 362.256 144.579,362.275 144.571,361.179 145.142 M382.825 144.782 C 382.686 144.870,383.166 144.904,383.892 144.858 C 385.018 144.786,385.347 144.850,386.148 145.298 C 386.664 145.587,387.032 145.734,386.965 145.626 C 386.502 144.876,383.606 144.285,382.825 144.782 M347.746 145.173 C 348.058 145.220,348.520 145.219,348.772 145.170 C 349.024 145.121,348.769 145.083,348.205 145.084 C 347.641 145.086,347.435 145.126,347.746 145.173 M381.173 145.795 C 380.682 146.274,380.674 146.298,381.118 145.952 C 381.994 145.270,382.036 145.231,381.890 145.231 C 381.813 145.231,381.490 145.485,381.173 145.795 M358.974 146.256 C 358.579 146.473,358.349 146.649,358.462 146.649 C 358.574 146.649,358.990 146.473,359.385 146.256 C 359.779 146.040,360.010 145.863,359.897 145.863 C 359.785 145.863,359.369 146.040,358.974 146.256 M340.899 146.922 C 341.222 147.339,343.050 148.403,343.795 148.608 C 344.077 148.685,343.671 148.421,342.893 148.020 C 342.116 147.620,341.286 147.128,341.051 146.928 C 340.656 146.593,340.644 146.592,340.899 146.922 M379.978 147.405 C 379.809 147.811,379.698 148.266,379.732 148.418 C 379.767 148.569,379.940 148.236,380.118 147.679 C 380.496 146.495,380.421 146.346,379.978 147.405 M388.007 146.837 C 388.084 146.986,388.221 147.356,388.312 147.657 C 388.445 148.097,388.481 148.122,388.495 147.783 C 388.505 147.551,388.368 147.181,388.190 146.962 C 388.012 146.743,387.930 146.687,388.007 146.837 M355.487 147.692 C 355.214 147.869,355.214 147.891,355.487 147.891 C 355.656 147.891,355.933 147.802,356.103 147.692 C 356.376 147.516,356.376 147.493,356.103 147.493 C 355.933 147.493,355.656 147.583,355.487 147.692 M353.333 148.418 C 352.521 148.699,352.520 148.701,353.231 148.584 C 353.626 148.519,354.087 148.387,354.256 148.290 C 354.708 148.033,354.272 148.093,353.333 148.418 M375.440 149.128 C 375.440 149.636,375.480 149.844,375.529 149.590 C 375.578 149.336,375.578 148.921,375.529 148.667 C 375.480 148.413,375.440 148.621,375.440 149.128 M345.641 149.144 C 345.923 149.226,347.077 149.291,348.205 149.289 C 350.770 149.285,350.360 149.178,347.385 149.075 C 346.144 149.031,345.359 149.063,345.641 149.144 M387.398 152.161 C 386.675 153.027,386.660 153.064,387.262 152.513 C 387.831 151.991,388.455 151.164,388.264 151.186 C 388.231 151.190,387.842 151.628,387.398 152.161 M375.810 151.590 C 375.809 151.885,376.388 153.060,376.403 152.793 C 376.407 152.721,376.275 152.352,376.111 151.972 C 375.946 151.593,375.811 151.421,375.810 151.590 M392.257 152.029 C 392.120 152.393,392.049 152.733,392.100 152.784 C 392.223 152.907,392.647 151.787,392.568 151.550 C 392.534 151.449,392.394 151.665,392.257 152.029 M380.924 152.275 C 381.205 152.596,381.621 152.953,381.846 153.070 C 382.278 153.292,382.265 153.279,381.129 152.306 L 380.412 151.692 380.924 152.275 M382.564 153.427 C 382.733 153.541,383.049 153.636,383.265 153.638 C 383.790 153.642,383.626 153.525,382.872 153.356 C 382.422 153.255,382.339 153.274,382.564 153.427 M385.231 153.436 C 384.808 153.571,384.790 153.603,385.128 153.617 C 385.354 153.627,385.677 153.545,385.846 153.436 C 386.206 153.204,385.956 153.204,385.231 153.436 M376.840 153.883 C 377.201 154.556,378.929 156.221,379.661 156.599 C 380.613 157.092,380.448 156.878,379.304 156.136 C 378.751 155.779,377.948 155.025,377.518 154.461 C 376.676 153.357,376.460 153.173,376.840 153.883 M391.081 154.250 C 390.512 155.071,389.647 155.825,388.316 156.660 C 387.916 156.911,387.696 157.118,387.826 157.122 C 388.447 157.139,390.955 154.900,391.668 153.692 C 392.014 153.106,391.604 153.496,391.081 154.250 M381.436 157.435 C 381.774 157.595,382.236 157.723,382.462 157.721 L 382.872 157.718 382.462 157.556 C 382.236 157.467,381.774 157.338,381.436 157.270 L 380.821 157.145 381.436 157.435 M386.462 157.378 C 386.067 157.496,385.849 157.630,385.978 157.677 C 386.107 157.724,386.522 157.628,386.901 157.462 C 387.702 157.113,387.492 157.072,386.462 157.378 M383.641 157.891 C 383.951 157.938,384.459 157.938,384.769 157.891 C 385.079 157.844,384.826 157.805,384.205 157.805 C 383.585 157.805,383.331 157.844,383.641 157.891 " stroke="none" fill="#839190" fill-rule="evenodd"></path></g></svg>