<svg version="1.0" xmlns="http://www.w3.org/2000/svg"
 width="1418.000000pt" height="727.000000pt" viewBox="0 0 1418.000000 727.000000"
 preserveAspectRatio="xMidYMid meet">
<metadata>
Created by potrace 1.16, written by Peter Selinger 2001-2019
</metadata>
<g transform="translate(0.000000,727.000000) scale(0.100000,-0.100000)"
fill="#000000" stroke="none">
<path d="M8908 5204 c-42 -22 -58 -63 -58 -149 0 -126 33 -159 159 -159 137
-1 172 35 172 171 0 83 -14 116 -62 140 -34 18 -177 16 -211 -3z"/>
<path d="M5381 5171 c-18 -5 -37 -15 -42 -23 -5 -7 -8 -485 -6 -1061 l2 -1049
30 -24 30 -24 516 0 c468 0 518 2 530 17 10 11 14 44 14 103 0 59 -4 92 -14
103 -12 15 -54 17 -417 17 l-404 0 0 955 0 955 -25 16 c-28 19 -162 28 -214
15z"/>
<path d="M2431 5153 c-64 -32 -61 20 -61 -1111 0 -946 1 -1031 17 -1043 11
-10 48 -14 130 -14 102 0 116 2 129 19 12 17 14 165 14 970 0 522 2 947 5 945
2 -3 169 -432 370 -954 201 -523 372 -957 381 -965 11 -11 42 -16 117 -18 88
-3 106 -1 124 15 14 11 95 199 227 528 113 281 264 656 336 835 72 179 152
378 178 442 26 65 50 118 55 118 4 0 7 -432 7 -960 l0 -960 26 -10 c14 -6 65
-10 114 -10 49 0 100 4 114 10 l26 10 0 1042 c0 814 -3 1048 -13 1068 -23 46
-69 60 -202 60 -144 0 -189 -11 -237 -57 -46 -45 -41 -34 -388 -878 -161 -390
-303 -735 -315 -765 -13 -30 -27 -55 -31 -55 -5 0 -21 32 -36 70 -14 39 -101
259 -193 490 -91 231 -225 569 -296 750 -72 182 -142 345 -155 363 -48 63 -91
76 -259 79 -127 3 -155 1 -184 -14z"/>
<path d="M6854 5160 c-17 -5 -39 -19 -50 -31 -18 -20 -19 -52 -22 -1028 -2
-684 0 -1018 8 -1042 20 -72 17 -71 433 -66 398 4 445 9 603 62 292 98 492
315 578 625 52 186 66 493 32 680 -62 341 -234 579 -509 705 -84 38 -159 61
-271 82 -96 18 -750 29 -802 13z m761 -254 c189 -43 361 -178 444 -346 77
-158 106 -345 90 -585 -24 -367 -165 -597 -426 -695 -105 -39 -195 -51 -413
-51 -113 0 -213 0 -222 0 -17 1 -18 48 -18 852 l0 851 238 -5 c166 -3 258 -10
307 -21z"/>
<path d="M10095 4614 c-130 -20 -304 -77 -378 -124 -61 -39 -80 -77 -75 -152
3 -43 10 -65 26 -80 l21 -22 118 56 c65 31 134 62 153 68 70 24 177 39 264 35
75 -3 98 -8 153 -35 111 -55 150 -134 160 -326 l6 -111 -199 -6 c-109 -3 -217
-9 -239 -12 -167 -25 -329 -93 -408 -171 -92 -90 -127 -180 -127 -327 0 -275
198 -450 510 -450 162 0 290 48 424 159 36 30 66 51 67 47 1 -5 0 -38 0 -75
-2 -56 1 -70 19 -88 20 -20 31 -22 111 -18 66 2 92 7 99 18 6 9 10 238 10 571
0 616 -5 682 -60 794 -54 112 -160 192 -305 231 -59 15 -288 27 -350 18z m445
-1058 l0 -164 -76 -71 c-49 -46 -102 -84 -152 -108 -74 -37 -80 -38 -182 -38
-123 1 -164 16 -224 87 -45 52 -60 104 -54 190 11 144 107 226 308 261 14 2
105 5 203 6 l177 1 0 -164z"/>
<path d="M12227 4592 c-21 -23 -47 -96 -47 -133 0 -39 37 -61 108 -67 43 -3
84 -17 167 -57 149 -73 241 -145 279 -218 27 -53 28 -60 17 -98 -38 -125 -254
-359 -574 -621 -111 -91 -115 -92 -181 -88 -46 2 -104 45 -296 216 -276 246
-430 433 -430 524 0 49 35 105 100 159 114 95 298 187 350 176 35 -8 103 10
121 31 10 13 10 27 0 77 -16 82 -33 107 -72 107 -42 0 -100 -26 -106 -49 -3
-12 -29 -29 -71 -46 -207 -86 -381 -215 -431 -319 -74 -151 -35 -268 168 -499
89 -103 279 -279 428 -398 l92 -74 3 -70 c3 -73 1 -70 66 -102 2 0 -4 -59 -12
-130 -60 -487 41 -813 278 -902 197 -73 440 -4 826 235 415 258 687 368 871
351 110 -10 156 -61 147 -165 -7 -75 -51 -161 -113 -222 l-44 -43 -41 37 c-63
57 -122 79 -210 80 -64 1 -84 -4 -133 -29 -108 -54 -169 -154 -168 -275 0
-118 57 -211 166 -268 43 -23 62 -27 135 -27 73 0 92 4 136 27 52 28 113 87
137 135 20 38 37 123 31 153 -4 21 4 33 48 70 265 221 268 577 5 655 -59 18
-184 20 -259 4 -189 -38 -457 -160 -748 -340 -306 -188 -475 -260 -621 -261
-161 -1 -252 86 -297 285 -26 119 -19 444 14 610 4 19 12 27 28 27 12 0 32 7
44 16 18 13 22 25 22 74 l0 59 138 113 c174 143 443 411 503 503 75 113 93
160 94 240 0 54 -6 81 -23 117 -59 120 -223 244 -442 334 -40 16 -56 29 -60
46 -6 26 -60 57 -101 58 -14 0 -33 -8 -42 -18z m1468 -2467 c67 -41 96 -110
80 -184 -15 -71 -106 -130 -181 -118 -141 23 -181 212 -62 295 44 31 120 34
163 7z"/>
<path d="M8934 4591 c-17 -4 -36 -11 -42 -15 -9 -5 -12 -206 -12 -792 l0 -784
26 -10 c14 -6 63 -10 109 -10 46 0 95 4 109 10 l26 10 0 784 0 785 -21 11
c-27 15 -154 22 -195 11z"/>
</g>
</svg>
