<svg id="svg" version="1.1" xmlns="http://www.w3.org/2000/svg" xmlns:xlink="http://www.w3.org/1999/xlink" width="400" height="205.07757404795487" viewBox="0, 0, 400,205.07757404795487"><g id="svgg"><path id="path0" d="M151.949 59.259 C 150.187 59.634,150.359 56.377,150.359 89.314 C 150.360 121.851,150.245 119.333,151.774 120.355 L 152.471 120.821 166.800 120.821 C 183.876 120.821,182.338 121.250,182.124 116.542 C 182.000 113.804,183.213 114.051,169.917 114.051 L 158.564 114.051 158.564 87.398 C 158.564 60.071,158.560 59.924,157.734 59.482 C 157.197 59.194,153.012 59.033,151.949 59.259 M68.718 59.735 C 68.061 60.083,67.662 60.484,67.333 61.129 L 66.872 62.036 66.872 90.995 C 66.872 119.203,66.882 119.967,67.264 120.439 C 67.814 121.119,73.707 121.195,74.440 120.532 L 74.872 120.142 74.886 93.558 C 74.894 78.937,74.969 66.799,75.053 66.585 C 75.217 66.167,75.343 66.452,77.629 72.410 C 78.257 74.046,78.951 75.846,79.170 76.410 C 81.118 81.404,81.847 83.316,81.853 83.442 C 81.857 83.523,82.038 83.959,82.256 84.410 C 82.474 84.862,82.656 85.301,82.660 85.386 C 82.667 85.549,83.654 88.130,84.837 91.081 C 85.223 92.043,85.538 92.906,85.538 92.999 C 85.538 93.092,85.674 93.460,85.839 93.815 C 86.004 94.171,86.414 95.200,86.749 96.103 C 87.085 97.005,87.740 98.713,88.205 99.897 C 88.669 101.082,89.284 102.697,89.572 103.487 C 89.859 104.277,90.220 105.200,90.373 105.538 C 90.526 105.877,90.926 106.892,91.262 107.795 C 91.598 108.697,92.253 110.405,92.717 111.590 C 93.525 113.652,94.701 116.750,95.315 118.435 C 96.166 120.769,96.620 121.026,99.897 121.026 C 102.989 121.026,103.341 120.860,104.090 119.054 C 104.412 118.277,104.797 117.364,104.946 117.026 C 105.095 116.687,106.283 113.733,107.587 110.462 C 108.891 107.190,110.045 104.328,110.152 104.103 C 110.259 103.877,110.522 103.231,110.736 102.667 C 111.331 101.104,116.703 87.749,116.925 87.282 C 117.032 87.056,117.908 84.887,118.872 82.462 C 119.836 80.036,120.712 77.867,120.819 77.641 C 120.926 77.415,121.576 75.800,122.264 74.051 C 122.951 72.303,123.635 70.595,123.784 70.256 C 123.932 69.918,124.354 68.877,124.721 67.943 C 125.089 67.010,125.469 66.197,125.567 66.136 C 125.666 66.075,125.744 77.831,125.744 92.795 C 125.744 121.145,125.717 120.423,126.785 120.795 C 127.839 121.163,132.208 121.092,133.046 120.695 L 133.744 120.364 133.744 90.981 L 133.744 61.599 133.281 60.913 C 132.334 59.507,131.862 59.385,127.385 59.385 C 122.848 59.385,122.244 59.538,120.782 61.059 C 120.142 61.724,118.769 64.087,118.769 64.522 C 118.769 64.595,118.635 64.947,118.471 65.302 C 118.308 65.658,117.740 67.010,117.210 68.308 C 116.680 69.605,115.974 71.313,115.642 72.103 C 115.309 72.892,114.550 74.738,113.954 76.205 C 112.260 80.378,110.364 84.985,110.155 85.436 C 109.886 86.019,107.972 90.652,107.148 92.718 C 106.765 93.677,106.364 94.646,106.256 94.872 C 106.149 95.097,105.747 96.067,105.363 97.026 C 104.440 99.331,103.028 102.753,101.850 105.538 C 101.325 106.779,100.801 108.049,100.684 108.359 C 100.267 109.472,100.225 109.401,98.159 104.103 C 97.411 102.185,96.714 100.431,96.611 100.205 C 96.507 99.979,96.000 98.687,95.485 97.333 C 94.970 95.979,94.462 94.687,94.357 94.462 C 94.252 94.236,93.370 92.021,92.397 89.538 C 90.682 85.164,89.219 81.452,86.010 73.333 C 85.163 71.190,84.237 68.836,83.952 68.103 C 83.667 67.369,83.273 66.400,83.077 65.949 C 82.880 65.497,82.524 64.598,82.286 63.950 C 80.913 60.214,79.507 59.464,73.641 59.335 C 69.740 59.250,69.618 59.260,68.718 59.735 " stroke="none" fill="#9d2d39" fill-rule="evenodd"></path><path id="path1" d="M0.000 102.564 L 0.000 205.128 200.000 205.128 L 400.000 205.128 399.982 171.641 C 399.966 143.781,399.919 138.317,399.697 139.123 C 398.895 142.034,396.481 145.402,393.617 147.604 C 393.123 147.983,393.073 148.163,392.992 149.865 C 392.733 155.277,387.331 159.170,382.017 157.775 C 374.843 155.892,372.994 146.553,378.904 142.046 C 382.212 139.523,387.129 139.797,390.256 142.677 L 391.282 143.622 392.557 142.278 C 395.536 139.139,396.415 134.802,394.414 133.116 C 390.977 130.220,381.135 133.333,368.103 141.440 C 359.681 146.678,355.770 148.426,350.564 149.277 C 348.548 149.607,344.949 149.423,344.060 148.945 C 343.858 148.836,343.242 148.542,342.691 148.291 C 340.567 147.323,338.049 144.581,337.122 142.227 C 336.950 141.792,336.726 141.286,336.624 141.102 C 336.522 140.919,336.374 140.411,336.295 139.974 C 336.216 139.537,336.067 139.016,335.963 138.816 C 334.873 136.704,334.839 124.683,335.910 119.744 C 336.023 119.224,335.983 119.179,335.401 119.179 C 334.254 119.179,333.949 118.617,333.949 116.507 C 333.949 114.394,334.173 114.725,331.074 112.268 C 322.706 105.635,316.336 98.640,314.109 93.641 C 311.887 88.652,316.307 82.514,324.923 78.625 C 326.578 77.878,327.274 77.586,327.738 77.447 C 327.989 77.371,328.453 76.922,328.770 76.449 C 329.992 74.622,332.809 74.557,333.699 76.335 C 335.479 79.893,334.538 81.696,330.872 81.754 C 326.175 81.828,318.354 87.483,318.361 90.800 C 318.366 93.394,324.378 100.719,330.872 106.042 C 331.605 106.644,332.251 107.199,332.308 107.276 C 332.364 107.354,333.591 108.356,335.034 109.503 L 337.658 111.590 338.870 111.590 C 340.280 111.590,341.677 110.593,347.785 105.231 C 354.697 99.161,359.590 93.168,359.590 90.770 C 359.590 88.660,356.515 85.757,351.692 83.315 C 348.655 81.777,348.067 81.567,346.918 81.609 C 345.029 81.677,343.179 80.538,343.179 79.306 C 343.179 77.751,344.666 74.983,345.613 74.775 C 346.909 74.491,349.333 75.784,349.333 76.760 C 349.333 77.135,349.484 77.223,351.480 78.015 C 356.516 80.013,361.569 83.857,363.161 86.901 C 364.150 88.794,364.432 90.481,364.034 92.139 C 363.707 93.499,362.790 95.781,362.482 96.000 C 362.402 96.056,362.117 96.472,361.847 96.923 C 360.140 99.777,355.838 104.280,349.026 110.346 C 348.687 110.647,347.492 111.627,346.370 112.524 C 343.170 115.079,343.385 114.789,343.385 116.560 C 343.385 118.520,342.967 119.179,341.724 119.179 C 340.672 119.179,340.670 119.185,340.130 124.023 C 338.166 141.614,343.411 148.290,355.179 143.180 C 355.631 142.984,356.369 142.668,356.821 142.479 C 357.272 142.289,357.802 142.046,357.998 141.938 C 358.195 141.831,358.979 141.412,359.742 141.007 C 361.160 140.255,362.020 139.739,367.145 136.565 C 368.762 135.563,370.239 134.686,370.427 134.615 C 370.615 134.544,371.231 134.213,371.795 133.879 C 373.236 133.026,376.877 131.222,378.462 130.576 C 379.195 130.277,379.979 129.945,380.205 129.838 C 383.606 128.226,390.679 126.947,392.819 127.557 C 393.215 127.670,393.940 127.868,394.430 127.998 C 396.887 128.647,398.949 130.610,399.713 133.026 C 399.924 133.691,399.975 121.197,399.986 66.923 L 400.000 0.000 200.000 0.000 L 0.000 0.000 0.000 102.564 M256.817 57.912 C 258.417 58.450,258.979 59.147,259.193 60.860 C 259.380 62.355,259.183 64.636,258.803 65.370 C 257.368 68.145,250.326 67.889,249.724 65.039 C 249.663 64.750,249.527 64.301,249.422 64.042 C 249.317 63.782,249.231 63.071,249.231 62.462 C 249.231 61.852,249.317 61.141,249.422 60.881 C 249.527 60.622,249.666 60.161,249.731 59.856 C 250.151 57.885,253.775 56.891,256.817 57.912 M158.200 59.442 L 158.667 59.909 158.720 86.775 L 158.774 113.641 169.797 113.644 C 175.860 113.645,181.012 113.698,181.246 113.761 C 182.808 114.180,182.994 119.904,181.476 120.830 C 180.843 121.215,180.336 121.229,166.861 121.230 L 152.901 121.231 151.874 120.719 C 149.997 119.783,150.158 122.707,150.147 89.402 L 150.138 60.043 150.582 59.571 C 151.412 58.687,157.345 58.586,158.200 59.442 M78.271 59.416 C 80.248 60.080,82.001 61.741,82.375 63.302 C 82.454 63.629,82.586 63.990,82.668 64.103 C 82.751 64.215,82.935 64.677,83.077 65.128 C 83.219 65.579,83.404 66.041,83.489 66.154 C 83.573 66.267,83.711 66.590,83.794 66.872 C 83.878 67.154,84.109 67.754,84.307 68.205 C 84.803 69.334,86.154 72.792,86.154 72.933 C 86.154 72.996,86.327 73.435,86.539 73.909 C 87.027 75.000,88.410 78.524,88.410 78.677 C 88.410 78.740,88.584 79.179,88.796 79.652 C 89.008 80.126,89.706 81.851,90.347 83.487 C 90.988 85.123,91.645 86.752,91.807 87.108 C 91.970 87.463,92.103 87.833,92.104 87.928 C 92.105 88.024,92.233 88.347,92.389 88.647 C 92.545 88.946,92.782 89.546,92.916 89.980 C 93.050 90.414,93.284 91.046,93.436 91.385 C 93.588 91.723,93.909 92.508,94.149 93.128 C 94.390 93.749,94.670 94.441,94.771 94.667 C 94.873 94.892,95.383 96.185,95.903 97.538 C 96.424 98.892,96.982 100.291,97.143 100.646 C 97.304 101.002,97.436 101.353,97.436 101.427 C 97.436 101.501,97.607 101.948,97.816 102.422 C 98.026 102.895,98.409 103.836,98.668 104.513 C 98.926 105.190,99.249 106.021,99.384 106.359 C 99.520 106.697,99.752 107.284,99.901 107.663 L 100.170 108.351 100.542 107.868 C 100.747 107.602,100.916 107.281,100.919 107.154 C 100.923 106.939,101.238 106.166,102.179 104.063 C 102.391 103.589,102.564 103.112,102.564 103.002 C 102.564 102.892,102.697 102.541,102.859 102.222 C 103.021 101.902,103.354 101.133,103.598 100.513 C 103.843 99.892,104.166 99.108,104.316 98.769 C 104.467 98.431,104.832 97.554,105.128 96.821 C 105.424 96.087,105.799 95.196,105.962 94.841 C 106.124 94.485,106.256 94.126,106.256 94.043 C 106.256 93.959,106.432 93.512,106.646 93.048 C 106.861 92.584,107.336 91.467,107.703 90.564 C 108.069 89.662,108.580 88.415,108.837 87.795 C 109.094 87.174,109.684 85.744,110.148 84.615 C 110.612 83.487,111.077 82.379,111.182 82.154 C 111.286 81.928,111.793 80.682,112.308 79.385 C 112.822 78.087,113.329 76.841,113.433 76.615 C 113.537 76.390,113.863 75.605,114.157 74.872 C 114.452 74.138,114.825 73.248,114.987 72.892 C 115.149 72.537,115.282 72.185,115.282 72.110 C 115.282 72.036,115.520 71.450,115.811 70.808 C 116.103 70.166,116.415 69.456,116.506 69.231 C 116.865 68.343,117.782 66.132,117.953 65.744 C 118.052 65.518,118.420 64.641,118.771 63.795 C 120.463 59.720,121.645 59.084,127.549 59.080 C 132.363 59.076,132.955 59.296,133.826 61.410 C 134.403 62.809,134.318 119.952,133.738 120.574 C 132.921 121.451,127.464 121.735,126.323 120.961 C 125.304 120.269,125.323 120.746,125.334 95.905 C 125.339 83.039,125.334 71.405,125.322 70.051 L 125.301 67.590 124.856 68.538 C 124.271 69.783,124.012 70.413,123.472 71.897 C 123.226 72.574,122.806 73.616,122.538 74.211 C 122.270 74.807,122.051 75.376,122.051 75.477 C 122.051 75.577,121.919 75.920,121.757 76.240 C 121.594 76.559,121.266 77.328,121.028 77.949 C 120.789 78.569,120.508 79.262,120.404 79.487 C 120.299 79.713,119.438 81.836,118.489 84.205 C 117.540 86.574,116.666 88.744,116.547 89.026 C 116.429 89.308,115.716 91.108,114.964 93.026 C 114.212 94.944,113.514 96.601,113.414 96.708 C 113.313 96.815,113.231 97.032,113.231 97.190 C 113.231 97.347,113.097 97.767,112.933 98.123 C 112.769 98.478,112.213 99.831,111.696 101.128 C 111.179 102.426,110.670 103.672,110.564 103.897 C 110.458 104.123,109.950 105.369,109.436 106.667 C 108.921 107.964,108.413 109.210,108.307 109.436 C 108.201 109.662,107.699 110.923,107.191 112.238 C 106.683 113.554,106.132 114.939,105.966 115.315 C 105.801 115.692,105.272 116.999,104.792 118.220 C 103.586 121.284,103.508 121.333,99.882 121.333 C 96.249 121.333,96.049 121.205,94.900 118.124 C 94.463 116.956,93.990 115.723,93.848 115.385 C 93.705 115.046,93.360 114.169,93.081 113.436 C 92.802 112.703,92.274 111.318,91.907 110.359 C 91.541 109.400,91.014 108.015,90.735 107.282 C 90.456 106.549,90.096 105.658,89.934 105.302 C 89.773 104.947,89.641 104.566,89.641 104.457 C 89.641 104.281,89.163 103.073,88.609 101.846 C 88.280 101.118,86.952 97.561,86.734 96.821 C 86.617 96.426,86.451 96.010,86.364 95.897 C 86.278 95.785,86.093 95.337,85.953 94.903 C 85.813 94.469,85.571 93.869,85.415 93.570 C 85.259 93.271,85.130 92.870,85.129 92.679 C 85.129 92.488,85.044 92.280,84.942 92.217 C 84.839 92.153,84.637 91.640,84.493 91.076 C 84.348 90.513,84.155 90.051,84.064 90.051 C 83.972 90.051,83.897 89.913,83.897 89.745 C 83.897 89.576,83.528 88.537,83.077 87.437 C 82.626 86.336,82.256 85.344,82.255 85.231 C 82.254 85.118,82.135 84.795,81.990 84.513 C 81.845 84.231,81.463 83.262,81.140 82.359 C 80.818 81.456,80.485 80.626,80.401 80.513 C 80.317 80.400,80.151 79.985,80.034 79.590 C 79.732 78.576,78.906 76.418,78.277 75.000 C 77.984 74.337,77.743 73.691,77.742 73.564 C 77.742 73.437,77.622 73.103,77.477 72.821 C 77.332 72.538,76.946 71.569,76.619 70.667 C 76.292 69.764,75.904 68.795,75.757 68.513 C 75.610 68.231,75.489 67.885,75.488 67.744 C 75.488 67.603,75.395 67.487,75.282 67.487 C 75.146 67.487,75.077 76.481,75.077 94.058 C 75.077 119.176,75.057 120.636,74.718 120.761 C 74.521 120.834,74.293 120.992,74.213 121.113 C 74.119 121.254,72.955 121.333,70.997 121.333 C 67.549 121.333,66.955 121.130,66.620 119.835 C 66.241 118.372,66.532 61.699,66.922 61.008 C 67.339 60.267,67.765 59.868,68.615 59.419 C 69.533 58.934,76.830 58.932,78.271 59.416 M211.487 59.292 C 213.349 59.409,215.287 59.585,215.795 59.683 C 218.628 60.227,219.929 60.526,220.252 60.709 C 220.452 60.822,220.995 61.008,221.459 61.124 C 227.678 62.673,234.344 69.464,236.868 76.821 C 239.991 85.925,239.136 100.017,235.029 107.137 C 234.717 107.678,234.462 108.191,234.462 108.277 C 234.462 108.363,234.254 108.719,234.000 109.069 C 233.746 109.419,233.400 109.912,233.231 110.165 C 230.556 114.164,224.454 118.473,220.308 119.290 C 219.913 119.368,219.496 119.507,219.381 119.599 C 219.191 119.751,217.639 120.086,214.564 120.638 C 212.850 120.946,194.157 121.122,193.213 120.840 C 192.793 120.713,192.163 120.285,191.814 119.888 L 191.179 119.165 191.179 90.177 L 191.179 61.189 191.646 60.492 C 192.512 59.197,193.191 59.096,201.128 59.086 C 204.964 59.081,209.626 59.174,211.487 59.292 M199.590 90.051 L 199.590 113.846 205.179 113.845 C 212.135 113.843,215.170 113.515,217.538 112.512 C 217.877 112.368,218.368 112.186,218.629 112.107 C 223.009 110.784,227.875 104.523,228.835 98.974 C 228.913 98.523,229.050 98.011,229.140 97.837 C 229.897 96.363,229.889 83.171,229.130 82.154 C 229.045 82.041,228.912 81.579,228.833 81.128 C 228.128 77.093,224.934 72.232,221.418 69.842 C 217.241 67.003,213.613 66.258,203.949 66.257 L 199.590 66.256 199.590 90.051 M293.744 75.102 C 299.622 76.309,302.936 79.240,304.473 84.593 C 304.877 85.999,304.895 86.666,304.965 103.325 L 305.039 120.598 304.366 120.966 C 303.269 121.565,299.611 121.495,298.718 120.858 L 298.051 120.382 298.051 118.242 C 298.051 115.851,298.031 115.823,297.026 116.849 C 291.366 122.627,281.588 123.667,274.809 119.212 C 272.539 117.720,270.449 114.674,270.072 112.308 C 270.001 111.856,269.837 110.923,269.708 110.233 C 269.238 107.711,270.567 102.532,272.069 101.030 C 272.216 100.883,272.560 100.499,272.835 100.176 C 273.994 98.813,278.112 96.205,279.107 96.205 C 279.263 96.205,279.550 96.116,279.746 96.006 C 281.293 95.143,287.421 94.377,292.872 94.367 L 297.026 94.359 297.026 91.698 C 297.026 83.713,293.461 80.561,285.403 81.422 C 281.884 81.798,279.807 82.538,274.769 85.210 C 271.679 86.848,270.335 81.091,273.269 78.783 C 277.473 75.476,287.121 73.742,293.744 75.102 M257.107 75.479 C 258.585 76.041,258.462 73.974,258.459 98.103 C 258.456 121.647,258.505 120.376,257.575 120.939 C 256.655 121.496,252.137 121.520,251.137 120.974 C 250.199 120.461,250.235 121.444,250.300 97.816 C 250.365 73.990,250.265 75.642,251.662 75.427 C 252.790 75.254,256.610 75.290,257.107 75.479 M288.000 100.516 C 281.427 100.951,278.081 103.615,278.081 108.410 C 278.081 116.495,287.741 118.164,294.904 111.316 L 297.026 109.287 297.026 104.798 L 297.026 100.308 293.590 100.340 C 291.700 100.358,289.185 100.437,288.000 100.516 M382.769 145.234 C 378.394 146.779,379.559 153.436,384.205 153.436 C 388.982 153.436,389.957 146.613,385.386 145.172 C 384.037 144.747,384.157 144.744,382.769 145.234 " stroke="none" fill="#fbfbfb" fill-rule="evenodd"></path><path id="path2" d="M345.044 75.436 C 344.537 75.852,343.600 78.362,343.594 79.323 C 343.587 80.410,344.651 81.060,346.731 81.240 C 350.586 81.573,357.853 86.024,359.358 88.974 C 360.662 91.530,358.046 96.142,352.173 101.641 C 348.018 105.531,346.193 107.129,342.848 109.806 L 340.362 111.795 338.872 111.795 L 337.381 111.795 334.896 109.807 C 324.159 101.221,317.624 93.692,318.001 90.342 C 318.378 86.997,326.613 81.375,331.181 81.345 C 334.047 81.326,334.749 80.061,333.627 76.940 C 332.906 74.934,329.821 74.798,329.018 76.736 C 328.774 77.324,328.572 77.451,326.564 78.268 C 317.570 81.927,312.816 87.352,314.125 92.462 C 315.305 97.068,321.807 104.429,331.725 112.387 L 334.116 114.305 334.186 116.248 C 334.263 118.362,334.603 118.974,335.703 118.974 C 336.363 118.974,336.445 119.196,336.210 120.342 C 335.101 125.745,335.196 134.869,336.407 139.225 C 339.757 151.275,349.807 152.352,365.967 142.395 C 373.381 137.826,374.792 137.029,378.773 135.161 C 388.778 130.466,395.909 130.762,395.895 135.871 C 395.889 138.354,393.786 142.165,391.614 143.631 C 391.101 143.977,391.086 143.971,390.046 142.987 C 382.470 135.823,371.107 146.139,377.472 154.403 C 382.456 160.876,393.162 156.995,392.791 148.850 C 392.748 147.924,392.803 147.777,393.335 147.397 C 395.215 146.054,397.313 143.639,398.247 141.744 C 398.553 141.123,398.889 140.453,398.995 140.254 C 399.211 139.845,399.809 137.294,399.943 136.205 C 400.164 134.416,398.912 131.399,397.372 130.008 C 392.131 125.273,382.120 127.781,365.463 138.001 C 354.602 144.664,348.676 146.456,344.448 144.354 C 340.247 142.265,338.568 134.447,339.902 123.179 C 340.420 118.802,340.331 119.048,341.441 118.923 C 342.844 118.765,342.974 118.568,342.974 116.611 L 342.974 114.912 344.154 113.912 C 344.803 113.362,345.795 112.548,346.359 112.103 C 354.908 105.353,362.170 97.243,363.490 92.970 C 365.157 87.570,360.742 82.367,350.903 78.139 C 349.553 77.558,349.239 77.330,348.954 76.723 C 348.341 75.415,346.006 74.646,345.044 75.436 M385.908 144.955 C 387.752 145.909,388.453 146.859,388.642 148.661 C 389.199 153.988,382.025 155.734,379.948 150.777 C 378.485 147.286,382.615 143.252,385.908 144.955 " stroke="none" fill="#4f8429" fill-rule="evenodd"></path><path id="path3" d="M152.246 59.046 C 151.986 59.119,152.984 59.179,154.464 59.179 C 155.943 59.179,156.940 59.119,156.679 59.046 C 156.419 58.973,155.421 58.913,154.462 58.913 C 153.503 58.913,152.506 58.973,152.246 59.046 M150.681 59.604 C 150.193 60.092,150.296 60.220,150.821 59.778 C 151.074 59.564,151.321 59.365,151.368 59.336 C 151.415 59.306,151.352 59.282,151.228 59.282 C 151.105 59.282,150.859 59.427,150.681 59.604 M68.046 59.925 C 67.463 60.359,66.868 61.306,66.876 61.785 C 66.879 61.931,67.051 61.676,67.260 61.216 C 67.469 60.757,67.951 60.182,68.332 59.938 C 68.714 59.694,68.933 59.495,68.821 59.497 C 68.708 59.499,68.359 59.691,68.046 59.925 M78.872 59.979 C 79.436 60.237,80.221 60.713,80.615 61.037 C 81.167 61.490,81.238 61.516,80.923 61.148 C 80.439 60.584,78.595 59.487,78.154 59.501 C 77.985 59.506,78.308 59.722,78.872 59.979 M122.142 59.785 C 121.758 60.072,121.760 60.078,122.208 59.965 C 122.464 59.901,122.723 59.767,122.785 59.668 C 122.958 59.387,122.583 59.455,122.142 59.785 M132.258 59.896 C 132.626 60.121,133.110 60.605,133.334 60.972 C 133.559 61.340,133.742 61.526,133.743 61.385 C 133.744 60.991,132.303 59.487,131.925 59.488 C 131.726 59.488,131.862 59.654,132.258 59.896 M120.707 60.872 C 120.296 61.295,119.829 61.918,119.669 62.256 C 119.506 62.602,119.492 62.697,119.638 62.473 C 119.781 62.253,120.302 61.630,120.797 61.088 C 121.859 59.926,121.790 59.759,120.707 60.872 M133.843 91.179 C 133.843 107.200,133.868 113.724,133.897 105.676 C 133.927 97.629,133.927 84.521,133.897 76.548 C 133.868 68.575,133.843 75.159,133.843 91.179 M66.766 91.179 C 66.766 106.862,66.791 113.247,66.820 105.369 C 66.850 97.491,66.850 84.660,66.820 76.856 C 66.791 69.052,66.766 75.497,66.766 91.179 M119.008 63.496 C 118.664 64.250,118.730 64.411,119.101 63.725 C 119.275 63.405,119.378 63.105,119.331 63.058 C 119.285 63.011,119.139 63.208,119.008 63.496 M82.169 63.590 C 82.244 63.872,82.392 64.241,82.496 64.410 C 82.628 64.624,82.644 64.562,82.549 64.205 C 82.474 63.923,82.326 63.554,82.222 63.385 C 82.090 63.171,82.074 63.233,82.169 63.590 M118.385 64.949 C 118.249 65.246,118.186 65.536,118.243 65.593 C 118.300 65.651,118.445 65.442,118.564 65.128 C 118.845 64.388,118.704 64.247,118.385 64.949 M82.784 65.231 C 82.858 65.513,83.000 65.831,83.100 65.938 C 83.393 66.252,83.303 65.802,82.959 65.231 L 82.650 64.718 82.784 65.231 M125.162 66.940 C 124.899 67.485,124.729 67.977,124.785 68.032 C 124.840 68.088,125.009 67.791,125.161 67.372 C 125.394 66.726,125.451 70.667,125.538 93.426 L 125.641 120.241 126.125 120.634 C 126.392 120.849,126.761 121.022,126.946 121.018 C 127.131 121.013,126.982 120.879,126.615 120.720 C 126.249 120.560,125.927 120.403,125.900 120.369 C 125.873 120.335,125.804 108.077,125.746 93.128 L 125.641 65.949 125.162 66.940 M117.572 66.983 C 117.228 67.737,117.294 67.898,117.665 67.213 C 117.839 66.892,117.942 66.592,117.896 66.545 C 117.849 66.498,117.703 66.695,117.572 66.983 M75.400 67.077 C 75.475 67.359,75.622 67.728,75.727 67.897 C 75.859 68.111,75.875 68.049,75.780 67.692 C 75.704 67.410,75.557 67.041,75.453 66.872 C 75.320 66.658,75.304 66.721,75.400 67.077 M74.922 93.420 C 74.876 117.887,74.844 120.101,74.532 120.445 C 74.341 120.657,74.293 120.821,74.423 120.821 C 75.055 120.821,75.078 119.795,75.026 93.397 L 74.973 66.769 74.922 93.420 M83.502 66.974 C 83.502 67.087,83.634 67.410,83.795 67.692 C 83.956 67.974,84.088 68.113,84.088 68.000 C 84.088 67.887,83.956 67.564,83.795 67.282 C 83.634 67.000,83.502 66.862,83.502 66.974 M116.838 68.735 C 116.650 69.205,116.534 69.628,116.581 69.675 C 116.628 69.722,116.820 69.376,117.009 68.906 C 117.197 68.436,117.312 68.013,117.265 67.966 C 117.218 67.919,117.026 68.265,116.838 68.735 M124.341 68.829 C 123.997 69.584,124.063 69.745,124.435 69.059 C 124.608 68.739,124.712 68.438,124.665 68.391 C 124.618 68.344,124.472 68.541,124.341 68.829 M76.220 69.128 C 76.296 69.410,76.443 69.779,76.547 69.949 C 76.680 70.163,76.696 70.100,76.600 69.744 C 76.525 69.462,76.378 69.092,76.273 68.923 C 76.141 68.709,76.125 68.772,76.220 69.128 M84.425 69.333 C 84.501 69.615,84.648 69.985,84.753 70.154 C 84.885 70.368,84.901 70.305,84.805 69.949 C 84.730 69.667,84.583 69.297,84.478 69.128 C 84.346 68.914,84.330 68.977,84.425 69.333 M116.136 70.470 C 115.792 71.225,115.858 71.386,116.229 70.700 C 116.403 70.380,116.507 70.079,116.460 70.032 C 116.413 69.985,116.267 70.182,116.136 70.470 M76.836 70.769 C 76.911 71.051,77.058 71.421,77.163 71.590 C 77.295 71.804,77.311 71.741,77.216 71.385 C 77.140 71.103,76.993 70.733,76.888 70.564 C 76.756 70.350,76.740 70.413,76.836 70.769 M123.493 70.857 C 123.188 71.658,123.248 71.785,123.614 71.110 C 123.788 70.790,123.879 70.477,123.817 70.415 C 123.755 70.353,123.609 70.552,123.493 70.857 M115.305 72.433 C 115.178 72.796,115.111 73.128,115.155 73.172 C 115.199 73.216,115.338 72.955,115.464 72.593 C 115.591 72.230,115.658 71.898,115.614 71.854 C 115.571 71.810,115.431 72.071,115.305 72.433 M122.895 72.433 C 122.768 72.796,122.701 73.128,122.745 73.172 C 122.788 73.216,122.928 72.955,123.054 72.593 C 123.181 72.230,123.248 71.898,123.204 71.854 C 123.160 71.810,123.021 72.071,122.895 72.433 M77.656 72.821 C 77.731 73.103,77.879 73.472,77.983 73.641 C 78.115 73.855,78.132 73.792,78.036 73.436 C 77.961 73.154,77.814 72.785,77.709 72.615 C 77.577 72.402,77.561 72.464,77.656 72.821 M85.758 72.718 C 85.758 72.831,85.890 73.154,86.051 73.436 C 86.213 73.718,86.344 73.856,86.344 73.744 C 86.344 73.631,86.213 73.308,86.051 73.026 C 85.890 72.744,85.758 72.605,85.758 72.718 M121.983 74.701 C 121.797 75.173,121.679 75.594,121.720 75.635 C 121.761 75.676,121.949 75.325,122.137 74.855 C 122.325 74.385,122.443 73.964,122.400 73.921 C 122.356 73.877,122.169 74.228,121.983 74.701 M78.271 74.462 C 78.347 74.744,78.494 75.113,78.599 75.282 C 78.731 75.496,78.747 75.433,78.652 75.077 C 78.576 74.795,78.429 74.426,78.324 74.256 C 78.192 74.043,78.176 74.105,78.271 74.462 M113.778 76.137 C 113.592 76.609,113.474 77.029,113.515 77.071 C 113.556 77.112,113.744 76.761,113.932 76.291 C 114.120 75.821,114.238 75.400,114.194 75.357 C 114.151 75.313,113.963 75.664,113.778 76.137 M78.998 76.410 C 79.002 76.523,79.182 76.985,79.399 77.436 C 79.616 77.887,79.737 78.026,79.666 77.744 C 79.522 77.163,78.987 76.096,78.998 76.410 M113.048 77.972 C 112.922 78.334,112.855 78.667,112.898 78.710 C 112.942 78.754,113.082 78.494,113.208 78.131 C 113.334 77.769,113.402 77.436,113.358 77.392 C 113.314 77.348,113.175 77.609,113.048 77.972 M120.605 78.080 C 120.491 78.377,120.437 78.659,120.483 78.706 C 120.530 78.752,120.666 78.509,120.786 78.164 C 121.053 77.399,120.892 77.324,120.605 78.080 M79.912 78.769 C 79.988 79.051,80.135 79.421,80.240 79.590 C 80.372 79.804,80.388 79.741,80.293 79.385 C 80.217 79.103,80.070 78.733,79.965 78.564 C 79.833 78.350,79.817 78.413,79.912 78.769 M88.007 78.472 C 88.011 78.579,88.154 78.897,88.324 79.179 L 88.632 79.692 88.498 79.179 C 88.358 78.644,87.994 78.120,88.007 78.472 M119.818 80.023 C 119.691 80.385,119.624 80.718,119.668 80.762 C 119.712 80.806,119.851 80.545,119.977 80.182 C 120.104 79.820,120.171 79.487,120.127 79.443 C 120.083 79.400,119.944 79.660,119.818 80.023 M88.630 79.842 C 88.606 80.085,89.275 81.666,89.363 81.577 C 89.408 81.532,89.264 81.090,89.044 80.594 C 88.824 80.098,88.638 79.760,88.630 79.842 M80.629 80.615 C 80.629 80.785,80.769 81.154,80.939 81.436 L 81.248 81.949 81.112 81.436 C 80.915 80.691,80.628 80.204,80.629 80.615 M111.513 81.637 C 111.050 82.794,111.121 82.966,111.609 81.868 C 111.829 81.372,111.972 80.929,111.927 80.885 C 111.883 80.840,111.696 81.178,111.513 81.637 M118.997 82.074 C 118.871 82.437,118.803 82.769,118.847 82.813 C 118.891 82.857,119.030 82.596,119.157 82.234 C 119.283 81.871,119.351 81.539,119.307 81.495 C 119.263 81.451,119.124 81.712,118.997 82.074 M89.553 82.256 C 89.629 82.538,89.776 82.908,89.881 83.077 C 90.013 83.291,90.029 83.228,89.934 82.872 C 89.858 82.590,89.711 82.221,89.606 82.051 C 89.474 81.837,89.458 81.900,89.553 82.256 M81.348 82.462 C 81.424 82.744,81.571 83.113,81.676 83.282 C 81.808 83.496,81.824 83.433,81.729 83.077 C 81.653 82.795,81.506 82.426,81.401 82.256 C 81.269 82.043,81.253 82.105,81.348 82.462 M110.803 83.393 C 110.459 84.148,110.524 84.309,110.896 83.623 C 111.070 83.303,111.173 83.002,111.126 82.955 C 111.079 82.908,110.934 83.106,110.803 83.393 M118.177 84.125 C 118.050 84.488,117.983 84.820,118.027 84.864 C 118.071 84.908,118.210 84.647,118.336 84.285 C 118.463 83.922,118.530 83.590,118.486 83.546 C 118.442 83.502,118.303 83.763,118.177 84.125 M90.496 84.728 C 90.616 85.073,90.752 85.316,90.799 85.270 C 90.900 85.168,90.513 84.103,90.375 84.103 C 90.321 84.103,90.376 84.384,90.496 84.728 M82.059 84.421 C 82.063 84.528,82.205 84.846,82.375 85.128 L 82.684 85.641 82.550 85.128 C 82.410 84.593,82.045 84.068,82.059 84.421 M110.179 84.846 C 110.044 85.143,109.980 85.433,110.038 85.491 C 110.095 85.548,110.240 85.339,110.359 85.026 C 110.640 84.286,110.499 84.144,110.179 84.846 M117.572 85.650 C 117.228 86.404,117.294 86.565,117.665 85.879 C 117.839 85.559,117.942 85.259,117.896 85.212 C 117.849 85.165,117.703 85.362,117.572 85.650 M90.886 85.586 C 90.863 85.828,91.531 87.409,91.620 87.320 C 91.664 87.276,91.521 86.834,91.301 86.338 C 91.081 85.842,90.894 85.503,90.886 85.586 M109.367 86.881 C 109.023 87.635,109.089 87.796,109.460 87.110 C 109.634 86.790,109.737 86.489,109.690 86.443 C 109.643 86.396,109.498 86.593,109.367 86.881 M116.724 87.677 C 116.419 88.479,116.479 88.605,116.845 87.931 C 117.018 87.610,117.110 87.298,117.047 87.235 C 116.985 87.173,116.840 87.372,116.724 87.677 M91.707 87.637 C 91.683 87.880,92.352 89.460,92.440 89.372 C 92.485 89.327,92.341 88.885,92.121 88.389 C 91.901 87.893,91.715 87.555,91.707 87.637 M108.641 88.611 C 108.178 89.768,108.249 89.940,108.737 88.842 C 108.957 88.346,109.100 87.904,109.056 87.859 C 109.011 87.814,108.824 88.153,108.641 88.611 M83.502 88.103 C 83.502 88.215,83.634 88.538,83.795 88.821 C 83.956 89.103,84.088 89.241,84.088 89.128 C 84.088 89.015,83.956 88.692,83.795 88.410 C 83.634 88.128,83.502 87.990,83.502 88.103 M116.026 89.432 C 115.563 90.588,115.634 90.761,116.121 89.662 C 116.341 89.166,116.485 88.724,116.440 88.680 C 116.396 88.635,116.209 88.973,116.026 89.432 M92.630 90.051 C 92.706 90.333,92.853 90.703,92.958 90.872 C 93.090 91.086,93.106 91.023,93.011 90.667 C 92.935 90.385,92.788 90.015,92.683 89.846 C 92.551 89.632,92.535 89.695,92.630 90.051 M84.425 90.462 C 84.501 90.744,84.648 91.113,84.753 91.282 C 84.885 91.496,84.901 91.433,84.805 91.077 C 84.730 90.795,84.583 90.426,84.478 90.256 C 84.346 90.043,84.330 90.105,84.425 90.462 M115.214 91.521 C 115.028 91.994,114.910 92.414,114.951 92.455 C 114.992 92.496,115.179 92.145,115.368 91.675 C 115.556 91.205,115.674 90.785,115.630 90.741 C 115.587 90.698,115.399 91.049,115.214 91.521 M93.152 91.385 C 93.155 91.497,93.336 91.959,93.553 92.410 C 93.770 92.862,93.890 93.000,93.820 92.718 C 93.676 92.137,93.141 91.071,93.152 91.385 M85.042 92.103 C 85.239 92.847,85.526 93.335,85.525 92.923 C 85.524 92.754,85.385 92.385,85.215 92.103 L 84.906 91.590 85.042 92.103 M107.100 92.330 C 106.973 92.693,106.906 93.026,106.950 93.069 C 106.994 93.113,107.133 92.853,107.259 92.490 C 107.386 92.128,107.453 91.795,107.409 91.751 C 107.365 91.707,107.226 91.968,107.100 92.330 M94.061 93.795 C 94.137 94.049,94.284 94.347,94.388 94.457 C 94.491 94.567,94.471 94.359,94.344 93.995 C 94.085 93.250,93.845 93.081,94.061 93.795 M106.291 94.349 C 106.171 94.693,106.116 94.974,106.170 94.974 C 106.308 94.974,106.695 93.909,106.594 93.807 C 106.547 93.761,106.411 94.004,106.291 94.349 M85.983 94.575 C 86.103 94.919,86.239 95.162,86.286 95.116 C 86.387 95.014,86.000 93.949,85.862 93.949 C 85.809 93.949,85.863 94.230,85.983 94.575 M113.869 94.792 C 113.743 95.155,113.675 95.487,113.719 95.531 C 113.763 95.575,113.902 95.314,114.028 94.952 C 114.155 94.589,114.222 94.257,114.178 94.213 C 114.135 94.169,113.995 94.430,113.869 94.792 M94.887 95.795 C 94.962 96.077,95.110 96.446,95.214 96.615 C 95.346 96.829,95.362 96.767,95.267 96.410 C 95.192 96.128,95.044 95.759,94.940 95.590 C 94.808 95.376,94.791 95.438,94.887 95.795 M86.676 96.462 C 86.753 96.715,86.900 97.013,87.003 97.124 C 87.106 97.234,87.087 97.026,86.960 96.662 C 86.700 95.917,86.460 95.747,86.676 96.462 M113.048 96.843 C 112.922 97.206,112.855 97.538,112.898 97.582 C 112.942 97.626,113.082 97.365,113.208 97.003 C 113.334 96.640,113.402 96.308,113.358 96.264 C 113.314 96.220,113.175 96.481,113.048 96.843 M104.752 98.085 C 104.567 98.558,104.448 98.978,104.489 99.019 C 104.530 99.060,104.718 98.709,104.906 98.239 C 105.094 97.769,105.212 97.349,105.169 97.306 C 105.125 97.262,104.938 97.613,104.752 98.085 M95.707 97.846 C 95.783 98.128,95.930 98.497,96.035 98.667 C 96.167 98.881,96.183 98.818,96.088 98.462 C 96.012 98.179,95.865 97.810,95.760 97.641 C 95.628 97.427,95.612 97.490,95.707 97.846 M112.228 98.895 C 112.102 99.257,112.034 99.590,112.078 99.633 C 112.122 99.677,112.261 99.417,112.387 99.054 C 112.514 98.692,112.581 98.359,112.537 98.315 C 112.494 98.271,112.354 98.532,112.228 98.895 M96.322 99.487 C 96.396 99.769,96.538 100.088,96.638 100.195 C 96.931 100.508,96.841 100.059,96.497 99.487 L 96.188 98.974 96.322 99.487 M104.033 99.804 C 103.690 100.558,103.755 100.719,104.127 100.033 C 104.300 99.713,104.404 99.413,104.357 99.366 C 104.310 99.319,104.164 99.516,104.033 99.804 M88.118 100.103 C 88.193 100.385,88.340 100.754,88.445 100.923 C 88.577 101.137,88.593 101.074,88.498 100.718 C 88.422 100.436,88.275 100.067,88.171 99.897 C 88.038 99.684,88.022 99.746,88.118 100.103 M111.104 101.668 C 110.797 102.414,110.581 103.059,110.622 103.101 C 110.664 103.142,110.949 102.566,111.255 101.819 C 111.562 101.073,111.778 100.428,111.737 100.386 C 111.695 100.345,111.410 100.922,111.104 101.668 M103.299 101.556 C 103.111 102.026,102.996 102.449,103.043 102.496 C 103.090 102.543,103.282 102.197,103.470 101.726 C 103.658 101.256,103.774 100.833,103.727 100.786 C 103.680 100.739,103.487 101.086,103.299 101.556 M97.143 101.538 C 97.219 101.821,97.366 102.190,97.471 102.359 C 97.603 102.573,97.619 102.510,97.523 102.154 C 97.448 101.872,97.301 101.503,97.196 101.333 C 97.064 101.119,97.048 101.182,97.143 101.538 M88.938 102.154 C 89.014 102.436,89.161 102.805,89.265 102.974 C 89.398 103.188,89.414 103.126,89.318 102.769 C 89.243 102.487,89.096 102.118,88.991 101.949 C 88.859 101.735,88.843 101.797,88.938 102.154 M102.597 103.291 C 102.254 104.045,102.319 104.206,102.691 103.520 C 102.864 103.200,102.968 102.900,102.921 102.853 C 102.874 102.806,102.729 103.003,102.597 103.291 M97.964 103.590 C 98.039 103.872,98.186 104.241,98.291 104.410 C 98.423 104.624,98.439 104.562,98.344 104.205 C 98.269 103.923,98.121 103.554,98.017 103.385 C 97.885 103.171,97.868 103.233,97.964 103.590 M109.954 104.498 C 109.650 105.299,109.710 105.426,110.076 104.751 C 110.249 104.431,110.340 104.118,110.278 104.056 C 110.216 103.994,110.070 104.193,109.954 104.498 M101.872 105.021 C 101.409 106.178,101.480 106.350,101.967 105.252 C 102.188 104.756,102.331 104.314,102.286 104.269 C 102.242 104.225,102.055 104.563,101.872 105.021 M109.248 106.274 C 109.060 106.744,108.944 107.167,108.991 107.214 C 109.038 107.261,109.231 106.914,109.419 106.444 C 109.607 105.974,109.722 105.551,109.675 105.504 C 109.628 105.457,109.436 105.803,109.248 106.274 M90.264 105.754 C 90.268 105.861,90.410 106.179,90.580 106.462 L 90.889 106.974 90.755 106.462 C 90.615 105.926,90.251 105.402,90.264 105.754 M101.162 106.778 C 100.818 107.532,100.883 107.693,101.255 107.008 C 101.429 106.687,101.532 106.387,101.485 106.340 C 101.438 106.293,101.293 106.490,101.162 106.778 M99.394 107.333 C 99.471 107.587,99.618 107.885,99.721 107.995 C 99.824 108.106,99.805 107.898,99.678 107.534 C 99.418 106.789,99.178 106.619,99.394 107.333 M108.546 108.009 C 108.202 108.763,108.268 108.924,108.640 108.238 C 108.813 107.918,108.917 107.618,108.870 107.571 C 108.823 107.524,108.677 107.721,108.546 108.009 M91.189 108.154 C 91.265 108.408,91.413 108.706,91.516 108.816 C 91.619 108.926,91.600 108.718,91.473 108.354 C 91.213 107.609,90.973 107.440,91.189 108.154 M99.977 108.546 C 100.054 108.942,100.450 108.973,100.595 108.595 C 100.702 108.315,100.672 108.295,100.435 108.492 C 100.233 108.660,100.109 108.667,100.035 108.516 C 99.973 108.390,99.949 108.402,99.977 108.546 M92.015 110.154 C 92.090 110.436,92.238 110.805,92.342 110.974 C 92.474 111.188,92.491 111.126,92.395 110.769 C 92.320 110.487,92.173 110.118,92.068 109.949 C 91.936 109.735,91.920 109.797,92.015 110.154 M107.100 111.613 C 106.973 111.975,106.906 112.308,106.950 112.351 C 106.994 112.395,107.133 112.135,107.259 111.772 C 107.386 111.410,107.453 111.077,107.409 111.033 C 107.365 110.989,107.226 111.250,107.100 111.613 M92.630 111.795 C 92.706 112.077,92.853 112.446,92.958 112.615 C 93.090 112.829,93.106 112.767,93.011 112.410 C 92.935 112.128,92.788 111.759,92.683 111.590 C 92.551 111.376,92.535 111.438,92.630 111.795 M93.249 113.436 C 93.323 113.718,93.515 114.179,93.674 114.462 L 93.964 114.974 93.828 114.462 C 93.753 114.179,93.562 113.718,93.403 113.436 L 93.113 112.923 93.249 113.436 M106.279 113.664 C 106.153 114.026,106.085 114.359,106.129 114.403 C 106.173 114.447,106.312 114.186,106.439 113.823 C 106.565 113.461,106.633 113.128,106.589 113.084 C 106.545 113.041,106.406 113.301,106.279 113.664 M158.564 113.897 C 158.564 113.982,163.657 114.051,169.881 114.051 C 180.263 114.051,181.234 114.080,181.625 114.403 L 182.051 114.754 181.640 114.305 L 181.230 113.856 169.897 113.800 C 163.664 113.769,158.564 113.813,158.564 113.897 M182.193 117.128 C 182.168 118.087,182.101 119.103,182.043 119.385 L 181.937 119.897 182.155 119.398 C 182.276 119.123,182.343 118.108,182.306 117.142 L 182.238 115.385 182.193 117.128 M104.810 117.259 C 104.697 117.557,104.642 117.839,104.688 117.885 C 104.735 117.932,104.871 117.688,104.991 117.344 C 105.258 116.579,105.097 116.504,104.810 117.259 M94.784 117.436 C 94.784 117.549,94.916 117.872,95.077 118.154 C 95.238 118.436,95.370 118.574,95.370 118.462 C 95.370 118.349,95.238 118.026,95.077 117.744 C 94.916 117.462,94.784 117.323,94.784 117.436 M104.041 119.175 C 103.805 119.741,103.657 120.205,103.711 120.205 C 103.848 120.205,104.644 118.319,104.547 118.223 C 104.504 118.179,104.276 118.608,104.041 119.175 M150.564 119.318 C 150.564 119.611,151.933 120.821,152.264 120.820 C 152.401 120.819,152.224 120.643,151.870 120.427 C 151.517 120.212,151.078 119.822,150.896 119.562 C 150.713 119.301,150.564 119.191,150.564 119.318 M95.598 119.554 C 95.586 119.957,96.730 121.027,97.164 121.018 C 97.402 121.013,97.301 120.906,96.887 120.726 C 96.528 120.570,96.094 120.182,95.921 119.862 C 95.748 119.543,95.602 119.405,95.598 119.554 M159.861 120.974 C 163.790 121.005,170.159 121.005,174.015 120.974 C 177.871 120.943,174.656 120.918,166.872 120.918 C 159.087 120.918,155.932 120.943,159.861 120.974 M69.700 121.178 C 70.410 121.218,71.518 121.218,72.162 121.177 C 72.806 121.136,72.226 121.104,70.872 121.104 C 69.518 121.104,68.991 121.138,69.700 121.178 M98.718 121.177 C 99.367 121.218,100.428 121.218,101.077 121.177 C 101.726 121.137,101.195 121.103,99.897 121.103 C 98.600 121.103,98.069 121.137,98.718 121.177 M128.667 121.177 C 129.315 121.218,130.377 121.218,131.026 121.177 C 131.674 121.137,131.144 121.103,129.846 121.103 C 128.549 121.103,128.018 121.137,128.667 121.177 " stroke="none" fill="#da9594" fill-rule="evenodd"></path><path id="path4" d="M254.000 57.788 C 254.310 57.835,254.818 57.835,255.128 57.788 C 255.438 57.741,255.185 57.702,254.564 57.702 C 253.944 57.702,253.690 57.741,254.000 57.788 M213.385 59.629 C 213.582 59.680,213.905 59.680,214.103 59.629 C 214.300 59.577,214.138 59.535,213.744 59.535 C 213.349 59.535,213.187 59.577,213.385 59.629 M249.495 62.462 C 249.496 63.026,249.536 63.232,249.583 62.920 C 249.630 62.608,249.629 62.147,249.580 61.895 C 249.532 61.642,249.493 61.897,249.495 62.462 M191.279 90.051 C 191.279 105.677,191.304 112.069,191.333 104.256 C 191.363 96.444,191.363 83.659,191.333 75.846 C 191.304 68.033,191.279 74.426,191.279 90.051 M210.002 66.196 C 210.258 66.245,210.627 66.244,210.823 66.192 C 211.019 66.141,210.810 66.101,210.359 66.103 C 209.908 66.105,209.747 66.147,210.002 66.196 M230.359 66.731 C 230.359 66.766,230.659 67.066,231.026 67.398 L 231.692 68.000 231.090 67.333 C 230.528 66.712,230.359 66.572,230.359 66.731 M224.000 71.859 C 224.000 71.894,224.300 72.194,224.667 72.526 L 225.333 73.128 224.731 72.462 C 224.169 71.840,224.000 71.701,224.000 71.859 M287.849 74.814 C 288.161 74.861,288.622 74.860,288.875 74.811 C 289.127 74.762,288.872 74.724,288.308 74.725 C 287.744 74.727,287.537 74.767,287.849 74.814 M258.150 98.256 C 258.150 110.272,258.175 115.187,258.205 109.179 C 258.235 103.172,258.235 93.341,258.205 87.333 C 258.175 81.326,258.150 86.241,258.150 98.256 M351.590 78.462 C 351.872 78.623,352.195 78.755,352.308 78.755 C 352.421 78.755,352.282 78.623,352.000 78.462 C 351.718 78.300,351.395 78.168,351.282 78.168 C 351.169 78.168,351.308 78.300,351.590 78.462 M334.206 79.487 C 334.208 79.938,334.250 80.099,334.299 79.844 C 334.348 79.589,334.346 79.219,334.295 79.023 C 334.243 78.827,334.203 79.036,334.206 79.487 M354.256 79.682 C 354.256 79.738,354.533 79.928,354.872 80.103 C 355.210 80.278,355.487 80.375,355.487 80.318 C 355.487 80.262,355.210 80.072,354.872 79.897 C 354.533 79.722,354.256 79.625,354.256 79.682 M343.778 80.280 C 344.051 80.616,344.821 81.125,344.821 80.969 C 344.821 80.930,344.521 80.678,344.154 80.410 C 343.741 80.108,343.598 80.058,343.778 80.280 M346.103 81.372 C 346.300 81.424,346.623 81.424,346.821 81.372 C 347.018 81.321,346.856 81.278,346.462 81.278 C 346.067 81.278,345.905 81.321,346.103 81.372 M331.028 81.581 C 331.283 81.630,331.652 81.628,331.849 81.577 C 332.045 81.525,331.836 81.485,331.385 81.488 C 330.933 81.490,330.773 81.532,331.028 81.581 M357.744 81.716 C 357.744 81.772,358.021 82.015,358.359 82.256 C 358.697 82.497,358.974 82.648,358.974 82.592 C 358.974 82.536,358.697 82.292,358.359 82.051 C 358.021 81.810,357.744 81.659,357.744 81.716 M359.795 83.385 C 360.178 83.779,360.537 84.103,360.593 84.103 C 360.650 84.103,360.383 83.779,360.000 83.385 C 359.617 82.990,359.258 82.667,359.202 82.667 C 359.145 82.667,359.412 82.990,359.795 83.385 M361.026 84.577 C 361.026 84.612,361.326 84.912,361.692 85.244 L 362.359 85.846 361.756 85.179 C 361.195 84.558,361.026 84.419,361.026 84.577 M238.407 85.949 C 238.407 86.344,238.449 86.505,238.500 86.308 C 238.552 86.110,238.552 85.787,238.500 85.590 C 238.449 85.392,238.407 85.554,238.407 85.949 M319.679 87.231 L 319.077 87.897 319.744 87.295 C 320.365 86.733,320.505 86.564,320.346 86.564 C 320.311 86.564,320.011 86.864,319.679 87.231 M357.333 86.628 C 357.333 86.664,357.633 86.964,358.000 87.295 L 358.667 87.897 358.064 87.231 C 357.503 86.609,357.333 86.470,357.333 86.628 M304.918 104.410 C 304.918 113.154,304.943 116.731,304.974 112.359 C 305.005 107.987,305.005 100.833,304.974 96.462 C 304.943 92.090,304.918 95.667,304.918 104.410 M230.005 89.641 C 230.005 90.149,230.045 90.356,230.093 90.103 C 230.142 89.849,230.142 89.433,230.093 89.179 C 230.045 88.926,230.005 89.133,230.005 89.641 M297.077 89.949 C 297.080 90.400,297.122 90.560,297.171 90.305 C 297.220 90.050,297.218 89.681,297.167 89.485 C 297.115 89.289,297.075 89.497,297.077 89.949 M238.411 92.821 C 238.413 93.272,238.455 93.432,238.504 93.177 C 238.553 92.922,238.551 92.553,238.500 92.357 C 238.449 92.160,238.408 92.369,238.411 92.821 M318.153 99.692 C 318.625 100.255,319.119 100.782,319.249 100.863 C 319.380 100.943,319.038 100.482,318.488 99.838 C 317.938 99.194,317.445 98.667,317.392 98.667 C 317.339 98.667,317.681 99.128,318.153 99.692 M352.611 101.077 L 350.872 102.872 352.667 101.133 C 354.334 99.518,354.555 99.282,354.406 99.282 C 354.375 99.282,353.567 100.090,352.611 101.077 M358.654 100.564 L 358.051 101.231 358.718 100.628 C 359.339 100.067,359.479 99.897,359.320 99.897 C 359.285 99.897,358.985 100.197,358.654 100.564 M288.149 100.251 C 288.513 100.296,289.160 100.297,289.585 100.252 C 290.011 100.208,289.713 100.171,288.923 100.170 C 288.133 100.169,287.785 100.205,288.149 100.251 M321.333 103.179 C 322.344 104.195,323.217 105.026,323.273 105.026 C 323.330 105.026,322.549 104.195,321.538 103.179 C 320.528 102.164,319.655 101.333,319.598 101.333 C 319.542 101.333,320.323 102.164,321.333 103.179 M355.279 104.154 L 352.718 106.769 355.333 104.208 C 357.763 101.829,358.042 101.538,357.894 101.538 C 357.864 101.538,356.688 102.715,355.279 104.154 M328.308 104.205 C 328.748 104.656,329.155 105.026,329.211 105.026 C 329.268 105.026,328.953 104.656,328.513 104.205 C 328.072 103.754,327.665 103.385,327.609 103.385 C 327.553 103.385,327.867 103.754,328.308 104.205 M349.423 104.051 L 348.821 104.718 349.487 104.115 C 349.854 103.784,350.154 103.484,350.154 103.449 C 350.154 103.290,349.985 103.430,349.423 104.051 M324.205 106.051 C 324.646 106.503,325.052 106.872,325.109 106.872 C 325.165 106.872,324.851 106.503,324.410 106.051 C 323.970 105.600,323.563 105.231,323.506 105.231 C 323.450 105.231,323.764 105.600,324.205 106.051 M329.641 105.295 C 329.641 105.330,329.941 105.630,330.308 105.962 L 330.974 106.564 330.372 105.897 C 329.810 105.276,329.641 105.136,329.641 105.295 M331.282 106.731 C 331.282 106.766,331.582 107.066,331.949 107.398 L 332.615 108.000 332.013 107.333 C 331.451 106.712,331.282 106.572,331.282 106.731 M345.731 107.333 L 345.128 108.000 345.795 107.398 C 346.416 106.836,346.556 106.667,346.397 106.667 C 346.362 106.667,346.062 106.967,345.731 107.333 M277.811 108.615 C 277.812 109.405,277.849 109.703,277.893 109.277 C 277.938 108.852,277.937 108.206,277.892 107.842 C 277.846 107.477,277.810 107.826,277.811 108.615 M326.462 108.103 C 326.902 108.554,327.309 108.923,327.365 108.923 C 327.422 108.923,327.107 108.554,326.667 108.103 C 326.226 107.651,325.819 107.282,325.763 107.282 C 325.706 107.282,326.021 107.651,326.462 108.103 M351.064 108.154 L 350.462 108.821 351.128 108.218 C 351.750 107.656,351.889 107.487,351.731 107.487 C 351.695 107.487,351.395 107.787,351.064 108.154 M223.795 108.821 C 223.297 109.328,222.935 109.744,222.992 109.744 C 223.048 109.744,223.502 109.328,224.000 108.821 C 224.498 108.313,224.860 107.897,224.803 107.897 C 224.747 107.897,224.293 108.313,223.795 108.821 M269.795 108.821 C 269.798 109.272,269.840 109.432,269.889 109.177 C 269.938 108.922,269.936 108.553,269.885 108.357 C 269.833 108.160,269.793 108.369,269.795 108.821 M327.590 108.987 C 327.590 109.023,327.890 109.323,328.256 109.654 L 328.923 110.256 328.321 109.590 C 327.759 108.968,327.590 108.829,327.590 108.987 M348.192 110.615 L 347.590 111.282 348.256 110.680 C 348.878 110.118,349.017 109.949,348.859 109.949 C 348.824 109.949,348.524 110.249,348.192 110.615 M294.654 111.846 L 294.051 112.513 294.718 111.910 C 295.339 111.349,295.479 111.179,295.320 111.179 C 295.285 111.179,294.985 111.479,294.654 111.846 M230.454 113.077 L 229.436 114.154 230.513 113.136 C 231.105 112.576,231.590 112.091,231.590 112.059 C 231.590 111.906,231.400 112.076,230.454 113.077 M343.516 114.431 C 342.991 114.980,342.960 115.114,343.027 116.534 L 343.098 118.051 343.139 116.524 C 343.175 115.175,343.244 114.930,343.731 114.421 C 344.034 114.105,344.236 113.846,344.179 113.846 C 344.123 113.846,343.824 114.110,343.516 114.431 M273.231 117.846 C 273.613 118.241,273.973 118.564,274.029 118.564 C 274.086 118.564,273.819 118.241,273.436 117.846 C 273.053 117.451,272.694 117.128,272.637 117.128 C 272.581 117.128,272.848 117.451,273.231 117.846 M213.179 120.552 C 213.377 120.603,213.700 120.603,213.897 120.552 C 214.095 120.500,213.933 120.458,213.538 120.458 C 213.144 120.458,212.982 120.500,213.179 120.552 M253.385 121.176 C 253.921 121.219,254.797 121.219,255.333 121.176 C 255.869 121.134,255.431 121.100,254.359 121.100 C 253.287 121.100,252.849 121.134,253.385 121.176 M300.769 121.175 C 301.192 121.219,301.885 121.219,302.308 121.175 C 302.731 121.131,302.385 121.095,301.538 121.095 C 300.692 121.095,300.346 121.131,300.769 121.175 M285.590 121.782 C 285.787 121.834,286.110 121.834,286.308 121.782 C 286.505 121.731,286.344 121.689,285.949 121.689 C 285.554 121.689,285.392 121.731,285.590 121.782 M335.641 124.000 C 335.644 124.451,335.686 124.612,335.735 124.357 C 335.784 124.101,335.782 123.732,335.731 123.536 C 335.679 123.340,335.639 123.549,335.641 124.000 M335.440 125.949 C 335.440 126.456,335.480 126.664,335.529 126.410 C 335.578 126.156,335.578 125.741,335.529 125.487 C 335.480 125.233,335.440 125.441,335.440 125.949 M339.553 127.179 C 339.553 127.913,339.590 128.213,339.636 127.846 C 339.681 127.479,339.681 126.879,339.636 126.513 C 339.590 126.146,339.553 126.446,339.553 127.179 M390.106 127.738 C 390.475 127.784,391.029 127.783,391.337 127.736 C 391.645 127.690,391.344 127.652,390.667 127.653 C 389.990 127.654,389.738 127.693,390.106 127.738 M335.250 130.564 C 335.251 131.467,335.287 131.810,335.330 131.328 C 335.373 130.845,335.373 130.107,335.329 129.687 C 335.285 129.267,335.249 129.662,335.250 130.564 M397.641 130.256 C 398.082 130.708,398.488 131.077,398.545 131.077 C 398.601 131.077,398.287 130.708,397.846 130.256 C 397.405 129.805,396.999 129.436,396.942 129.436 C 396.886 129.436,397.200 129.805,397.641 130.256 M390.103 131.837 C 390.356 131.886,390.772 131.886,391.026 131.837 C 391.279 131.788,391.072 131.748,390.564 131.748 C 390.056 131.748,389.849 131.788,390.103 131.837 M339.543 133.744 C 339.543 134.251,339.583 134.459,339.632 134.205 C 339.681 133.951,339.681 133.536,339.632 133.282 C 339.583 133.028,339.543 133.236,339.543 133.744 M372.872 133.449 C 372.336 133.728,371.897 134.003,371.897 134.059 C 371.897 134.115,372.359 133.927,372.923 133.641 C 373.487 133.355,373.949 133.077,373.949 133.022 C 373.949 132.887,373.967 132.879,372.872 133.449 M335.436 134.256 C 335.439 134.708,335.481 134.868,335.530 134.613 C 335.579 134.358,335.577 133.989,335.526 133.792 C 335.474 133.596,335.434 133.805,335.436 134.256 M395.639 135.530 C 395.754 137.150,395.862 137.363,395.878 136.000 C 395.885 135.379,395.815 134.752,395.723 134.606 C 395.629 134.458,395.592 134.866,395.639 135.530 M385.333 140.718 C 386.201 140.939,386.946 140.939,386.256 140.718 C 385.974 140.628,385.513 140.555,385.231 140.558 C 384.770 140.561,384.781 140.577,385.333 140.718 M390.145 143.026 C 390.995 143.931,391.179 144.094,391.179 143.940 C 391.179 143.907,390.741 143.469,390.205 142.966 L 389.231 142.051 390.145 143.026 M342.872 143.179 C 343.312 143.631,343.719 144.000,343.776 144.000 C 343.832 144.000,343.518 143.631,343.077 143.179 C 342.636 142.728,342.230 142.359,342.173 142.359 C 342.117 142.359,342.431 142.728,342.872 143.179 M377.939 143.231 L 377.128 144.103 378.000 143.292 C 378.811 142.538,378.966 142.359,378.811 142.359 C 378.777 142.359,378.385 142.751,377.939 143.231 M384.427 144.688 C 384.474 144.729,384.836 144.821,385.231 144.893 C 385.736 144.986,385.858 144.965,385.641 144.823 C 385.363 144.641,384.224 144.514,384.427 144.688 M395.375 145.692 L 394.564 146.564 395.436 145.753 C 396.247 144.999,396.402 144.821,396.247 144.821 C 396.213 144.821,395.821 145.213,395.375 145.692 M347.746 145.173 C 348.058 145.220,348.520 145.219,348.772 145.170 C 349.024 145.121,348.769 145.083,348.205 145.084 C 347.641 145.086,347.435 145.126,347.746 145.173 M347.441 149.279 C 347.924 149.322,348.662 149.321,349.082 149.277 C 349.502 149.233,349.108 149.198,348.205 149.199 C 347.303 149.199,346.959 149.235,347.441 149.279 M376.776 153.746 C 376.893 153.973,377.204 154.341,377.468 154.565 C 377.932 154.957,377.931 154.950,377.439 154.358 C 376.622 153.374,376.553 153.310,376.776 153.746 M391.179 154.103 C 390.877 154.515,390.827 154.658,391.049 154.478 C 391.385 154.205,391.894 153.436,391.738 153.436 C 391.699 153.436,391.447 153.736,391.179 154.103 M389.736 155.707 L 389.026 156.337 389.795 155.785 C 390.475 155.298,390.696 155.077,390.505 155.077 C 390.473 155.077,390.126 155.361,389.736 155.707 M381.846 157.538 C 382.072 157.635,382.395 157.715,382.564 157.715 C 382.758 157.715,382.720 157.650,382.462 157.538 C 382.236 157.442,381.913 157.362,381.744 157.362 C 381.550 157.362,381.588 157.427,381.846 157.538 M383.846 157.885 C 384.044 157.937,384.367 157.937,384.564 157.885 C 384.762 157.833,384.600 157.791,384.205 157.791 C 383.810 157.791,383.649 157.833,383.846 157.885 " stroke="none" fill="#839190" fill-rule="evenodd"></path><path id="path5" d="M331.538 75.218 C 331.736 75.270,332.059 75.270,332.256 75.218 C 332.454 75.167,332.292 75.125,331.897 75.125 C 331.503 75.125,331.341 75.167,331.538 75.218 M347.709 75.344 C 347.756 75.378,348.072 75.568,348.410 75.767 L 349.026 76.127 348.541 75.704 C 348.275 75.472,347.960 75.282,347.841 75.282 C 347.721 75.282,347.662 75.310,347.709 75.344 M333.978 77.744 C 333.978 77.913,334.057 78.236,334.154 78.462 C 334.265 78.720,334.330 78.758,334.330 78.564 C 334.330 78.395,334.251 78.072,334.154 77.846 C 334.043 77.588,333.978 77.550,333.978 77.744 M355.385 80.149 C 355.497 80.257,355.959 80.552,356.410 80.805 C 356.862 81.059,357.046 81.113,356.821 80.925 C 356.362 80.544,355.063 79.842,355.385 80.149 M329.684 81.405 C 329.514 81.513,329.645 81.573,330.051 81.573 C 330.457 81.573,330.588 81.513,330.418 81.405 C 330.273 81.313,330.108 81.237,330.051 81.237 C 329.995 81.237,329.830 81.313,329.684 81.405 M347.094 81.304 C 347.141 81.345,347.456 81.440,347.795 81.516 C 348.244 81.616,348.327 81.597,348.103 81.445 C 347.826 81.258,346.888 81.127,347.094 81.304 M317.423 83.538 L 316.821 84.205 317.487 83.603 C 318.109 83.041,318.248 82.872,318.090 82.872 C 318.054 82.872,317.754 83.172,317.423 83.538 M360.718 84.103 C 361.388 84.779,361.982 85.333,362.038 85.333 C 362.095 85.333,361.593 84.779,360.923 84.103 C 360.253 83.426,359.659 82.872,359.603 82.872 C 359.546 82.872,360.048 83.426,360.718 84.103 M319.795 87.282 C 319.297 87.790,318.935 88.205,318.992 88.205 C 319.048 88.205,319.502 87.790,320.000 87.282 C 320.498 86.774,320.860 86.359,320.803 86.359 C 320.747 86.359,320.293 86.774,319.795 87.282 M357.735 87.231 C 358.585 88.136,358.769 88.299,358.769 88.145 C 358.769 88.112,358.331 87.674,357.795 87.171 L 356.821 86.256 357.735 87.231 M313.689 89.846 C 313.689 90.241,313.731 90.403,313.782 90.205 C 313.834 90.008,313.834 89.685,313.782 89.487 C 313.731 89.290,313.689 89.451,313.689 89.846 M363.959 90.667 C 363.959 91.287,363.997 91.541,364.044 91.231 C 364.091 90.921,364.091 90.413,364.044 90.103 C 363.997 89.792,363.959 90.046,363.959 90.667 M359.641 90.769 C 359.644 91.221,359.686 91.381,359.735 91.126 C 359.784 90.871,359.782 90.501,359.731 90.305 C 359.679 90.109,359.639 90.318,359.641 90.769 M355.577 97.692 L 354.974 98.359 355.641 97.756 C 356.262 97.195,356.402 97.026,356.244 97.026 C 356.208 97.026,355.908 97.326,355.577 97.692 M322.819 98.564 C 323.508 99.354,324.791 100.692,325.670 101.538 C 326.734 102.562,326.487 102.253,324.932 100.615 C 321.785 97.299,321.334 96.862,322.819 98.564 M352.612 100.872 L 350.462 103.077 352.667 100.927 C 354.715 98.930,354.965 98.667,354.817 98.667 C 354.787 98.667,353.794 99.659,352.612 100.872 M318.359 100.167 C 318.359 100.202,318.659 100.502,319.026 100.833 L 319.692 101.436 319.090 100.769 C 318.528 100.148,318.359 100.008,318.359 100.167 M358.449 100.974 L 357.846 101.641 358.513 101.039 C 359.134 100.477,359.274 100.308,359.115 100.308 C 359.080 100.308,358.780 100.608,358.449 100.974 M355.175 104.462 L 353.333 106.359 355.231 104.517 C 356.993 102.806,357.222 102.564,357.073 102.564 C 357.042 102.564,356.188 103.418,355.175 104.462 M322.667 104.718 C 323.621 105.677,324.447 106.462,324.504 106.462 C 324.560 106.462,323.826 105.677,322.872 104.718 C 321.918 103.759,321.091 102.974,321.035 102.974 C 320.978 102.974,321.713 103.759,322.667 104.718 M328.821 104.513 C 329.203 104.908,329.563 105.231,329.619 105.231 C 329.675 105.231,329.408 104.908,329.026 104.513 C 328.643 104.118,328.284 103.795,328.227 103.795 C 328.171 103.795,328.438 104.118,328.821 104.513 M348.707 104.564 L 348.000 105.333 348.769 104.626 C 349.192 104.238,349.538 103.891,349.538 103.857 C 349.538 103.701,349.365 103.848,348.707 104.564 M330.051 105.500 C 330.051 105.535,330.351 105.835,330.718 106.167 L 331.385 106.769 330.782 106.103 C 330.221 105.481,330.051 105.342,330.051 105.500 M346.961 106.103 L 346.359 106.769 347.076 106.154 C 347.470 105.815,347.832 105.515,347.879 105.487 C 347.927 105.459,347.875 105.436,347.765 105.436 C 347.654 105.436,347.293 105.736,346.961 106.103 M351.685 107.744 L 350.667 108.821 351.744 107.803 C 352.336 107.243,352.821 106.758,352.821 106.726 C 352.821 106.573,352.630 106.743,351.685 107.744 M325.846 107.692 C 326.287 108.144,326.694 108.513,326.750 108.513 C 326.806 108.513,326.492 108.144,326.051 107.692 C 325.611 107.241,325.204 106.872,325.148 106.872 C 325.091 106.872,325.405 107.241,325.846 107.692 M349.833 109.385 L 349.231 110.051 349.897 109.449 C 350.519 108.887,350.658 108.718,350.500 108.718 C 350.465 108.718,350.165 109.018,349.833 109.385 M337.205 111.436 C 337.497 111.809,340.167 111.981,340.379 111.641 C 340.432 111.556,339.833 111.518,339.048 111.556 C 338.079 111.602,337.510 111.536,337.273 111.351 C 336.958 111.104,336.951 111.113,337.205 111.436 M331.077 112.064 C 331.077 112.121,331.538 112.553,332.103 113.026 C 332.667 113.498,333.128 113.838,333.128 113.782 C 333.128 113.725,332.667 113.293,332.103 112.821 C 331.538 112.348,331.077 112.008,331.077 112.064 M333.581 114.160 C 333.835 114.462,333.950 115.054,334.001 116.314 L 334.070 118.051 334.112 116.288 C 334.150 114.685,334.112 114.490,333.692 114.134 C 333.233 113.746,333.233 113.746,333.581 114.160 M343.247 116.205 C 343.248 116.995,343.285 117.293,343.329 116.867 C 343.374 116.442,343.373 115.795,343.328 115.431 C 343.282 115.067,343.246 115.415,343.247 116.205 M334.154 118.334 C 334.154 118.433,334.290 118.627,334.456 118.764 C 334.827 119.073,336.248 119.415,336.089 119.158 C 336.027 119.057,335.750 118.974,335.475 118.974 C 335.200 118.974,334.790 118.790,334.564 118.564 C 334.338 118.338,334.154 118.235,334.154 118.334 M340.650 119.111 C 340.574 119.186,340.514 119.348,340.516 119.470 C 340.518 119.614,340.573 119.608,340.672 119.453 C 340.755 119.321,341.146 119.174,341.540 119.126 L 342.256 119.040 341.521 119.007 C 341.117 118.989,340.725 119.036,340.650 119.111 M335.637 122.667 C 335.637 123.062,335.680 123.223,335.731 123.026 C 335.783 122.828,335.783 122.505,335.731 122.308 C 335.680 122.110,335.637 122.272,335.637 122.667 M339.945 123.487 C 339.945 123.882,339.987 124.044,340.039 123.846 C 340.090 123.649,340.090 123.326,340.039 123.128 C 339.987 122.931,339.945 123.092,339.945 123.487 M335.247 127.692 C 335.248 128.482,335.285 128.780,335.329 128.354 C 335.374 127.929,335.373 127.283,335.328 126.919 C 335.282 126.554,335.246 126.903,335.247 127.692 M339.565 130.667 C 339.565 131.964,339.598 132.495,339.639 131.846 C 339.679 131.197,339.679 130.136,339.639 129.487 C 339.598 128.838,339.565 129.369,339.565 130.667 M397.128 129.500 C 397.128 129.535,397.428 129.835,397.795 130.167 L 398.462 130.769 397.859 130.103 C 397.297 129.481,397.128 129.342,397.128 129.500 M389.903 132.048 C 390.385 132.091,391.124 132.091,391.544 132.047 C 391.964 132.002,391.569 131.967,390.667 131.968 C 389.764 131.969,389.420 132.005,389.903 132.048 M335.238 133.026 C 335.240 133.590,335.280 133.796,335.327 133.484 C 335.374 133.173,335.373 132.711,335.324 132.459 C 335.275 132.206,335.237 132.462,335.238 133.026 M383.746 140.453 C 384.001 140.502,384.370 140.500,384.566 140.449 C 384.763 140.397,384.554 140.357,384.103 140.359 C 383.651 140.362,383.491 140.404,383.746 140.453 M392.399 142.718 L 391.692 143.487 392.462 142.780 C 393.178 142.122,393.325 141.949,393.168 141.949 C 393.134 141.949,392.788 142.295,392.399 142.718 M390.304 142.971 C 391.026 143.731,391.216 143.837,391.432 143.604 C 391.643 143.377,391.641 143.354,391.417 143.481 C 391.240 143.582,390.840 143.357,390.289 142.847 L 389.436 142.058 390.304 142.971 M343.368 143.459 C 343.641 143.796,344.410 144.304,344.410 144.148 C 344.410 144.109,344.110 143.858,343.744 143.589 C 343.331 143.287,343.188 143.238,343.368 143.459 M363.231 144.117 C 362.464 144.533,362.511 144.707,363.282 144.308 C 363.621 144.133,363.897 143.946,363.897 143.892 C 363.897 143.760,363.875 143.768,363.231 144.117 M381.013 146.103 L 380.410 146.769 381.077 146.167 C 381.698 145.605,381.838 145.436,381.679 145.436 C 381.644 145.436,381.344 145.736,381.013 146.103 M386.872 145.705 C 386.872 145.741,387.172 146.041,387.538 146.372 L 388.205 146.974 387.603 146.308 C 387.041 145.686,386.872 145.547,386.872 145.705 M393.144 147.675 C 392.937 147.903,392.826 148.270,392.879 148.547 L 392.970 149.026 392.998 148.529 C 393.013 148.256,393.178 147.863,393.365 147.657 C 393.552 147.451,393.658 147.282,393.602 147.282 C 393.546 147.282,393.339 147.459,393.144 147.675 M375.454 149.128 C 375.454 149.974,375.490 150.321,375.534 149.897 C 375.578 149.474,375.578 148.782,375.534 148.359 C 375.490 147.936,375.454 148.282,375.454 149.128 M379.751 149.231 C 379.753 149.795,379.792 150.001,379.840 149.689 C 379.887 149.378,379.885 148.916,379.837 148.664 C 379.788 148.412,379.749 148.667,379.751 149.231 M383.641 153.583 C 383.951 153.630,384.459 153.630,384.769 153.583 C 385.079 153.536,384.826 153.497,384.205 153.497 C 383.585 153.497,383.331 153.536,383.641 153.583 M378.564 155.874 C 378.789 156.136,379.251 156.480,379.589 156.639 C 379.953 156.810,380.047 156.823,379.819 156.670 C 379.606 156.527,379.145 156.183,378.793 155.905 C 378.176 155.416,378.168 155.415,378.564 155.874 " stroke="none" fill="#b4cd9e" fill-rule="evenodd"></path><path id="path6" d="M253.795 57.577 C 253.992 57.629,254.315 57.629,254.513 57.577 C 254.710 57.526,254.549 57.483,254.154 57.483 C 253.759 57.483,253.597 57.526,253.795 57.577 M151.487 59.018 C 151.262 59.072,150.992 59.197,150.889 59.295 C 150.732 59.444,151.805 59.235,152.513 58.978 C 152.813 58.870,151.968 58.902,151.487 59.018 M157.083 59.157 C 157.566 59.317,158.120 59.567,158.314 59.712 C 158.539 59.880,158.518 59.819,158.256 59.541 C 158.031 59.302,157.477 59.052,157.026 58.986 L 156.205 58.866 157.083 59.157 M68.994 59.234 C 68.864 59.317,70.869 59.385,73.449 59.385 C 76.029 59.385,77.981 59.322,77.788 59.245 C 77.309 59.055,69.290 59.045,68.994 59.234 M123.148 59.234 C 123.018 59.317,124.971 59.385,127.488 59.385 C 130.005 59.385,131.957 59.317,131.827 59.234 C 131.696 59.151,129.744 59.083,127.487 59.083 C 125.231 59.083,123.278 59.151,123.148 59.234 M197.911 59.231 C 200.090 59.264,203.598 59.264,205.706 59.230 C 207.814 59.197,206.031 59.170,201.744 59.170 C 197.456 59.170,195.732 59.197,197.911 59.231 M67.644 60.086 C 67.276 60.415,67.021 60.715,67.077 60.752 C 67.133 60.790,67.488 60.521,67.865 60.154 C 68.718 59.325,68.553 59.274,67.644 60.086 M121.612 59.909 C 121.232 60.241,121.216 60.286,121.538 60.121 C 122.234 59.765,122.575 59.494,122.330 59.490 C 122.202 59.489,121.879 59.677,121.612 59.909 M132.308 59.551 C 132.308 59.587,132.608 59.887,132.974 60.218 L 133.641 60.821 133.039 60.154 C 132.477 59.532,132.308 59.393,132.308 59.551 M150.261 59.890 C 150.081 60.181,150.129 118.762,150.309 119.083 C 150.393 119.233,150.462 105.931,150.462 89.524 C 150.462 73.117,150.444 59.692,150.422 59.692 C 150.401 59.692,150.328 59.781,150.261 59.890 M158.664 86.974 C 158.664 101.697,158.688 107.721,158.718 100.359 C 158.748 92.997,158.748 80.951,158.718 73.590 C 158.688 66.228,158.664 72.251,158.664 86.974 M80.762 60.935 C 81.012 61.217,81.503 61.953,81.852 62.570 C 82.201 63.187,82.422 63.462,82.343 63.179 C 82.168 62.552,81.196 61.107,80.684 60.712 C 80.436 60.521,80.462 60.597,80.762 60.935 M66.712 61.487 C 66.630 61.685,66.564 74.985,66.564 91.043 L 66.564 120.241 67.140 120.736 C 67.456 121.008,67.918 121.222,68.165 121.212 C 68.511 121.198,68.466 121.151,67.975 121.008 C 66.682 120.633,66.774 122.766,66.715 91.763 C 66.685 76.155,66.741 62.877,66.838 62.256 C 67.018 61.106,66.975 60.845,66.712 61.487 M133.846 90.974 C 133.846 107.143,133.915 120.328,134.000 120.276 C 134.199 120.153,134.196 62.127,133.997 61.814 C 133.914 61.684,133.846 74.806,133.846 90.974 M119.272 62.583 C 119.092 62.932,118.981 63.254,119.025 63.299 C 119.070 63.343,119.259 63.058,119.447 62.664 C 119.869 61.779,119.723 61.712,119.272 62.583 M82.701 64.626 C 82.821 64.970,82.957 65.214,83.004 65.167 C 83.105 65.066,82.718 64.000,82.580 64.000 C 82.527 64.000,82.581 64.282,82.701 64.626 M117.733 66.182 C 117.620 66.480,117.565 66.762,117.612 66.808 C 117.658 66.855,117.794 66.611,117.914 66.267 C 118.181 65.502,118.020 65.427,117.733 66.182 M83.522 66.677 C 83.642 67.021,83.778 67.265,83.824 67.218 C 83.926 67.117,83.539 66.051,83.400 66.051 C 83.347 66.051,83.402 66.333,83.522 66.677 M75.091 66.923 C 75.083 67.233,75.169 67.487,75.282 67.487 C 75.523 67.487,75.523 67.330,75.282 66.769 C 75.126 66.406,75.104 66.423,75.091 66.923 M125.119 67.436 C 124.681 68.571,124.665 68.669,125.004 68.103 C 125.290 67.625,125.316 67.758,125.381 70.051 L 125.450 72.513 125.494 69.590 C 125.543 66.358,125.541 66.343,125.119 67.436 M116.956 68.009 C 116.613 68.763,116.678 68.924,117.050 68.238 C 117.223 67.918,117.327 67.618,117.280 67.571 C 117.233 67.524,117.088 67.721,116.956 68.009 M75.604 68.103 C 75.678 68.385,75.820 68.703,75.920 68.810 C 76.213 69.124,76.123 68.674,75.779 68.103 L 75.470 67.590 75.604 68.103 M84.110 68.215 C 84.114 68.323,84.256 68.641,84.426 68.923 L 84.735 69.436 84.601 68.923 C 84.461 68.388,84.097 67.863,84.110 68.215 M116.297 69.669 C 116.184 69.967,116.129 70.249,116.176 70.295 C 116.222 70.342,116.358 70.098,116.478 69.754 C 116.745 68.989,116.584 68.914,116.297 69.669 M124.137 69.733 C 124.017 70.077,123.962 70.359,124.016 70.359 C 124.154 70.359,124.541 69.293,124.440 69.192 C 124.393 69.145,124.257 69.389,124.137 69.733 M84.839 69.949 C 84.913 70.231,85.105 70.692,85.264 70.974 L 85.553 71.487 85.418 70.974 C 85.343 70.692,85.152 70.231,84.993 69.949 L 84.703 69.436 84.839 69.949 M115.493 71.472 C 115.188 72.274,115.248 72.400,115.614 71.725 C 115.788 71.405,115.879 71.092,115.817 71.030 C 115.755 70.968,115.609 71.167,115.493 71.472 M123.305 71.818 C 123.178 72.180,123.111 72.513,123.155 72.557 C 123.199 72.600,123.338 72.340,123.464 71.977 C 123.591 71.615,123.658 71.282,123.614 71.238 C 123.571 71.194,123.431 71.455,123.305 71.818 M77.040 71.795 C 77.114 72.077,77.256 72.395,77.356 72.503 C 77.649 72.816,77.559 72.366,77.215 71.795 L 76.906 71.282 77.040 71.795 M85.656 72.000 C 85.731 72.282,85.879 72.651,85.983 72.821 C 86.115 73.034,86.132 72.972,86.036 72.615 C 85.961 72.333,85.814 71.964,85.709 71.795 C 85.577 71.581,85.561 71.644,85.656 72.000 M125.405 74.256 C 125.405 75.215,125.440 75.608,125.484 75.128 C 125.527 74.649,125.527 73.864,125.484 73.385 C 125.440 72.905,125.405 73.297,125.405 74.256 M122.692 73.359 C 122.557 73.656,122.493 73.946,122.551 74.004 C 122.608 74.061,122.753 73.852,122.872 73.538 C 123.153 72.798,123.012 72.657,122.692 73.359 M114.672 73.523 C 114.368 74.325,114.428 74.451,114.793 73.777 C 114.967 73.457,115.058 73.144,114.996 73.082 C 114.934 73.020,114.788 73.218,114.672 73.523 M77.757 73.641 C 77.758 73.810,77.897 74.179,78.067 74.462 L 78.376 74.974 78.240 74.462 C 78.043 73.717,77.756 73.229,77.757 73.641 M86.598 74.472 C 86.718 74.816,86.855 75.060,86.901 75.013 C 87.003 74.912,86.616 73.846,86.477 73.846 C 86.424 73.846,86.478 74.128,86.598 74.472 M114.085 74.983 C 113.741 75.737,113.806 75.898,114.178 75.213 C 114.352 74.892,114.455 74.592,114.408 74.545 C 114.361 74.498,114.216 74.695,114.085 74.983 M78.374 75.179 C 78.374 75.292,78.505 75.615,78.667 75.897 C 78.828 76.179,78.960 76.318,78.960 76.205 C 78.960 76.092,78.828 75.769,78.667 75.487 C 78.505 75.205,78.374 75.067,78.374 75.179 M86.998 75.385 C 87.002 75.497,87.182 75.959,87.399 76.410 C 87.616 76.862,87.737 77.000,87.666 76.718 C 87.522 76.137,86.987 75.071,86.998 75.385 M113.220 77.054 C 113.107 77.352,113.052 77.633,113.099 77.680 C 113.145 77.726,113.282 77.483,113.402 77.139 C 113.668 76.373,113.507 76.298,113.220 77.054 M121.187 77.031 C 121.124 77.254,121.010 77.621,120.933 77.846 C 120.857 78.072,120.945 77.997,121.128 77.680 C 121.312 77.363,121.426 76.996,121.382 76.865 C 121.338 76.733,121.251 76.808,121.187 77.031 M125.432 98.154 C 125.432 110.000,125.457 114.816,125.487 108.856 C 125.517 102.896,125.517 93.204,125.487 87.318 C 125.457 81.431,125.432 86.308,125.432 98.154 M87.907 77.795 C 87.983 78.049,88.131 78.347,88.234 78.457 C 88.337 78.567,88.318 78.359,88.191 77.995 C 87.931 77.250,87.691 77.081,87.907 77.795 M112.530 78.786 C 112.342 79.256,112.226 79.679,112.273 79.726 C 112.320 79.773,112.513 79.427,112.701 78.957 C 112.889 78.487,113.004 78.064,112.957 78.017 C 112.910 77.970,112.718 78.316,112.530 78.786 M120.436 78.897 C 120.301 79.195,120.237 79.485,120.294 79.542 C 120.352 79.600,120.496 79.390,120.615 79.077 C 120.897 78.337,120.756 78.196,120.436 78.897 M80.117 79.795 C 80.191 80.077,80.333 80.395,80.433 80.503 C 80.726 80.816,80.636 80.366,80.292 79.795 L 79.983 79.282 80.117 79.795 M111.828 80.522 C 111.485 81.276,111.550 81.437,111.922 80.751 C 112.095 80.431,112.199 80.130,112.152 80.084 C 112.105 80.037,111.959 80.234,111.828 80.522 M119.623 80.932 C 119.279 81.686,119.345 81.847,119.717 81.161 C 119.890 80.841,119.994 80.541,119.947 80.494 C 119.900 80.447,119.754 80.644,119.623 80.932 M110.964 82.593 C 110.850 82.890,110.796 83.172,110.842 83.218 C 110.889 83.265,111.025 83.021,111.145 82.677 C 111.412 81.912,111.251 81.837,110.964 82.593 M118.803 82.983 C 118.459 83.737,118.524 83.898,118.896 83.213 C 119.070 82.892,119.173 82.592,119.126 82.545 C 119.079 82.498,118.934 82.695,118.803 82.983 M81.548 83.538 C 81.624 83.792,81.772 84.090,81.875 84.200 C 81.978 84.311,81.959 84.103,81.832 83.739 C 81.572 82.994,81.332 82.824,81.548 83.538 M90.168 83.487 C 90.242 83.769,90.384 84.088,90.485 84.195 C 90.777 84.508,90.688 84.059,90.343 83.487 L 90.034 82.974 90.168 83.487 M110.187 84.419 C 109.843 85.173,109.909 85.334,110.281 84.649 C 110.454 84.328,110.558 84.028,110.511 83.981 C 110.464 83.934,110.318 84.131,110.187 84.419 M82.270 85.333 C 82.270 85.503,82.410 85.872,82.580 86.154 L 82.889 86.667 82.753 86.154 C 82.556 85.409,82.269 84.922,82.270 85.333 M109.561 85.972 C 109.435 86.334,109.367 86.667,109.411 86.710 C 109.455 86.754,109.594 86.494,109.721 86.131 C 109.847 85.769,109.915 85.436,109.871 85.392 C 109.827 85.348,109.688 85.609,109.561 85.972 M117.356 86.587 C 117.230 86.949,117.162 87.282,117.206 87.326 C 117.250 87.370,117.389 87.109,117.516 86.746 C 117.642 86.384,117.710 86.051,117.666 86.008 C 117.622 85.964,117.482 86.224,117.356 86.587 M82.989 87.179 C 83.065 87.462,83.212 87.831,83.317 88.000 C 83.449 88.214,83.465 88.151,83.370 87.795 C 83.294 87.513,83.147 87.144,83.042 86.974 C 82.910 86.761,82.894 86.823,82.989 87.179 M91.727 87.395 C 91.847 87.739,91.983 87.983,92.029 87.936 C 92.131 87.835,91.744 86.769,91.605 86.769 C 91.552 86.769,91.607 87.051,91.727 87.395 M108.751 87.906 C 108.408 88.661,108.473 88.821,108.845 88.136 C 109.018 87.815,109.122 87.515,109.075 87.468 C 109.028 87.421,108.882 87.618,108.751 87.906 M229.799 88.615 C 229.799 89.123,229.839 89.331,229.888 89.077 C 229.937 88.823,229.937 88.408,229.888 88.154 C 229.839 87.900,229.799 88.108,229.799 88.615 M83.832 89.333 C 83.964 89.993,84.053 90.170,84.186 90.034 C 84.232 89.987,84.144 89.672,83.989 89.333 L 83.709 88.718 83.832 89.333 M92.547 89.446 C 92.667 89.791,92.803 90.034,92.850 89.988 C 92.952 89.886,92.564 88.821,92.426 88.821 C 92.373 88.821,92.427 89.102,92.547 89.446 M107.931 89.958 C 107.587 90.712,107.653 90.873,108.024 90.187 C 108.198 89.867,108.301 89.566,108.255 89.519 C 108.208 89.473,108.062 89.670,107.931 89.958 M116.059 89.749 C 115.996 89.972,115.881 90.338,115.805 90.564 C 115.729 90.790,115.816 90.715,116.000 90.398 C 116.183 90.081,116.298 89.714,116.254 89.583 C 116.210 89.451,116.123 89.526,116.059 89.749 M229.799 90.462 C 229.799 90.969,229.839 91.177,229.888 90.923 C 229.937 90.669,229.937 90.254,229.888 90.000 C 229.839 89.746,229.799 89.954,229.799 90.462 M318.201 90.667 C 318.201 91.062,318.244 91.223,318.295 91.026 C 318.347 90.828,318.347 90.505,318.295 90.308 C 318.244 90.110,318.201 90.272,318.201 90.667 M107.315 91.393 C 106.972 92.148,107.037 92.309,107.409 91.623 C 107.582 91.303,107.686 91.002,107.639 90.955 C 107.592 90.908,107.447 91.106,107.315 91.393 M84.625 91.538 C 84.701 91.792,84.849 92.090,84.952 92.200 C 85.055 92.311,85.036 92.103,84.909 91.739 C 84.649 90.994,84.409 90.824,84.625 91.538 M115.110 92.214 C 114.767 92.968,114.832 93.129,115.204 92.443 C 115.377 92.123,115.481 91.823,115.434 91.776 C 115.387 91.729,115.241 91.926,115.110 92.214 M85.245 93.128 C 85.319 93.410,85.461 93.729,85.562 93.836 C 85.854 94.149,85.764 93.700,85.420 93.128 L 85.111 92.615 85.245 93.128 M106.467 93.421 C 106.162 94.223,106.223 94.349,106.588 93.674 C 106.762 93.354,106.853 93.041,106.791 92.979 C 106.729 92.917,106.583 93.116,106.467 93.421 M114.376 93.966 C 114.188 94.436,114.073 94.859,114.120 94.906 C 114.167 94.953,114.359 94.607,114.547 94.137 C 114.735 93.667,114.851 93.244,114.803 93.197 C 114.756 93.150,114.564 93.496,114.376 93.966 M94.804 95.190 C 94.924 95.534,95.060 95.778,95.106 95.731 C 95.208 95.630,94.821 94.564,94.682 94.564 C 94.629 94.564,94.684 94.846,94.804 95.190 M86.061 95.231 C 86.137 95.485,86.284 95.783,86.388 95.893 C 86.491 96.003,86.471 95.795,86.344 95.431 C 86.085 94.686,85.845 94.517,86.061 95.231 M105.630 95.516 C 105.517 95.813,105.462 96.095,105.509 96.141 C 105.556 96.188,105.692 95.944,105.812 95.600 C 106.079 94.835,105.917 94.760,105.630 95.516 M113.846 95.223 C 113.846 95.284,113.706 95.669,113.536 96.078 C 113.365 96.486,113.277 96.821,113.341 96.821 C 113.520 96.821,114.090 95.355,113.961 95.226 C 113.898 95.163,113.846 95.161,113.846 95.223 M105.059 96.932 C 104.715 97.686,104.781 97.847,105.152 97.161 C 105.326 96.841,105.430 96.541,105.383 96.494 C 105.336 96.447,105.190 96.644,105.059 96.932 M95.399 96.718 C 95.399 96.831,95.531 97.154,95.692 97.436 C 95.854 97.718,95.985 97.856,95.985 97.744 C 95.985 97.631,95.854 97.308,95.692 97.026 C 95.531 96.744,95.399 96.605,95.399 96.718 M86.776 97.138 C 86.780 97.246,86.923 97.564,87.093 97.846 L 87.402 98.359 87.268 97.846 C 87.128 97.311,86.763 96.786,86.776 97.138 M112.846 97.769 C 112.711 98.066,112.647 98.356,112.705 98.414 C 112.762 98.471,112.907 98.262,113.026 97.949 C 113.307 97.209,113.166 97.067,112.846 97.769 M96.118 98.462 C 96.193 98.744,96.340 99.113,96.445 99.282 C 96.577 99.496,96.593 99.433,96.498 99.077 C 96.422 98.795,96.275 98.426,96.171 98.256 C 96.038 98.043,96.022 98.105,96.118 98.462 M87.502 98.872 C 87.578 99.154,87.725 99.523,87.829 99.692 C 87.962 99.906,87.978 99.844,87.882 99.487 C 87.807 99.205,87.660 98.836,87.555 98.667 C 87.423 98.453,87.407 98.515,87.502 98.872 M104.103 99.211 C 103.930 99.623,103.837 100.008,103.895 100.066 C 103.953 100.124,104.000 100.121,104.000 100.059 C 104.000 99.998,104.140 99.613,104.310 99.205 C 104.481 98.796,104.575 98.462,104.518 98.462 C 104.462 98.462,104.275 98.799,104.103 99.211 M325.026 100.718 C 325.923 101.621,326.703 102.359,326.760 102.359 C 326.816 102.359,326.128 101.621,325.231 100.718 C 324.333 99.815,323.553 99.077,323.497 99.077 C 323.440 99.077,324.128 99.815,325.026 100.718 M112.033 99.804 C 111.690 100.558,111.755 100.719,112.127 100.033 C 112.300 99.713,112.404 99.413,112.357 99.366 C 112.310 99.319,112.164 99.516,112.033 99.804 M97.060 100.934 C 97.180 101.278,97.316 101.521,97.363 101.475 C 97.464 101.373,97.077 100.308,96.939 100.308 C 96.885 100.308,96.940 100.589,97.060 100.934 M103.418 100.829 C 103.074 101.584,103.140 101.745,103.511 101.059 C 103.685 100.739,103.789 100.438,103.742 100.391 C 103.695 100.344,103.549 100.541,103.418 100.829 M288.977 100.453 C 289.232 100.502,289.601 100.500,289.797 100.449 C 289.993 100.397,289.785 100.357,289.333 100.359 C 288.882 100.362,288.722 100.404,288.977 100.453 M88.322 101.128 C 88.396 101.410,88.538 101.729,88.638 101.836 C 88.931 102.149,88.841 101.700,88.497 101.128 L 88.188 100.615 88.322 101.128 M111.213 101.855 C 110.869 102.609,110.935 102.770,111.306 102.084 C 111.480 101.764,111.583 101.464,111.537 101.417 C 111.490 101.370,111.344 101.567,111.213 101.855 M97.648 102.472 C 97.652 102.579,97.795 102.897,97.965 103.179 L 98.274 103.692 98.139 103.179 C 97.999 102.644,97.635 102.120,97.648 102.472 M110.598 103.374 C 110.478 103.718,110.424 104.000,110.477 104.000 C 110.616 104.000,111.003 102.934,110.901 102.833 C 110.855 102.786,110.718 103.030,110.598 103.374 M98.377 104.205 C 98.452 104.487,98.643 104.949,98.802 105.231 L 99.092 105.744 98.956 105.231 C 98.882 104.949,98.690 104.487,98.531 104.205 L 98.241 103.692 98.377 104.205 M89.758 104.821 C 89.832 105.103,89.974 105.421,90.074 105.528 C 90.367 105.842,90.277 105.392,89.933 104.821 L 89.624 104.308 89.758 104.821 M101.162 106.368 C 100.818 107.122,100.883 107.283,101.255 106.597 C 101.429 106.277,101.532 105.977,101.485 105.930 C 101.438 105.883,101.293 106.080,101.162 106.368 M99.316 106.677 C 99.436 107.021,99.573 107.265,99.619 107.218 C 99.721 107.117,99.334 106.051,99.195 106.051 C 99.142 106.051,99.196 106.333,99.316 106.677 M90.579 106.872 C 90.655 107.154,90.802 107.523,90.906 107.692 C 91.039 107.906,91.055 107.844,90.959 107.487 C 90.884 107.205,90.737 106.836,90.632 106.667 C 90.500 106.453,90.484 106.515,90.579 106.872 M99.707 107.590 C 99.707 108.642,100.470 108.787,100.784 107.795 C 100.894 107.449,100.861 107.460,100.576 107.862 L 100.237 108.339 99.972 107.862 C 99.826 107.599,99.707 107.477,99.707 107.590 M108.342 108.913 C 108.222 109.257,108.168 109.538,108.221 109.538 C 108.359 109.538,108.746 108.473,108.645 108.371 C 108.598 108.325,108.462 108.568,108.342 108.913 M91.289 108.831 C 91.293 108.938,91.436 109.256,91.606 109.538 L 91.915 110.051 91.780 109.538 C 91.640 109.003,91.276 108.479,91.289 108.831 M106.905 112.522 C 106.561 113.276,106.627 113.437,106.999 112.751 C 107.172 112.431,107.276 112.130,107.229 112.084 C 107.182 112.037,107.036 112.234,106.905 112.522 M92.836 112.821 C 92.911 113.103,93.058 113.472,93.163 113.641 C 93.295 113.855,93.311 113.792,93.216 113.436 C 93.140 113.154,92.993 112.785,92.888 112.615 C 92.756 112.402,92.740 112.464,92.836 112.821 M164.462 113.795 C 167.536 113.827,172.567 113.827,175.641 113.795 C 178.715 113.763,176.200 113.737,170.051 113.737 C 163.903 113.737,161.387 113.763,164.462 113.795 M181.729 114.387 C 181.963 114.684,182.154 115.069,182.154 115.241 C 182.154 115.414,182.219 115.490,182.299 115.411 C 182.474 115.236,181.757 113.846,181.491 113.846 C 181.388 113.846,181.495 114.089,181.729 114.387 M106.085 114.573 C 105.741 115.327,105.806 115.488,106.178 114.802 C 106.352 114.482,106.455 114.182,106.408 114.135 C 106.361 114.088,106.216 114.285,106.085 114.573 M93.650 114.923 C 93.727 115.177,93.874 115.475,93.977 115.585 C 94.081 115.695,94.061 115.488,93.934 115.124 C 93.674 114.378,93.435 114.209,93.650 114.923 M105.393 116.210 C 105.329 116.433,105.215 116.800,105.138 117.026 C 105.062 117.251,105.150 117.177,105.333 116.859 C 105.517 116.542,105.631 116.176,105.587 116.044 C 105.544 115.913,105.456 115.988,105.393 116.210 M94.273 116.513 C 94.470 117.257,94.757 117.745,94.756 117.333 C 94.755 117.164,94.616 116.795,94.446 116.513 L 94.137 116.000 94.273 116.513 M182.423 117.436 C 182.424 118.113,182.462 118.365,182.508 117.996 C 182.553 117.628,182.552 117.074,182.506 116.766 C 182.459 116.457,182.421 116.759,182.423 117.436 M104.547 118.393 C 104.361 118.866,104.243 119.286,104.284 119.327 C 104.325 119.368,104.513 119.017,104.701 118.547 C 104.889 118.077,105.007 117.657,104.964 117.613 C 104.920 117.570,104.733 117.921,104.547 118.393 M95.092 118.564 C 95.167 118.846,95.315 119.215,95.419 119.385 C 95.551 119.598,95.567 119.536,95.472 119.179 C 95.397 118.897,95.249 118.528,95.145 118.359 C 95.013 118.145,94.997 118.208,95.092 118.564 M181.904 120.036 C 181.648 120.634,181.629 120.796,181.833 120.626 C 182.096 120.408,182.453 119.410,182.317 119.274 C 182.283 119.241,182.097 119.583,181.904 120.036 M103.722 120.256 L 103.355 120.923 103.780 120.439 C 104.147 120.021,104.333 119.590,104.147 119.590 C 104.115 119.590,103.923 119.890,103.722 120.256 M150.677 119.851 C 150.732 119.994,150.983 120.237,151.235 120.390 C 151.671 120.656,151.669 120.644,151.195 120.130 C 150.640 119.527,150.530 119.468,150.677 119.851 M132.718 120.936 C 132.261 121.109,132.149 121.209,132.410 121.212 C 132.636 121.214,133.051 121.084,133.333 120.923 C 133.960 120.565,133.683 120.571,132.718 120.936 M73.968 120.972 C 73.885 121.055,72.646 121.184,71.216 121.258 L 68.615 121.392 71.323 121.356 C 73.783 121.322,74.512 121.213,74.222 120.923 C 74.166 120.867,74.051 120.889,73.968 120.972 M96.779 121.047 C 96.976 121.258,97.700 121.341,99.549 121.362 L 102.051 121.390 99.590 121.255 C 98.236 121.180,96.990 121.038,96.821 120.940 C 96.565 120.791,96.558 120.809,96.779 121.047 M102.462 121.026 C 102.066 121.196,102.067 121.202,102.501 121.216 C 102.748 121.224,103.007 121.138,103.077 121.026 C 103.227 120.783,103.026 120.783,102.462 121.026 M126.514 121.038 C 126.700 121.238,127.496 121.326,129.386 121.356 L 132.000 121.396 129.429 121.250 C 128.014 121.170,126.722 121.027,126.557 120.932 C 126.312 120.792,126.304 120.812,126.514 121.038 M152.572 121.063 C 153.050 121.252,180.760 121.263,181.057 121.074 C 181.188 120.991,174.752 120.923,166.757 120.923 C 158.762 120.923,152.378 120.986,152.572 121.063 M389.079 127.530 C 389.334 127.579,389.704 127.577,389.900 127.526 C 390.096 127.474,389.887 127.434,389.436 127.436 C 388.985 127.439,388.824 127.481,389.079 127.530 M391.641 127.526 C 391.838 127.578,392.162 127.578,392.359 127.526 C 392.556 127.474,392.395 127.432,392.000 127.432 C 391.605 127.432,391.444 127.474,391.641 127.526 M335.055 130.359 C 335.056 131.938,335.088 132.557,335.127 131.735 C 335.166 130.912,335.166 129.619,335.126 128.863 C 335.087 128.106,335.055 128.779,335.055 130.359 " stroke="none" fill="#f7cccd" fill-rule="evenodd"></path><path id="path7" d="M250.714 58.369 C 250.464 58.545,250.160 58.891,250.039 59.139 L 249.819 59.590 250.191 59.134 C 250.396 58.884,250.749 58.541,250.974 58.372 C 251.518 57.964,251.295 57.962,250.714 58.369 M192.177 59.910 L 191.692 60.332 192.308 59.972 C 193.118 59.497,193.130 59.487,192.877 59.487 C 192.758 59.487,192.443 59.677,192.177 59.910 M214.974 59.677 C 216.163 59.965,217.385 60.118,216.923 59.920 C 216.697 59.823,216.005 59.690,215.385 59.623 C 214.531 59.532,214.431 59.545,214.974 59.677 M249.287 62.359 C 249.287 62.867,249.327 63.074,249.376 62.821 C 249.424 62.567,249.424 62.151,249.376 61.897 C 249.327 61.644,249.287 61.851,249.287 62.359 M223.385 62.051 C 223.667 62.213,223.990 62.344,224.103 62.344 C 224.215 62.344,224.077 62.213,223.795 62.051 C 223.513 61.890,223.190 61.758,223.077 61.758 C 222.964 61.758,223.103 61.890,223.385 62.051 M258.896 64.445 C 258.883 64.633,258.819 64.956,258.754 65.163 C 258.642 65.519,258.648 65.519,258.870 65.173 C 258.999 64.972,259.063 64.649,259.012 64.455 C 258.929 64.138,258.917 64.136,258.896 64.445 M228.103 64.670 C 228.103 64.715,228.495 65.064,228.974 65.445 C 229.454 65.826,229.716 65.975,229.557 65.777 C 229.257 65.404,228.103 64.525,228.103 64.670 M199.479 66.308 C 199.426 66.449,199.405 77.226,199.434 90.256 L 199.487 113.949 205.436 113.954 L 211.385 113.958 205.487 113.899 L 199.590 113.840 199.590 90.052 L 199.590 66.264 204.564 66.205 L 209.538 66.146 204.558 66.099 C 200.726 66.062,199.554 66.110,199.479 66.308 M210.821 66.401 C 211.074 66.450,211.490 66.450,211.744 66.401 C 211.997 66.352,211.790 66.312,211.282 66.312 C 210.774 66.312,210.567 66.352,210.821 66.401 M252.264 67.114 C 252.457 67.190,253.354 67.253,254.256 67.253 C 255.159 67.253,256.056 67.190,256.249 67.114 C 256.442 67.037,255.545 66.974,254.256 66.974 C 252.967 66.974,252.071 67.037,252.264 67.114 M232.312 68.769 C 232.752 69.305,233.145 69.744,233.186 69.744 C 233.332 69.744,232.441 68.604,231.983 68.205 C 231.723 67.979,231.871 68.233,232.312 68.769 M284.308 74.864 C 284.026 74.949,284.579 74.974,285.538 74.918 C 286.497 74.862,287.321 74.783,287.368 74.742 C 287.529 74.600,284.820 74.708,284.308 74.864 M289.897 74.816 C 290.321 74.860,291.013 74.860,291.436 74.816 C 291.859 74.772,291.513 74.736,290.667 74.736 C 289.821 74.736,289.474 74.772,289.897 74.816 M226.441 75.179 C 226.787 75.849,227.071 76.220,227.069 76.000 C 227.068 75.887,226.879 75.564,226.648 75.282 C 226.370 74.941,226.300 74.907,226.441 75.179 M236.220 75.487 C 236.296 75.769,236.443 76.138,236.547 76.308 C 236.680 76.522,236.696 76.459,236.600 76.103 C 236.525 75.821,236.378 75.451,236.273 75.282 C 236.141 75.068,236.125 75.131,236.220 75.487 M255.541 75.427 C 255.796 75.476,256.165 75.474,256.361 75.423 C 256.557 75.372,256.349 75.332,255.897 75.334 C 255.446 75.336,255.286 75.378,255.541 75.427 M250.355 98.359 C 250.355 110.318,250.380 115.240,250.410 109.298 C 250.440 103.355,250.440 93.570,250.410 87.554 C 250.380 81.538,250.355 86.400,250.355 98.359 M258.355 98.359 C 258.355 110.318,258.380 115.240,258.410 109.298 C 258.440 103.355,258.440 93.570,258.410 87.554 C 258.380 81.538,258.355 86.400,258.355 98.359 M299.897 77.603 C 299.897 77.638,300.197 77.938,300.564 78.269 L 301.231 78.872 300.628 78.205 C 300.067 77.584,299.897 77.444,299.897 77.603 M302.038 79.862 C 302.354 80.277,302.654 80.615,302.705 80.615 C 302.847 80.615,301.959 79.415,301.697 79.253 C 301.569 79.174,301.723 79.448,302.038 79.862 M237.681 80.308 C 237.861 81.498,238.165 82.149,238.016 81.026 C 237.949 80.518,237.818 79.964,237.725 79.795 C 237.628 79.619,237.609 79.837,237.681 80.308 M228.843 81.026 C 228.913 81.421,229.053 81.882,229.155 82.051 C 229.373 82.415,229.163 81.352,228.892 80.718 C 228.773 80.441,228.757 80.541,228.843 81.026 M271.828 82.398 C 271.810 83.435,271.864 84.327,271.949 84.379 C 272.033 84.432,272.077 83.860,272.046 83.109 C 271.947 80.730,271.862 80.451,271.828 82.398 M287.132 81.174 C 287.501 81.220,288.054 81.219,288.363 81.172 C 288.671 81.125,288.369 81.088,287.692 81.089 C 287.015 81.090,286.763 81.129,287.132 81.174 M283.795 81.441 C 283.521 81.563,283.691 81.582,284.308 81.501 C 284.815 81.434,285.269 81.345,285.316 81.305 C 285.494 81.150,284.187 81.268,283.795 81.441 M290.051 81.436 C 290.753 81.661,291.292 81.661,290.769 81.436 C 290.544 81.339,290.174 81.262,289.949 81.266 C 289.619 81.270,289.639 81.304,290.051 81.436 M229.686 86.051 C 229.748 86.954,229.833 87.731,229.874 87.778 C 230.017 87.941,229.924 86.046,229.749 85.231 C 229.622 84.642,229.604 84.873,229.686 86.051 M238.650 89.436 C 238.650 91.636,238.680 92.536,238.717 91.436 C 238.754 90.336,238.754 88.536,238.717 87.436 C 238.680 86.336,238.650 87.236,238.650 89.436 M296.535 87.077 C 296.704 87.831,296.822 87.995,296.817 87.470 C 296.816 87.254,296.721 86.938,296.606 86.769 C 296.454 86.545,296.435 86.628,296.535 87.077 M304.868 87.795 C 304.868 88.190,304.910 88.351,304.962 88.154 C 305.014 87.956,305.014 87.633,304.962 87.436 C 304.910 87.238,304.868 87.400,304.868 87.795 M297.067 92.457 L 297.026 94.350 293.077 94.411 L 289.128 94.471 293.083 94.518 C 297.640 94.571,297.279 94.768,297.179 92.291 L 297.109 90.564 297.067 92.457 M229.809 92.513 C 229.809 93.246,229.846 93.546,229.892 93.179 C 229.937 92.813,229.937 92.213,229.892 91.846 C 229.846 91.479,229.809 91.779,229.809 92.513 M238.407 94.154 C 238.407 94.549,238.449 94.710,238.500 94.513 C 238.552 94.315,238.552 93.992,238.500 93.795 C 238.449 93.597,238.407 93.759,238.407 94.154 M229.590 94.667 C 229.592 95.118,229.634 95.278,229.684 95.023 C 229.733 94.768,229.731 94.399,229.679 94.203 C 229.628 94.007,229.588 94.215,229.590 94.667 M237.846 98.051 C 237.767 98.518,237.746 98.942,237.798 98.995 C 237.851 99.048,237.956 98.706,238.031 98.236 C 238.106 97.766,238.127 97.341,238.078 97.292 C 238.029 97.243,237.925 97.585,237.846 98.051 M273.731 99.333 L 273.128 100.000 273.795 99.398 C 274.162 99.066,274.462 98.766,274.462 98.731 C 274.462 98.572,274.292 98.712,273.731 99.333 M293.637 100.254 L 297.018 100.318 297.079 104.672 L 297.140 109.026 297.134 104.615 L 297.128 100.205 293.692 100.197 L 290.256 100.190 293.637 100.254 M287.541 100.453 C 287.796 100.502,288.165 100.500,288.361 100.449 C 288.557 100.397,288.349 100.357,287.897 100.359 C 287.446 100.362,287.286 100.404,287.541 100.453 M327.385 103.077 C 327.767 103.472,328.127 103.795,328.183 103.795 C 328.239 103.795,327.972 103.472,327.590 103.077 C 327.207 102.682,326.848 102.359,326.791 102.359 C 326.735 102.359,327.002 102.682,327.385 103.077 M278.439 105.356 C 278.269 105.763,278.167 106.133,278.212 106.178 C 278.258 106.224,278.440 105.891,278.618 105.438 C 279.020 104.415,278.862 104.342,278.439 105.356 M225.653 106.410 C 225.277 106.946,225.144 107.229,225.357 107.039 C 225.729 106.708,226.564 105.436,226.410 105.436 C 226.369 105.436,226.028 105.874,225.653 106.410 M269.648 108.007 C 269.568 108.754,269.545 109.409,269.598 109.461 C 269.651 109.514,269.759 108.946,269.839 108.198 C 269.919 107.451,269.942 106.796,269.889 106.744 C 269.836 106.691,269.728 107.260,269.648 108.007 M223.686 108.769 L 222.462 110.051 223.744 108.827 C 224.935 107.690,225.120 107.487,224.968 107.487 C 224.936 107.487,224.359 108.064,223.686 108.769 M231.178 112.462 C 230.345 113.392,229.921 113.923,230.237 113.641 C 230.871 113.074,232.910 110.769,232.777 110.769 C 232.731 110.769,232.012 111.531,231.178 112.462 M219.846 111.502 C 219.079 111.918,219.126 112.091,219.897 111.692 C 220.236 111.517,220.513 111.330,220.513 111.277 C 220.513 111.145,220.491 111.152,219.846 111.502 M294.348 111.949 L 293.641 112.718 294.410 112.011 C 295.126 111.353,295.274 111.179,295.117 111.179 C 295.083 111.179,294.737 111.526,294.348 111.949 M215.487 113.136 C 214.675 113.417,214.674 113.419,215.385 113.302 C 215.779 113.237,216.241 113.105,216.410 113.008 C 216.862 112.751,216.426 112.811,215.487 113.136 M279.385 113.088 C 279.385 113.284,281.435 114.872,281.688 114.872 C 281.807 114.872,281.544 114.631,281.106 114.337 C 280.667 114.044,280.100 113.612,279.846 113.379 C 279.592 113.145,279.385 113.014,279.385 113.088 M211.744 113.782 C 211.941 113.834,212.264 113.834,212.462 113.782 C 212.659 113.731,212.497 113.689,212.103 113.689 C 211.708 113.689,211.546 113.731,211.744 113.782 M228.513 114.907 C 227.975 115.395,227.847 115.572,228.205 115.331 C 228.771 114.949,229.712 114.040,229.519 114.060 C 229.473 114.065,229.021 114.446,228.513 114.907 M271.077 115.077 C 271.252 115.415,271.441 115.692,271.498 115.692 C 271.554 115.692,271.457 115.415,271.282 115.077 C 271.107 114.738,270.918 114.462,270.861 114.462 C 270.805 114.462,270.902 114.738,271.077 115.077 M283.590 115.477 C 283.980 115.654,285.496 115.777,285.316 115.616 C 285.269 115.574,284.769 115.484,284.205 115.415 C 283.515 115.331,283.314 115.351,283.590 115.477 M287.077 115.487 C 286.528 115.627,286.517 115.644,286.974 115.644 C 287.256 115.644,287.764 115.573,288.103 115.487 C 288.651 115.348,288.663 115.331,288.205 115.331 C 287.923 115.331,287.415 115.401,287.077 115.487 M297.927 116.017 C 297.995 116.195,298.051 117.193,298.051 118.234 C 298.051 119.639,298.134 120.229,298.370 120.525 C 298.678 120.910,298.682 120.908,298.473 120.475 C 298.354 120.229,298.256 119.052,298.256 117.860 C 298.256 116.412,298.181 115.692,298.029 115.692 C 297.904 115.692,297.858 115.838,297.927 116.017 M271.775 116.227 C 271.890 116.465,272.413 117.111,272.938 117.663 C 273.567 118.324,273.658 118.387,273.203 117.846 C 272.823 117.395,272.300 116.749,272.040 116.410 C 271.780 116.072,271.661 115.989,271.775 116.227 M296.604 117.077 L 295.897 117.846 296.667 117.139 C 297.383 116.481,297.530 116.308,297.374 116.308 C 297.339 116.308,296.993 116.654,296.604 117.077 M222.769 118.272 L 222.256 118.581 222.769 118.447 C 223.051 118.373,223.370 118.231,223.477 118.131 C 223.790 117.838,223.341 117.928,222.769 118.272 M191.196 118.781 C 191.187 118.957,191.323 119.280,191.498 119.499 C 191.812 119.891,191.814 119.891,191.629 119.487 C 191.525 119.262,191.389 118.938,191.326 118.769 C 191.227 118.503,191.210 118.505,191.196 118.781 M214.769 120.410 C 214.068 120.558,214.066 120.562,214.667 120.574 C 215.005 120.581,215.467 120.507,215.692 120.410 C 216.186 120.198,215.776 120.198,214.769 120.410 M277.128 120.513 C 277.410 120.674,277.733 120.806,277.846 120.806 C 277.959 120.806,277.821 120.674,277.538 120.513 C 277.256 120.352,276.933 120.220,276.821 120.220 C 276.708 120.220,276.846 120.352,277.128 120.513 M197.385 120.974 C 199.500 121.007,202.962 121.007,205.077 120.974 C 207.192 120.941,205.462 120.913,201.231 120.913 C 197.000 120.913,195.269 120.941,197.385 120.974 M209.487 120.967 C 209.797 121.014,210.305 121.014,210.615 120.967 C 210.926 120.920,210.672 120.882,210.051 120.882 C 209.431 120.882,209.177 120.920,209.487 120.967 M278.872 121.231 C 279.097 121.328,279.421 121.407,279.590 121.407 C 279.784 121.407,279.746 121.342,279.487 121.231 C 279.262 121.134,278.938 121.054,278.769 121.054 C 278.575 121.054,278.613 121.120,278.872 121.231 M289.128 121.231 C 288.870 121.342,288.832 121.407,289.026 121.407 C 289.195 121.407,289.518 121.328,289.744 121.231 C 290.002 121.120,290.040 121.054,289.846 121.054 C 289.677 121.054,289.354 121.134,289.128 121.231 M299.692 121.241 C 300.207 121.395,303.118 121.502,302.957 121.360 C 302.910 121.319,302.041 121.240,301.026 121.186 C 300.010 121.131,299.410 121.156,299.692 121.241 M253.487 121.381 C 253.967 121.424,254.751 121.424,255.231 121.381 C 255.710 121.338,255.318 121.302,254.359 121.302 C 253.400 121.302,253.008 121.338,253.487 121.381 M283.641 121.995 C 284.008 122.040,284.608 122.040,284.974 121.995 C 285.341 121.949,285.041 121.912,284.308 121.912 C 283.574 121.912,283.274 121.949,283.641 121.995 M390.410 127.526 C 390.608 127.578,390.931 127.578,391.128 127.526 C 391.326 127.474,391.164 127.432,390.769 127.432 C 390.374 127.432,390.213 127.474,390.410 127.526 M347.849 149.478 C 348.104 149.527,348.473 149.526,348.669 149.474 C 348.865 149.423,348.656 149.383,348.205 149.385 C 347.754 149.387,347.593 149.429,347.849 149.478 " stroke="none" fill="#bcc6ce" fill-rule="evenodd"></path><path id="path8" d="M251.692 58.189 C 249.286 59.228,248.677 64.574,250.777 66.226 C 252.449 67.541,257.208 67.219,258.326 65.715 C 259.218 64.515,259.215 60.024,258.322 59.035 C 257.258 57.859,253.553 57.386,251.692 58.189 M193.350 59.574 C 192.909 59.738,192.309 60.111,192.017 60.402 L 191.487 60.932 191.434 89.750 C 191.374 121.863,191.275 119.622,192.797 120.398 C 194.584 121.310,212.682 120.927,217.333 119.879 C 225.596 118.018,231.982 113.250,235.025 106.667 C 236.276 103.961,236.354 103.749,237.215 100.718 C 238.914 94.742,238.906 84.325,237.197 78.667 C 234.206 68.758,228.118 62.867,218.359 60.436 C 214.283 59.421,195.506 58.774,193.350 59.574 M212.151 66.260 C 213.137 66.373,214.464 66.601,215.101 66.767 C 215.737 66.933,216.339 67.019,216.437 66.958 C 216.535 66.897,216.615 66.927,216.615 67.024 C 216.615 67.121,217.100 67.375,217.692 67.587 C 220.727 68.675,223.981 71.227,225.993 74.097 C 226.445 74.742,226.889 75.204,226.979 75.122 C 227.069 75.041,227.083 75.078,227.011 75.205 C 226.938 75.332,227.154 75.987,227.491 76.660 C 231.389 84.461,230.757 99.306,226.242 105.987 C 222.047 112.195,217.886 113.868,206.308 114.001 L 199.385 114.080 199.385 90.066 L 199.385 66.051 204.872 66.053 C 207.890 66.054,211.165 66.147,212.151 66.260 M284.308 75.074 C 279.359 75.845,274.154 77.917,272.718 79.689 C 271.538 81.145,271.831 84.880,273.164 85.355 C 273.501 85.475,274.182 85.220,275.955 84.313 C 280.149 82.168,282.201 81.488,285.392 81.189 C 293.886 80.391,297.231 83.506,297.231 92.214 L 297.231 94.564 294.205 94.571 C 284.246 94.596,279.470 95.588,274.986 98.565 C 273.934 99.264,272.604 100.513,272.912 100.513 C 273.005 100.513,272.854 100.692,272.576 100.910 C 269.497 103.332,269.083 112.038,271.860 115.971 C 277.098 123.385,289.186 123.753,296.869 116.732 C 298.330 115.397,298.256 115.338,298.256 117.855 C 298.256 120.898,298.391 121.026,301.609 121.026 C 303.537 121.026,304.033 120.962,304.398 120.667 L 304.841 120.308 304.772 103.282 C 304.691 83.226,304.701 83.300,301.698 79.564 C 298.844 76.012,291.107 74.014,284.308 75.074 M251.836 75.672 C 251.407 75.762,250.945 75.947,250.810 76.082 C 250.623 76.270,250.551 81.525,250.510 98.171 L 250.456 120.013 250.962 120.519 C 251.598 121.155,256.319 121.295,257.446 120.713 L 258.051 120.400 258.051 98.479 C 258.051 77.634,258.033 76.536,257.680 76.100 C 257.270 75.593,253.514 75.318,251.836 75.672 M297.231 104.785 L 297.231 109.467 295.641 110.998 C 291.711 114.780,289.335 115.832,285.143 115.645 C 279.755 115.405,276.743 111.454,278.059 106.351 C 279.215 101.866,283.173 100.154,292.462 100.120 L 297.231 100.103 297.231 104.785 " stroke="none" fill="#6c748c" fill-rule="evenodd"></path></g></svg>